<?xml version="1.0" encoding="UTF-8"?>
<svg id="Layer_1" data-name="Layer 1" xmlns="http://www.w3.org/2000/svg" version="1.1" viewBox="0 0 1047.7 155.2">
  <defs>
    <style>
      .cls-1 {
        fill: #232323;
      }

      .cls-1, .cls-2 {
        stroke-width: 0px;
      }

      .cls-2 {
        fill: #232323;
      }
    </style>
  </defs>
  <path class="cls-1" d="M155.9,7.3c31.2,0,62.1,0,93,.1,8.5,0,16.9,1.3,24.9,4.7,1.9.8,3.8,1.7,5.5,2.9,5.6,3.7,9.5,8.5,8.9,15.6-.6,7-4.8,11.7-10.9,14.8-1.3.6-2.6,1.1-3.5,1.5,5.4,4.8,11,9.7,16.3,14.4,2-4.8,3.9-10.4,6.6-15.5,8.7-16,22.2-26.9,39.3-32.6,25.8-8.7,51.7-8.7,76.9,2.6,20.4,9.2,33.6,24.9,39.4,46.7.3,1.1.6,2.1.9,3,0-16.9,0-34,0-51,0-5.5,1.7-7.1,7.2-7.1,8.7,0,17.5,0,26.2,0,5.8,0,7.4,1.5,7.4,7.3,0,27,.4,54-.2,81-.3,16.1,9,23.1,19.6,26.2,13.4,3.9,26.6,3.3,39.2-3,8.9-4.4,13.5-11.5,13.4-21.8-.2-27.5,0-54.9,0-82.4,0-5.9,1.4-7.3,7.3-7.3,51.5,0,102.9,0,154.4,0,5.4,0,7,1.5,7,6.9,0,3.9,0,7.8,0,11.7,0,5-1.6,6.6-6.6,6.6-13.3,0-26.7,0-40,0-6.3,0-7.6,1.4-7.6,7.7,0,33.7,0,67.3,0,101,0,6.6-1.4,8-8.1,8-10.9,0-21.8,0-32.7,0-5.5,0-7.2-1.7-7.2-7.1,0-34,0-68,0-102,0-6-1.5-7.6-7.5-7.6-6.5,0-13,0-19.8,0,0,5.7,0,11,0,16.2.1,16.1,0,32.2.4,48.2.3,16-6.8,28-19.6,36.8-12.8,8.8-27.3,12.9-42.5,14.6-19.8,2.2-39.2.5-57.7-7.4-12.4-5.2-23-12.7-28.4-25.6-1.9-4.7-2.5-9.9-3.3-15-.5-2.9,0-5.9,0-9-2,5.5-3.5,11-6,16.1-8.6,18-22.8,29.8-41.6,35.7-27.2,8.6-54.1,7.6-80-5-10.8-5.3-19.6-13.1-26.3-23.1-.6-.9-1.3-1.8-2-2.9-9,21.9-26.7,31.3-48.4,34.9-6.4,1.1-13,1.4-19.5,1.4-37.7.1-75.4,0-113,.1-3.4,0-5.5-.9-6.4-4.3-1.3-4.9-4.4-6.3-9.4-6.2-13.7.4-27.3.2-41,0-2.8,0-5,.6-6.3,3.2-2.8,6-7.4,7.6-13.9,7.2-9.4-.6-18.8-.1-28.3-.2-4.5,0-5.7-1.9-3.7-6.1C29.5,97.6,51.2,52.6,72.8,7.6c1.1-2.3,2.6-3.2,5.1-3.1,2.8.1,5.3-.3,7.1,3.2,19.3,38.1,38.8,76.1,58.3,114.2.6,1.1,1.2,2.2,2.6,3.3v-3.7c0-34.8,0-69.6,0-104.4,0-9.2.5-9.8,10.1-9.8M397.9,108.4c4.7-8.2,6.8-17.3,7.2-26.6.6-14.2-1.7-27.7-10.2-39.5-6.8-9.5-16.2-13.7-27.8-12-10.8,1.6-17.6,8.2-21.7,17.9-5.5,13-5.5,26.4-2.9,39.9,2,10.3,5.6,19.9,12.5,27.9,6.7,7.8,15.1,10.3,25.1,7.3,7.9-2.3,13.4-7.6,17.9-14.9M207.2,132.4c8.5,0,17,.3,25.5-.3,25.1-1.8,40-29.1,27.9-51.1-6.5-11.8-17.4-16.6-30.3-17-13-.4-25.9,0-38.9-.2-3.3,0-4.5,1.7-4.5,4.7,0,19.5,0,39,0,58.6,0,3.7,1.5,5.2,5.2,5.3,4.8,0,9.6,0,15.2,0M237.4,22.6c-1.2-.3-2.5-.8-3.7-.8-14-.2-28-.4-42-.4-3,0-4.8,2-4.9,5.2,0,2.2,0,4.4,0,6.5,0,3.9,2,5.9,5.9,5.9,12.3,0,24.6.3,36.8-.1,3.9-.1,8.1-1.6,11.6-3.5,4.5-2.6,4.2-7.7,0-10.8-1-.7-2.2-1.2-3.8-2M89.8,100c-2.6-5.6-5-11.3-7.8-16.8-.6-1.2-2.2-2.5-3.5-2.6-.9,0-2.5,1.4-3,2.5-4.3,10.1-8.4,20.2-12.5,30.4-1.3,3.3-.1,5.2,3.4,5.3,8.8.1,17.6.1,26.5,0,3.5,0,4.6-2,3.1-5.3-2-4.4-4-8.7-6.3-13.5Z"/>
  <path class="cls-1" d="M954.7,18.5c0,41.3,0,82.4,0,123.4,0,5.8-1.7,7.4-7.3,7.4-7.9,0-15.9,0-23.8,0-5.1,0-6.9-1.7-6.9-6.8,0-9,0-17.9,0-26.9,0-3-.6-5.6-3.7-6.6-3-1-4.9.7-6.7,2.9-7.8,10.1-15.6,20.1-23.4,30.2-3.9,5-7.2,4.9-10.9-.2-7-9.7-14-19.3-21-29-1.7-2.3-3.4-4-6.6-3.1-3.3,1-3.9,3.5-3.9,6.5,0,8.6,0,17.2,0,25.8,0,5.4-1.7,7.1-6.9,7.1-7.8,0-15.6,0-23.4,0-4.6,0-6.5-1.8-6.5-6.4,0-42.8,0-85.7,0-128.5,0-4.7,1.7-6.5,6.4-6.5,8.5,0,17,0,25.5,0,3.6,0,5.6,1.5,6.9,4.9,9.7,24.8,19.6,49.6,29.4,74.4,1,2.6,2.3,4.9,5.4,5,3.3.1,4.7-2.2,5.8-4.9,10.3-24.6,20.7-49.1,31.1-73.7,2.2-5.1,2.9-5.6,8.5-5.6,7.8,0,15.6,0,23.4,0,7.2,0,8.5,1.3,8.5,8.3,0,.7,0,1.4,0,2.4Z"/>
  <path class="cls-2" d="M1016.9,32.7c-3.2,0-6.1,0-9,0-3.4.1-5.4,2-5.4,5.4,0,13.7,0,27.3,0,41,0,3.7,2.1,5.5,5.9,5.6,5.2,0,10.3,0,15.5,0,4.8,0,6.6,2.1,6.5,7.2,0,4.9-1.8,6.6-6.6,6.6-5.1,0-10.1,0-15.2,0-4.1,0-6.1,2-6.2,6.1,0,4.8,0,9.6,0,14.5,0,4.4,1.9,6.2,6.4,6.2,8.7,0,17.5,0,26.2,0,5,0,6.7,1.7,6.7,6.6,0,2,0,3.9,0,5.9q0,11.5-11.4,11.5c-17.9,0-35.8,0-53.7,0-10.5,0-10.8-.3-10.8-10.7,0-41.1,0-82.2,0-123.3,0-6,1.5-7.5,7.5-7.5,20.3,0,40.6,0,61,0,6,0,7.4,1.5,7.4,7.6,0,3.7,0,7.3,0,11,0,4.4-1.9,6.3-6.3,6.4-6.1,0-12.2,0-18.6,0Z"/>
</svg>