<?xml version="1.0" encoding="UTF-8"?>
<svg id="Layer_1" data-name="Layer 1" xmlns="http://www.w3.org/2000/svg" version="1.1" viewBox="0 0 1034.08 446.79">
  <defs>
    <style>
      .cls-1 {
        fill: #232323;
      }

      .cls-1, .cls-2 {
        stroke-width: 0px;
      }

      .cls-2 {
        fill: #232323;
      }
    </style>
  </defs>
  <path class="cls-2" d="M87.89,434.54c-.62-4.22-1.15-7.99-1.84-11.74-.78-4.23-3.57-6.31-7.72-6.38-6.5-.11-13-.15-19.5,0-4.67.11-7.42,2.69-7.87,7.38-.52,5.47-.82,10.96-1.31,16.43-.5,5.63-3.07,8.08-8.67,8.12-10.67.08-21.33.06-32,0-6.8-.03-9.77-3.52-8.81-10.18,6.33-43.65,12.67-87.3,19.01-130.95,9.86-67.92,19.72-135.83,29.6-203.74,4.63-31.8,9.3-63.59,13.98-95.39.85-5.76,3.17-7.77,8.92-7.89,1.83-.04,3.67-.03,5.5,0,6.35.09,8.8,2.19,9.5,8.41,3.68,32.43,7.3,64.87,10.98,97.31,6.78,59.67,13.59,119.33,20.42,179,.2,1.75.77,3.45,1.6,5.09,0-12.95,0-25.9,0-38.85.03-80,.07-160,.11-239.99,0-8.89,2.03-10.96,10.77-10.96,32,0,64.02.62,95.99-.19,28.75-.73,43.02,15.55,49.46,35.3,8.18,25.06,7.72,50.25-1.41,75-2.18,5.92-6.24,11.15-9.63,17.05,4.5,9.73,9.48,20.5,14.75,31.91,1.42-10.03,2.53-19.51,4.13-28.92,5.24-30.97,12.14-61.48,26.98-89.56,5.48-10.37,12.02-20,21.1-27.63,20.03-16.82,44.89-15.08,62.26,4.52,4.93,5.57,9.28,11.64,14.65,18.43,0-5.82,0-10.85,0-15.88,0-3.83-.12-7.67.04-11.5.21-5.21,2.9-8.05,8.13-8.21,9.99-.29,19.99-.41,29.99-.4,5.28,0,7.83,2.7,8.15,8.04.09,1.49.02,3,.02,4.5,0,93.5-.04,187,.03,280.5.01,18.66,2.41,36.95,11.08,53.83,4.51,8.78,10.62,16.23,20.18,19.91,12.03,4.63,25.18-.37,34.6-13.27,11.56-15.84,15.55-34.23,16.03-53.27.69-27.48.49-54.99.51-82.48.05-68.5.02-137,.02-205.5,0-11.2,1.14-12.25,12.3-12.18,31.83.19,63.65.28,95.48.48,16.99.1,33.99.33,50.98.54,6.59.08,9.04,2.53,9.05,9.08.03,20.5.03,41,0,61.5-.01,6.75-2.55,9.23-9.48,9.27-11.83.06-23.67,0-35.5.02-9.02,0-10.93,1.9-10.93,10.82,0,84.83.02,169.66-.01,254.5-.01,30.66-.16,61.32-.25,91.99-.02,7.5-2.34,9.81-9.84,9.82-9.67.01-19.33,0-29,0-8.43,0-10.58-2.14-10.57-10.63.07-114.49.15-228.99.23-343.48,0-1.5.06-3-.02-4.5-.27-5.55-2.92-8.28-8.36-8.49-2.79-.11-5.59-.02-8.98-.02v6.31c0,67-.02,134,.01,201,.01,28.63-2.65,56.89-11.51,84.3-7,21.66-16.69,41.84-33.91,57.41-28.16,25.45-64.09,23.31-89.45-4.98-9-10.04-15.82-21.4-21.19-33.69-.99-2.26-1.94-4.53-3.27-7.63-2.27,5.59-4.11,10.37-6.15,15.07-5.86,13.54-12.93,26.32-23.59,36.79-19,18.65-43.96,19.02-63.45.84-13.63-12.71-21.9-28.87-28.36-45.96-4-10.57-7-21.52-10.43-32.31-.54-1.7-1.03-3.43-1.9-6.35-2.13,8.62-3.75,16.03-5.82,23.32-5.6,19.69-13.03,38.55-26.94,54.09-11.11,12.4-24.83,19.18-41.78,19.13-37.67-.11-75.33-.03-113-.03-12.72,0-13.64-.88-14.11-13.83M166.1,282.88c.04,34.65.08,69.3.14,103.95.01,8.27,1.79,10.04,9.94,10.05,11.49.01,22.99-.12,34.48.05,7.49.11,13.62-2.53,18.68-7.94,8.92-9.55,13.52-21.34,16.75-33.63,10.77-40.95,11.43-82.28,3.47-123.74-2.71-14.1-6.92-27.81-15.58-39.67-5.02-6.87-11.31-12.1-20.13-12.33-13.82-.37-27.65-.13-41.48-.13-3.34,0-5.33,1.76-5.87,4.97-.33,1.96-.4,3.97-.4,5.96-.02,30.49-.02,60.97-.02,92.46M330.37,177.15c-1.41,34-.53,67.95,2.62,101.82,2.16,23.23,4.88,46.43,11.63,68.87,2,6.64,4.75,13.21,8.21,19.21,4.42,7.67,11.16,8.21,17.21,1.7,3.01-3.23,5.99-7.07,7.31-11.17,4.06-12.64,8.51-25.35,10.67-38.38,9.24-55.74,8.98-111.78,3.06-167.83-2.06-19.57-4.86-39.1-12.2-57.5-2.47-6.19-6.25-12.12-10.53-17.25-3.94-4.72-10.14-4.45-14.73-.25-2.65,2.42-5.23,5.34-6.69,8.55-2.95,6.49-5.68,13.18-7.49,20.05-6.17,23.32-7.87,47.27-9.05,72.2M228.13,54.84c-3.27-6.89-8.76-10.18-16.34-10.17-12,.02-24-.1-35.99.04-7.05.08-9.51,2.72-9.54,9.87-.06,12.16-.05,24.33,0,36.49.02,7.17,2.46,9.73,9.55,9.78,12,.09,24-.05,35.99.05,7.51.06,12.73-3.3,15.85-10,5.43-11.66,5.5-23.48.49-36.07M80.97,268.36c-1.15-5.51-3.7-8.05-8.05-7.65-4.75.44-6.79,3.37-7.23,8.01-1.34,14.09-2.89,28.16-4.34,42.24-1.8,17.56-3.62,35.11-5.32,52.67-.78,8.04,1.74,10.73,9.65,10.75,3.83.01,7.67.09,11.49-.02,4.88-.15,7.66-2.94,7.82-7.83.07-2.16-.11-4.33-.2-6.49-1.25-30.27-2.51-60.53-3.82-91.68Z"/>
  <path class="cls-1" d="M796.88,434.29c0,2.32.06,4.15-.02,5.98-.22,4.92-2.93,7.85-7.77,7.9-11.33.12-22.67.12-34,0-5.3-.05-8.14-3.03-8.15-8.62-.06-27.83-.02-55.67,0-83.5,0-2.16.16-4.33.16-6.49,0-112.66,0-225.33,0-337.99,0-9.59,1.85-11.49,11.23-11.49,9.83,0,19.67,0,29.5,0,7.77,0,9.56,1.41,10.86,9.22,6.16,37.09,12.17,74.21,18.38,111.3,7.25,43.33,14.66,86.64,21.94,129.97.74,4.37,3.01,7.02,7.44,7.38,4.01.33,6.88-2.49,7.78-7.46,10.96-60.61,21.89-121.22,32.84-181.83,3.67-20.31,7.33-40.62,11.02-60.93,1.04-5.72,3.31-7.63,9.17-7.64,29.17-.02,58.33-.03,87.5,0,6.46,0,9.18,2.6,9.2,9.02.07,20.17.07,40.33,0,60.5-.02,6.31-2.82,8.9-9.31,8.92-11,.04-22,0-33,.02-8.19.02-10.63,2.51-10.63,10.83,0,48,0,96,0,144,0,7.9,2.43,10.27,10.49,10.31,6,.03,12-.06,18,.02,6.24.08,8.85,2.66,8.9,8.79.06,8.83.07,17.67,0,26.5-.05,6.04-2.45,8.45-8.49,8.53-6.5.08-13-.05-19.5.04-6.63.1-9.37,2.87-9.38,9.54-.04,22.17-.04,44.33,0,66.5.01,6.12,2.74,8.8,8.86,8.83,11.5.05,23-.01,34.5.03,6.63.02,9.47,2.77,9.49,9.39.06,19,.05,38,0,57-.02,6.61-2.82,9.43-9.47,9.44-28.5.05-57,.05-85.5,0-6.84-.01-9.4-2.78-9.4-9.93-.02-33.67.02-67.33-.07-101,0-2.4-.13-5.52-1.55-7.02-1.67-1.75-5.22-3.35-7.23-2.72-2.51.79-5.32,3.55-6.22,6.09-5.4,15.2-10.28,30.59-15.36,45.91-4.92,14.85-9.97,29.66-14.76,44.55-1.26,3.93-3.33,6.69-7.51,6.81-4.49.13-6.68-2.79-7.94-6.9-8.53-27.83-17.17-55.63-25.79-83.43-.54-1.75-1.13-3.48-1.71-5.21-1.32-3.88-4.04-5.69-8.07-4.97-3.97.71-6.08,3.37-6.17,7.35-.17,7.49-.23,14.99-.24,22.49-.03,24.5,0,49-.01,73.98Z"/>
</svg>