<?xml version="1.0" encoding="UTF-8"?>
<svg id="Layer_1" data-name="Layer 1" xmlns="http://www.w3.org/2000/svg" version="1.1" viewBox="0 0 1055.04 132.47">
  <defs>
    <style>
      .cls-1 {
        fill: #232323;
      }

      .cls-1, .cls-2 {
        stroke-width: 0px;
      }

      .cls-2 {
        fill: #232323;
      }
    </style>
  </defs>
  <path class="cls-1" d="M925.77,3.27c6.95,0,13.68-.01,20.4,0,4.38.01,5.95,1.61,5.95,5.99,0,37.02,0,74.05,0,111.07,0,4.76-1.27,6.04-6.03,6.04-6.48,0-12.95.02-19.43,0-3.54-.01-5.13-1.62-5.13-5.18-.01-10.46-.02-20.92,0-31.38,0-2.5-.46-4.63-3.18-5.53-2.76-.91-4.34.64-5.8,2.64-8.11,11.12-16.2,22.26-24.43,33.29-.95,1.28-2.53,2.42-4.05,2.88-1.96.59-3.31-.91-4.43-2.5-7.74-11.06-15.55-22.08-23.27-33.16-1.44-2.07-3.02-3.55-5.74-2.78-2.27.64-3.25,2.32-3.25,5.48,0,10.29,0,20.59,0,30.88,0,3.76-1.51,5.29-5.26,5.29-6.14.01-12.29.01-18.43,0-3.69,0-5.23-1.56-5.23-5.3,0-23.91,0-47.82,0-71.73,0-13.45-.03-26.9-.04-40.34,0-3.93,1.64-5.64,5.53-5.66,7.72-.03,15.44,0,23.16-.02,2.69,0,4.49,1.1,5.64,3.62,8.9,19.58,17.88,39.14,26.8,58.71.84,1.84,1.89,3.35,4.1,3.47,2.4.13,3.74-1.29,4.79-3.28,10.34-19.57,20.76-39.1,31.06-58.69,1.35-2.58,3.12-3.99,6.27-3.82Z"/>
  <path class="cls-1" d="M140.26,26.61c0-6.06-.02-11.87,0-17.68.02-3.68,1.62-5.32,5.31-5.32,24.64,0,49.29-.05,73.93.14,8.18.06,16.22,1.44,23.5,5.51,6.48,3.62,10.87,8.79,10.77,16.62-.09,7.43-4.87,13.48-12.8,16.43.73.48,1.28.86,1.83,1.21,15.13,9.74,22.55,23.82,21.48,41.57-1.1,18.18-11.8,29.85-28.26,36.55-8.92,3.63-18.32,5.09-27.9,5.13-20.74.1-41.49.03-62.24.03-4.22,0-5.81-1.6-5.81-5.87,0-30.29,0-60.58,0-90.86,0-1.07.1-2.15.15-3.47M212.3,65.49c-11.04-.04-22.07-.11-33.11-.09-2.66,0-4.27,1.88-4.28,4.76-.03,9.29-.03,18.59,0,27.89.01,3.31,1.57,4.89,4.9,4.89,10.62.02,21.25.09,31.87-.1,5.02-.09,9.28-2.3,12.61-6.09,8.5-9.68,5.5-28.75-11.99-31.26M223.68,29.7c.24-2.79-.98-5.05-3.36-6.15-2.57-1.18-5.44-2.32-8.21-2.39-10.86-.27-21.73-.14-32.6-.11-2.8,0-4.46,1.69-4.55,4.49-.08,2.49-.1,4.98-.05,7.47.05,2.98,1.6,4.74,4.59,4.75,11.28.03,22.56.07,33.84-.19,5.31-.12,8.95-3.07,10.34-7.87Z"/>
  <path class="cls-1" d="M536.45,119.17c-24.55,9.58-48.97,9.9-73.26-.02-9.4-3.84-17.22-9.9-22.3-18.99-2.98-5.33-4.29-11.11-4.3-17.15-.02-24.57.03-49.13.07-73.7,0-4.16,1.53-5.68,5.69-5.71,9.21-.06,18.42-.12,27.63-.17,4.53-.02,5.91,1.38,5.91,5.95.01,24.4.02,48.8.03,73.21,0,11.86,7.44,20.25,19.32,21.68,8.35,1,16.01-.64,22.43-6.39,4.47-4.01,6.34-9.19,6.34-15.11,0-24.49,0-48.97,0-73.46,0-4.56,1.38-5.98,5.91-5.96,9.46.04,18.92.11,28.38.2,3.81.04,5.48,1.67,5.49,5.49.02,24.65.13,49.3-.03,73.95-.1,15.69-8.76,26.06-21.81,33.42-1.73.97-3.54,1.8-5.49,2.76Z"/>
  <path class="cls-1" d="M398.04,22.64c13.04,14.86,17.74,32.12,15.56,51.35-1.77,15.63-8.4,28.87-20.54,39.08-8.53,7.17-18.51,11.25-29.47,12.86-13.95,2.05-27.65,1.08-40.66-4.71-19.5-8.67-30.59-24.05-34.41-44.76-2.65-14.38-.66-28.29,6.17-41.26,8.18-15.54,21.02-25.42,38.06-29.55,15.91-3.86,31.6-3.14,46.76,3.53,7.08,3.11,13.17,7.65,18.53,13.45M331.26,84.14c1.81,5.65,4.23,10.98,8.16,15.49,5.5,6.31,12.3,7.77,19.92,4.3,6.89-3.14,10.67-9,13.32-15.69,4.44-11.23,4.98-22.89,3.21-34.71-1.3-8.64-4.04-16.72-9.91-23.44-7.14-8.18-18.37-9.28-27.01-2.72-4.13,3.14-6.56,7.44-8.17,12.2-4.98,14.75-3.98,29.49.48,44.57Z"/>
  <path class="cls-1" d="M31.61,46.72c5.62-13.56,11.2-26.94,16.64-40.36.9-2.21,2.16-3.01,4.48-2.97,6.55.11,13.11.09,19.67,0,2.13-.03,3.3.76,4.08,2.78,14.8,38.39,29.65,76.75,44.48,115.13,1.44,3.73.58,4.98-3.49,5-8.05.05-16.1,0-24.15.11-1.99.02-3-.78-3.68-2.59-2.65-7-1.14-6.07-8.89-6.09-13.78-.03-27.55.03-41.33-.05-2.11-.01-3.3.71-4.27,2.6-3.81,7.49-1.83,5.97-10,6.07-7.05.09-14.11.02-21.16.02-3.97,0-4.83-1.34-3.27-5.11,10.18-24.56,20.37-49.11,30.55-73.67.1-.23.16-.47.33-.88M68.54,98.8c2.32,0,4.64,0,6.96,0,3.38-.01,4.39-1.4,3.24-4.51-4.64-12.56-9.3-25.12-13.93-37.69-.54-1.47-1.24-3.09-3.02-2.61-1.1.3-2.35,1.51-2.77,2.61-4.82,12.5-9.51,25.06-14.21,37.61-1.23,3.28-.24,4.59,3.34,4.59,6.63,0,13.26,0,20.39,0Z"/>
  <path class="cls-1" d="M625.89,33.41c-1.64-.5-3.13-1.18-4.63-1.2-9.71-.1-19.42-.04-29.13-.05-3.99,0-5.47-1.36-5.52-5.33-.07-6.06-.08-12.12.01-18.18.06-3.77,1.79-5.39,5.59-5.38,36.1.13,72.2.27,108.3.41,3.36.01,5.09,1.63,5.13,5.03.09,6.31.08,12.62,0,18.92-.03,3.03-1.76,4.57-4.99,4.58-10.13.03-20.25,0-30.38.01-4.62,0-6.13,1.5-6.13,6.09,0,27.22,0,54.45,0,81.67,0,5.1-1.21,6.32-6.24,6.32-8.22,0-16.43,0-24.65,0-4.45,0-5.82-1.35-5.82-5.76,0-27.39.02-54.78-.06-82.17,0-1.62-.88-3.23-1.5-4.98Z"/>
  <path class="cls-2" d="M1054.74,6.79c.15,5.07.39,9.96.23,14.83-.08,2.56-2.28,3.93-5.44,3.94-9.46.02-18.92,0-28.38,0-4.01,0-5.59,1.52-5.61,5.51-.03,8.55-.03,17.1,0,25.65.01,4.37,1.47,5.77,5.88,5.77,5.56,0,11.12-.02,16.68,0,3.86.02,5.47,1.65,5.48,5.44.01,3.24.02,6.47,0,9.71-.03,3.44-1.75,5.17-5.23,5.19-5.81.03-11.62,0-17.43.01-3.7,0-5.32,1.55-5.38,5.25-.06,4.23-.07,8.47,0,12.7.06,3.75,1.6,5.22,5.4,5.22,9.3.02,18.59,0,27.89,0,4.75,0,6.21,1.48,6.21,6.25,0,2.9,0,5.81,0,8.71,0,4.38-1.44,5.86-5.78,5.87-14.19.02-28.38,0-42.58,0-7.47,0-14.94.01-22.41,0-4.01,0-5.62-1.55-5.62-5.54.02-37.51.06-75.02.11-112.54,0-3.31,1.72-5.02,5.1-5.02,22.08,0,44.15.03,66.23.06,2.08,0,3.7.78,4.65,2.96Z"/>
</svg>