<svg width="271" height="244" viewBox="0 0 271 244" fill="none" xmlns="http://www.w3.org/2000/svg">
<path d="M195.762 219.777C177.503 233.347 155.805 241.577 133.108 243.542C110.41 245.507 87.6125 241.129 67.2759 230.9C46.9393 220.671 29.8699 204.996 17.9858 185.638C6.10169 166.279 -0.126202 144.004 0.00193756 121.314C0.130077 98.6242 6.60918 76.4196 18.7112 57.1954C30.8132 37.9711 48.0585 22.4889 68.5094 12.4885C88.9602 2.48814 111.806 -1.63418 134.48 0.584802C157.154 2.80378 178.757 11.2761 196.862 25.0498L168.595 61.9028C157.372 53.3648 143.981 48.113 129.926 46.7375C115.871 45.362 101.709 47.9174 89.0325 54.1164C76.3555 60.3154 65.6655 69.9125 58.1637 81.8291C50.662 93.7458 46.6457 107.51 46.5663 121.575C46.4869 135.639 50.3474 149.448 57.7141 161.448C65.0808 173.448 75.6617 183.164 88.2679 189.504C100.874 195.845 115.006 198.559 129.076 197.341C143.145 196.123 156.595 191.021 167.914 182.61L195.762 219.777Z" fill="#5F25E9"/>
<path d="M239.5 161.5C234.392 179.883 225.958 189.705 213.089 203.832L178.604 172.676C186.581 163.919 192.386 153.421 195.553 142.026L239.5 161.5Z" fill="#5F25E9"/>
<path d="M224.371 13.5727L175.834 64.5153C174.701 65.7051 174.738 67.5852 175.907 68.74C184.807 77.5293 190.526 84.1774 194.153 95.6015C194.656 97.187 196.305 98.1412 197.909 97.7003L266.503 78.8463C268.221 78.3739 269.151 76.5122 268.487 74.8582C257.238 46.8646 247.854 32.6683 228.636 13.5105C227.451 12.3293 225.525 12.3615 224.371 13.5727Z" fill="#5F25E9"/>
<path d="M195.756 141.92C199.404 127.344 200.396 112.956 194.563 96.9453C193.855 95.0002 195.166 92.8591 197.232 92.7247L252.027 89.1609C253.462 89.0675 254.765 90.0096 255.114 91.4052C261.714 117.827 260.684 133.213 254.27 158.066C253.853 159.681 252.189 160.637 250.581 160.192L197.88 145.608C196.288 145.167 195.355 143.523 195.756 141.92Z" fill="#5F25E9"/>
</svg>
