<svg width="701" height="880" viewBox="0 0 701 880" fill="none" xmlns="http://www.w3.org/2000/svg">
<path d="M511 521.5H613.5C650.503 521.5 680.5 491.503 680.5 454.5V87C680.5 49.9969 650.503 20 613.5 20H51.5V20C34.103 20 20 34.103 20 51.5V230M511 521.5V297C511 259.997 481.003 230 444 230H20M511 521.5V622C511 659.003 481.003 689 444 689H334.5M20 230V434M20 434H267.5C304.503 434 334.5 463.997 334.5 501V689M20 434V793C20 830.003 49.9969 860 87 860H267.5C304.503 860 334.5 830.003 334.5 793V689" stroke="#232323" stroke-width="40"/>
</svg>
