<svg width="706" height="886" viewBox="0 0 706 886" fill="none" xmlns="http://www.w3.org/2000/svg">
<path d="M514 524.5H616.5C653.503 524.5 683.5 494.503 683.5 457.5V90C683.5 52.9969 653.503 23 616.5 23H54.5V23C37.103 23 23 37.103 23 54.5V233M514 524.5V300C514 262.997 484.003 233 447 233H23M514 524.5V625C514 662.003 484.003 692 447 692H337.5M23 233V437M23 437H270.5C307.503 437 337.5 466.997 337.5 504V692M23 437V796C23 833.003 52.9969 863 90 863H270.5C307.503 863 337.5 833.003 337.5 796V692" stroke="#FBC13F" stroke-width="45"/>
</svg>
