<?xml version="1.0" encoding="UTF-8"?>
<svg id="Layer_1" data-name="Layer 1" xmlns="http://www.w3.org/2000/svg" version="1.1" viewBox="0 0 1243 1180">
  <defs>
    <style>
      .cls-1 {
        fill: #eb0585;
      }

      .cls-1, .cls-2, .cls-3, .cls-4, .cls-5, .cls-6, .cls-7, .cls-8 {
        stroke-width: 0px;
      }

      .cls-2 {
        fill: #ec0486;
      }

      .cls-3 {
        fill: #232323;
      }

      .cls-4 {
        fill: #E01783;
      }

      .cls-5 {
        fill: #fffcfb;
      }

      .cls-6 {
        fill: #ec0386;
      }

      .cls-7 {
        fill: #fff;
      }

      .cls-8 {
        fill: #ea0585;
      }
    </style>
  </defs>
  <path class="cls-4" d="M1214.75,850.62c-1.54-87.46-2.59-174.94-5.13-262.38-2.54-87.42-6.07-174.83-10.26-262.19-2.42-50.4-6.83-100.71-10.7-151.03-1.68-21.79-5.51-43.15-13.47-63.76-10.66-27.59-28.92-45.41-58.68-51.26-42.87-8.43-86.01-15-129.51-18.37-53.96-4.18-108.01-7.72-162.09-9.82-59.75-2.31-119.58-2.83-179.38-3.84-97.64-1.65-195.27-.72-292.78,4.78-43.2,2.43-86.39,5.98-129.4,10.71-32.69,3.59-65.16,9.42-97.59,15.07-20.41,3.56-37.44,13.18-48.41,31.81-11.84,20.11-18.44,41.9-20.97,64.89-2.57,23.31-4.77,46.68-6.43,70.07-3.14,44.35-6.03,88.71-8.55,133.1-1.68,29.59-2.64,59.22-3.75,88.83-1.47,39.44-2.87,78.89-4.08,118.35-1.1,35.79-2.03,71.58-2.82,107.37-.86,38.63-1.73,77.26-2.13,115.89-.41,40.31-.14,80.63-.51,120.95-.05,5.59,1.93,9.05,6.18,12.01,11.65,8.11,24.49,12.61,38.72,12.64,97.14.2,194.28.4,291.42.49,83.96.08,167.91.02,251.87.02v.03c.07,0,.14-.01.22-.01h565.25c10.32-3.12,19.94-8.26,29.03-14.88,2.97-2.16,4.1-4.75,4.07-8.47-.15-20.33.25-40.66-.1-60.99ZM603.22,92.62c1.89-5.45,6.72-6.19,11.7-6.01.24-6.94,2.22-9.99,7.09-11.19,5.14-1.27,8.45.76,11.77,6.71.67,1.19,2.29,2.14,3.68,2.6,11.55,3.81,13.91,13.55,5.3,22.06-.71.7-1.24,1.86-1.35,2.86-.41,3.69-.78,7.4-4.98,8.8-4.4,1.48-7.26-.99-9.57-4.38-3.51,4.37-7.68,5.48-12.3,3.39-4.22-1.9-5.21-5.16-3.73-12.34-6.43-3.97-9.14-8.04-7.6-12.5ZM1083.38,870.39c-10.45.74-20.95.82-31.44.88-81.93.48-163.86.95-245.78,1.29-99.77.42-199.53.69-299.3,1.06-46.28.17-92.56.39-138.84.64-68.8.38-137.59.8-206.39,1.21-13.01.08-27.2-13.63-27.47-26.92-.25-12.49-.05-24.99-.05-37.48.43,0,.85,0,1.28,0,0-26.47-.37-52.95.09-79.42.71-40.62,1.99-81.24,3.02-121.86.65-25.81,1.26-51.62,1.92-77.42.93-36.13,1.86-72.27,2.87-108.4,1.33-47.95,2.9-95.9,4.06-143.85.85-34.97,1.18-69.95,1.78-104.92.14-7.88.19-16.04,7.05-21.49,2.79-2.21,6.65-4.1,10.12-4.27,29.59-1.39,59.21-2.49,88.82-3.41,25.96-.8,51.92-1.3,77.88-1.86,58.95-1.26,117.9-3.05,176.86-3.56,83.79-.73,167.59-.59,251.39-.64,40.16-.03,80.31.19,120.47.61,34.98.36,69.97.98,104.94,1.83,28.13.69,56.26,1.85,84.38,2.93,10.15.39,17.95,9.48,18.16,20.79.36,19.15.49,38.31,1.1,57.46,1.42,44.77,3.17,89.54,4.59,134.31,1.31,41.29,2.32,82.59,3.56,123.88,1.6,53.1,3.32,106.2,4.97,159.3,1.04,33.47,2.11,66.94,3.08,100.41.97,33.46,1.94,66.93,2.7,100.4.33,14.7-11.19,27.48-25.82,28.51Z"/>
  <path class="cls-4" d="M28.28,936.65c16.57,11.18,33.95,16.17,53.01,15.74,12.99-.29,25.99.05,38.99.13,50.65.32,101.29.77,151.94.94,118.77.41,237.54.69,356.32,1,143.91.37,287.82.74,431.72,1.05,36.47.08,72.93.13,109.4-.2,13-.12,25.26-3.85,36.45-10.67,2.52-1.54,5.09-3,8.09-4.77.21,1.79.52,3.07.48,4.33-1.52,42.78-1.33,85.72-5.17,128.29-2.96,32.85-20.09,58.76-53.13,69.74-11.43,3.8-24.2,4.57-36.41,4.86-55.8,1.34-111.62,2.07-167.43,2.92-65.97,1-131.95,2.12-197.93,2.71-26.8.24-53.62-.91-80.43-1.19-70.3-.73-140.59-1.29-210.89-2.01-39.31-.4-78.62-.87-117.93-1.49-71.62-1.14-143.25-2.23-214.87-3.78-14.22-.31-28.73-1.16-42.51-4.32-20.69-4.74-34.56-19.32-44.51-37.47-8.08-14.72-11.09-30.68-11.47-47.52-.74-32.45-2.47-64.87-3.69-97.31-.25-6.65-.04-13.31-.04-20.98ZM973.08,1053.28c-1.13,15.39,4.78,30.4,15.72,43.17,15.14,17.68,34.4,27.41,58.03,29.31,31.35,2.52,59.67-3.36,83.96-24.67,20.38-17.87,30.87-39.21,24.35-66.46-4.99-20.84-18.62-35.51-37.05-45.53-37.12-20.18-74.4-17.9-110.64,1.85-23.41,12.75-34.9,33.51-34.36,62.34ZM179.92,973.31c-18.71-.42-38.09,2.82-55.78,12.89-25.23,14.36-42.68,44.63-34.96,76.16,5.75,23.51,21.02,39.26,41.7,50.24,18.88,10.02,39.11,13.22,60.4,11.18,20-1.91,38.35-7.27,53.74-21,27.85-24.85,32.52-60.74,13.99-88.79-18.15-27.46-44.23-41.55-79.09-40.68ZM620.71,1054.05c0-.17,0-.33,0-.5,41.64,0,83.29.01,124.93,0,28.31-.01,56.63,0,84.94-.17,4.73-.03,9.77.29,13.42-3.89,13.54-15.51,17.71-36.55,6.89-56.09-4.92-8.89-12.02-15.94-23.05-16.04-49.45-.41-98.91-.57-148.37-.82-71.96-.37-143.91-.89-215.87-1.01-19.63-.03-39.26,1.07-58.89,1.79-7.48.27-13.29,3.45-17,10.31-8.35,15.45-10.05,31.29-2.44,47.38,5.52,11.67,14.35,18.92,28.13,18.55,5.65-.15,11.32.46,16.98.47,63.44.04,126.88.02,190.33.02ZM884.89,1054.63c-.14,13.41,11.51,24.7,25.5,24.71,12.98,0,23.86-11.15,23.92-24.53.06-13.39-11.21-24.51-24.95-24.63-13.3-.11-24.32,10.9-24.47,24.45ZM377.48,1071.79c.02-11.06-8.84-19.75-20.12-19.74-10.36.01-19.24,9.3-19.32,20.21-.09,12.33,8.61,21.96,19.83,21.96,10.69,0,19.57-10.17,19.6-22.43ZM320.43,1070.93c.1-10.66-7.54-18.62-17.87-18.6-10.2.02-18.42,8.36-18.61,18.87-.2,10.99,7.92,19.33,18.94,19.46,9.75.12,17.44-8.53,17.55-19.73Z"/>
  <path class="cls-7" d="M135.39,811.06c0-26.47-.37-52.95.09-79.42.71-40.62,1.99-81.24,3.02-121.86.65-25.81,1.26-51.62,1.92-77.42.93-36.13,1.86-72.27,2.87-108.4,1.34-47.95,2.9-95.9,4.06-143.85.85-34.97,1.18-69.95,1.78-104.92.14-7.88.19-16.04,7.05-21.49,2.79-2.21,6.65-4.1,10.12-4.27,29.59-1.39,59.21-2.49,88.82-3.41,25.95-.8,51.92-1.3,77.88-1.86,58.95-1.26,117.9-3.05,176.86-3.56,83.79-.73,167.59-.59,251.39-.64,40.16-.03,80.31.19,120.47.61,34.98.36,69.97.98,104.94,1.83,28.13.69,56.26,1.85,84.38,2.93,10.15.39,17.95,9.48,18.16,20.79.36,19.15.49,38.31,1.1,57.46,1.42,44.77,3.17,89.54,4.59,134.31,1.31,41.29,2.32,82.59,3.56,123.88,1.6,53.1,3.32,106.2,4.97,159.3,1.04,33.47,2.11,66.94,3.08,100.41.97,33.46,1.94,66.93,2.7,100.4.33,14.7-11.19,27.48-25.82,28.51-10.45.74-20.95.82-31.44.88-81.93.48-163.86.95-245.78,1.29-99.77.42-199.53.69-299.3,1.06-46.28.17-92.56.39-138.84.64-68.8.38-137.59.8-206.39,1.21-13.01.08-27.2-13.63-27.47-26.92-.25-12.49-.05-24.99-.05-37.48.43,0,.85,0,1.28,0ZM767.82,270.13c2.22,0,4.03,0,5.84,0,18.33,0,36.66-.07,54.99.04,3.19.02,5.01-.8,6.55-3.89,7.82-15.62,15.98-31.07,23.99-46.6,2.39-4.63,1.33-6.37-3.86-6.41-6.62-.05-13.25-.01-20.56-.01,0-3.48-.22-6.44.05-9.36.37-4.03-.92-5.52-5.22-5.44-14.33.26-28.66.02-42.99.19-3.44.04-5.48-.73-6.75-4.24-2.3-6.35-7.04-9.15-13.96-8.9-8.49.32-17,.28-25.49.03-4.7-.14-6.29,1.92-6.1,6.26.13,2.94.02,5.88.02,8.68-7.32,0-13.97.17-20.6-.03-39.64-1.17-79.26-2.87-118.91-3.56-78.81-1.38-157.61-.79-236.38,2.35-42.28,1.69-84.56,3.54-126.84,5.35-7.46.32-11.67,4.51-11.93,11.94-.17,4.99.05,10-.08,14.99-1.32,51.13-2.71,102.26-4,153.39-1.75,69.12-3.42,138.25-5.13,207.37-.22,8.89,2.9,12.08,11.8,12.11,5.59.02,11.17,0,17.03,0,0,2.17.03,3.49,0,4.81-1.55,62.13-3.08,124.25-4.68,186.38-.39,15.3,1.04,16.84,16.45,16.81,157.63-.37,315.27-.73,472.9-1.08,21.83-.05,43.66-.05,65.49-.13,7.91-.03,10.9-3.01,11.11-10.78.04-1.5.07-3,.04-4.5-.85-34.31-1.71-68.62-2.54-102.94-.08-3.1-.01-6.19-.01-9.47,2.1-.09,3.57-.21,5.04-.22,11.66-.04,23.33,0,34.99-.11,7.2-.07,10.26-3.22,10.47-10.39.05-1.66.09-3.33.04-5-1.55-59.46-3.16-118.92-4.55-178.39-.08-3.63.97-7.57,2.52-10.9,3.92-8.45,8.45-16.61,12.67-24.91,2.36-4.64,1.31-6.27-4.01-6.33-4.09-.04-8.17,0-12.28,0-.28-1.59-.52-2.39-.55-3.2-.73-22.48-1.53-44.96-2.03-67.44-.06-2.65,1.12-5.52,2.36-7.97,5.44-10.85,11.17-21.57,16.68-32.39,2.09-4.09.95-5.91-3.57-5.97-5.45-.08-10.9-.02-16.74-.02-.55-12.36-1.17-24.14-1.56-35.92-.26-7.77-3.78-11.7-11.58-12.05-17.13-.78-34.26-1.46-51.39-2.17-7.05-.29-7.06-.27-7-7.3,0-.64.11-1.29.24-2.69ZM1006.05,446.26c0-3.69-.21-6.68.05-9.63.34-3.91-1.05-5.22-5.07-5.16-14.64.22-29.3.04-43.94.17-2.86.03-4.57-.65-5.63-3.55-2.63-7.15-7.87-10.03-15.56-9.61-8.3.45-16.64.25-24.96.09-4-.07-5.75,1.38-5.73,5.51.08,25.3.07,50.6,0,75.9,0,2.95.9,4.18,3.97,4.18,30.63-.06,61.26,0,91.88-.16,1.61,0,3.96-1.27,4.69-2.63,8.57-16.13,16.93-32.36,25.25-48.62,2.17-4.25.66-6.44-4.28-6.48-6.63-.05-13.26-.01-20.66-.01ZM1005.73,198.58c-16.51,0-32.14-.1-47.77.07-3.58.04-5.81-.65-7.16-4.38-2.22-6.11-6.79-8.97-13.52-8.75-8.48.28-16.98.28-25.46.01-4.77-.15-6.55,1.66-6.53,6.36.11,24.47.11,48.94-.03,73.41-.02,3.69,1.12,4.91,4.84,4.89,29.96-.12,59.92-.1,89.89-.03,2.99,0,4.68-.81,6.14-3.72,7.81-15.61,15.95-31.05,23.96-46.55,2.55-4.93,1.55-6.58-4-6.62-6.6-.04-13.21,0-20.36,0v-14.68ZM1005.78,330.26c0-3.98-.19-7.14.05-10.26.27-3.55-1.17-4.55-4.61-4.51-14.65.16-29.3-.01-43.94.16-3.32.04-5.15-.86-6.33-4.1-2.39-6.57-7.26-9.34-14.35-9.05-8.48.35-16.98.24-25.46.06-4.06-.09-5.81,1.52-5.8,5.52.03,24.97.04,49.94-.04,74.91,0,2.93.9,4.19,3.99,4.18,30.63-.07,61.26-.01,91.88-.16,1.44,0,3.56-1.22,4.22-2.47,8.47-16.01,16.77-32.12,25.02-48.25,2.17-4.24.96-5.97-4-6.01-6.62-.05-13.24-.01-20.62-.01ZM1005.75,548.55c-2.69,0-4.5,0-6.31,0-13.82,0-27.63-.09-41.45.09-3.56.05-5.83-.59-7.18-4.35-2.29-6.37-7.13-9.05-14-8.79-8.14.32-16.31.06-24.47.1-6.42.03-6.99.61-7,7.25-.02,23.97.07,47.94-.1,71.91-.03,4.08,1.11,5.46,5.32,5.44,29.8-.16,59.59-.12,89.39-.05,2.97,0,4.69-.75,6.16-3.69,7.8-15.61,15.95-31.05,23.96-46.55,2.57-4.98,1.61-6.61-3.95-6.64-6.61-.04-13.21,0-20.37,0v-14.71ZM1005.78,680.26c0-3.91-.18-7.07.05-10.19.25-3.46-1-4.63-4.53-4.58-14.65.18-29.3,0-43.94.16-3.27.04-5.19-.73-6.38-4.03-2.37-6.56-7.2-9.4-14.31-9.11-8.48.34-16.98.27-25.46.05-4.43-.11-5.9,1.84-5.89,5.95.05,24.8.05,49.6-.02,74.41,0,2.86.76,4.26,3.92,4.26,30.63-.07,61.26-.01,91.88-.15,1.46,0,3.61-1.17,4.26-2.41,8.55-16.16,16.94-32.4,25.24-48.69,1.91-3.74.63-5.57-3.62-5.62-6.79-.08-13.58-.02-21.2-.02Z"/>
  <path class="cls-7" d="M626.85,114.06c-3.51,4.37-7.68,5.48-12.3,3.39-4.22-1.9-5.21-5.16-3.73-12.34-6.43-3.97-9.14-8.04-7.6-12.5,1.89-5.45,6.72-6.19,11.7-6.01.24-6.94,2.22-9.99,7.09-11.19,5.14-1.27,8.45.76,11.77,6.71.67,1.19,2.29,2.14,3.68,2.6,11.55,3.81,13.91,13.55,5.3,22.06-.71.7-1.24,1.86-1.35,2.86-.41,3.69-.78,7.4-4.98,8.8-4.4,1.48-7.26-.99-9.57-4.38ZM618.1,99.21c-.04,4.19,3.02,6.95,7.76,7,3.27.04,6.17-3.5,6.27-7.63.08-3.44-3.15-6.18-7.39-6.26-4.1-.08-6.6,2.51-6.64,6.89Z"/>
  <path class="cls-7" d="M820.07,996.63h-256.17c-.46,0-.89-.06-1.28-.15-39.59.03-79.18.08-118.78.16-8.98.02-18.02.39-26.91,1.54-8.88,1.15-15.1,9.89-14.5,18.78.56,8.29,5.45,14.97,12.25,17.2h206.43s.04,0,.06,0c44.94,0,89.89.17,134.83-.08,19.98-.11,39.95-1.18,59.93-1.68,10.69-.26,14.94-3.72,16.94-14.36,1.92-10.23-3.85-19.23-12.81-21.41Z"/>
  <path class="cls-5" d="M893.78,1054.68c.09-8.47,7.15-15.35,15.67-15.28,8.8.07,16.01,7.03,15.97,15.4-.04,8.36-7,15.34-15.31,15.33-8.96,0-16.41-7.06-16.32-15.45Z"/>
  <path class="cls-5" d="M371.37,1072.24c-.02,8.12-6.15,14.85-13.53,14.85-7.75,0-13.76-6.37-13.7-14.54.05-7.22,6.19-13.37,13.34-13.38,7.79,0,13.9,5.75,13.89,13.07Z"/>
  <path class="cls-5" d="M314.18,1071.13c-.07,7.22-5.13,12.78-11.54,12.71-7.25-.08-12.59-5.46-12.46-12.54.13-6.77,5.54-12.14,12.24-12.16,6.79-.01,11.82,5.12,11.76,11.98Z"/>
  <path class="cls-4" d="M852.53,219.12h-86.66c.52,15.09,1.03,29.97,1.56,45.26,20.05,0,39.67.05,59.28-.12,1.29-.01,3.03-1.4,3.76-2.63,3.48-5.83,6.84-11.74,9.94-17.78,4.08-7.95,7.87-16.04,12.12-24.74ZM829.04,204.22c-2.19,0-3.98,0-5.78,0-13.49,0-26.98-.16-40.47.11-4.01.08-5.81-1.33-7.45-4.85-1.27-2.74-3.92-6.6-6.21-6.78-9.54-.76-19.17-.32-28.78-.32v9.2c4.63.24,8.94.41,13.24.71,5.07.36,9.87,1.63,11.26,7.26.87,3.52,2.83,3.77,5.76,3.76,17.82-.09,35.64-.04,53.46-.05,1.6,0,3.2-.16,4.96-.26v-8.78ZM839.76,336.16v23.52c.38.07.76.15,1.14.22,3.76-7.69,7.52-15.38,11.61-23.74h-12.75ZM843.25,469.04c.42.13.84.27,1.26.4,2.56-5.21,5.12-10.42,8.01-16.29h-9.27v15.89Z"/>
  <path class="cls-3" d="M1006.05,446.26c7.4,0,14.03-.04,20.66.01,4.93.04,6.45,2.24,4.28,6.48-8.32,16.26-16.68,32.49-25.25,48.62-.72,1.36-3.08,2.62-4.69,2.63-30.63.16-61.25.09-91.88.16-3.07,0-3.98-1.22-3.97-4.18.08-25.3.09-50.6,0-75.9-.01-4.13,1.73-5.58,5.73-5.51,8.32.15,16.66.36,24.96-.09,7.69-.42,12.92,2.46,15.56,9.61,1.07,2.89,2.77,3.57,5.63,3.55,14.65-.13,29.3.06,43.94-.17,4.02-.06,5.41,1.25,5.07,5.16-.26,2.95-.05,5.94-.05,9.63ZM1022.66,453.22c-1.31-.3-1.78-.51-2.25-.51-28.98-.03-57.96-.12-86.94.1-1.84.01-4.47,2.08-5.34,3.86-4.43,9.11-8.44,18.42-12.52,27.69-1.82,4.13-3.47,8.33-5.43,13.07,29.46,0,57.93.05,86.39-.13,1.71-.01,4.06-1.57,5-3.09,3.65-5.92,7.03-12.02,10.19-18.23,3.74-7.36,7.15-14.89,10.91-22.76ZM911.31,477.9c.33.07.67.14,1,.21.61-1.3,1.25-2.59,1.82-3.92,3.18-7.49,6.45-14.94,9.47-22.49,1.63-4.07,4.12-5.6,8.66-5.54,20.62.25,41.25.11,61.88.08,1.91,0,3.82-.17,5.68-.26v-7.76c-15.64,0-30.92-.13-46.19.09-3.94.06-5.89-1.15-7.39-4.88-1.07-2.67-3.65-6.5-5.78-6.66-9.67-.72-19.42-.31-29.15-.31v51.44Z"/>
  <path class="cls-3" d="M1005.73,198.58v14.68c7.15,0,13.75-.03,20.36,0,5.55.03,6.54,1.69,4,6.62-8.01,15.51-16.15,30.95-23.96,46.55-1.46,2.92-3.15,3.73-6.14,3.72-29.96-.07-59.93-.09-89.89.03-3.72.01-4.86-1.2-4.84-4.89.14-24.47.13-48.94.03-73.41-.02-4.71,1.75-6.51,6.53-6.36,8.48.27,16.98.26,25.46-.01,6.73-.22,11.3,2.64,13.52,8.75,1.35,3.73,3.58,4.42,7.16,4.38,15.63-.17,31.26-.07,47.77-.07ZM1024.05,219.4c-2.34-.39-3.43-.73-4.53-.73-28.63-.03-57.27,0-85.9-.07-3.13,0-4.73,1.26-5.93,4.14-3.78,9.05-7.85,17.97-11.83,26.93-2.07,4.66-4.2,9.28-6.36,14.05,1.09.37,1.54.66,1.99.66,28.47.03,56.94.08,85.4-.08,1.58,0,3.86-1.42,4.63-2.83,7.5-13.65,14.74-27.43,22.53-42.07ZM911.36,245.22c.28.09.56.18.84.27.69-1.4,1.43-2.76,2.05-4.19,3.28-7.64,6.66-15.25,9.74-22.97,1.5-3.75,3.74-5.19,7.89-5.15,20.65.19,41.29.08,61.94.07,1.95,0,3.89,0,6.02,0v-9.03c-15.52,0-30.65-.15-45.78.1-4.15.07-6.19-1.23-7.79-5.07-1.09-2.63-3.71-6.37-5.87-6.53-9.68-.71-19.45-.31-29.05-.31v52.81Z"/>
  <path class="cls-3" d="M1005.78,330.26c7.38,0,14-.04,20.62.01,4.96.04,6.18,1.77,4,6.01-8.25,16.13-16.55,32.23-25.02,48.25-.66,1.25-2.78,2.47-4.22,2.47-30.63.15-61.26.09-91.88.16-3.09,0-4-1.25-3.99-4.18.08-24.97.07-49.94.04-74.91,0-4,1.74-5.6,5.8-5.52,8.49.18,16.99.29,25.46-.06,7.09-.29,11.96,2.48,14.35,9.05,1.18,3.25,3.01,4.14,6.33,4.1,14.65-.18,29.3,0,43.94-.16,3.44-.04,4.88.95,4.61,4.51-.24,3.13-.05,6.29-.05,10.26ZM1023.4,336.36c-1.6-.3-2.69-.68-3.78-.68-28.63-.04-57.27-.01-85.9-.08-3.08,0-4.74,1.13-6,4.04-5.44,12.68-11.16,25.23-16.74,37.85-.49,1.1-.71,2.31-1.19,3.92,29.58,0,58.53.04,87.48-.12,1.44,0,3.41-1.41,4.21-2.72,3.52-5.8,6.86-11.72,9.95-17.75,4.07-7.94,7.86-16.02,11.96-24.46ZM911.49,309.31v52.97c4.84-8.93,8.83-18.01,12.6-27.19,1.46-3.55,3.61-4.93,7.55-4.89,20.81.17,41.63.07,62.44.06,1.93,0,3.85,0,5.84,0v-9.04c-2.09,0-3.88,0-5.67,0-13.32,0-26.65-.17-39.96.11-4.34.09-6.83-1.07-7.99-5.38-.95-3.52-3-6.53-7.14-6.59-9.13-.14-18.27-.04-27.68-.04Z"/>
  <path class="cls-3" d="M1005.75,548.55v14.71c7.15,0,13.76-.03,20.37,0,5.56.03,6.52,1.66,3.95,6.64-8.01,15.51-16.15,30.94-23.96,46.55-1.47,2.94-3.19,3.7-6.16,3.69-29.8-.06-59.59-.11-89.39.05-4.21.02-5.35-1.36-5.32-5.44.17-23.97.08-47.94.1-71.91,0-6.64.58-7.22,7-7.25,8.16-.04,16.32.22,24.47-.1,6.88-.27,11.72,2.42,14,8.79,1.35,3.76,3.62,4.4,7.18,4.35,13.81-.18,27.63-.09,41.45-.09,1.81,0,3.63,0,6.31,0ZM1023.95,569.51c-1.92-.51-2.54-.82-3.16-.82-29.3-.03-58.6-.1-87.9.12-1.68.01-4.09,2.06-4.9,3.76-4.58,9.6-8.78,19.37-13.09,29.09-1.79,4.02-3.55,8.05-5.34,12.12,1.03.37,1.34.57,1.65.57,28.47.04,56.93.11,85.4-.05,1.72,0,4.19-1.51,5.02-3.02,7.5-13.63,14.72-27.43,22.33-41.77ZM1000.06,554.21c-2.26,0-4.06,0-5.85,0-13.49,0-26.98-.17-40.46.12-4.04.09-5.77-1.43-7.41-4.9-1.29-2.73-3.94-6.56-6.24-6.75-9.53-.76-19.15-.32-28.58-.32v52.92c4.83-8.96,8.83-18.06,12.59-27.25,1.47-3.59,3.68-4.87,7.59-4.84,20.81.17,41.63.07,62.44.06,1.92,0,3.84,0,5.92,0v-9.04Z"/>
  <path class="cls-3" d="M1005.78,680.26c7.61,0,14.4-.06,21.2.02,4.25.05,5.53,1.88,3.62,5.62-8.3,16.29-16.69,32.53-25.24,48.69-.66,1.24-2.8,2.4-4.26,2.41-30.63.14-61.26.08-91.88.15-3.16,0-3.93-1.39-3.92-4.26.07-24.8.07-49.6.02-74.41,0-4.12,1.46-6.06,5.89-5.95,8.48.22,16.99.3,25.46-.05,7.11-.29,11.94,2.56,14.31,9.11,1.19,3.3,3.11,4.07,6.38,4.03,14.65-.17,29.3.01,43.94-.16,3.53-.04,4.78,1.13,4.53,4.58-.22,3.13-.05,6.28-.05,10.19ZM1023.4,686.37c-1.58-.3-2.67-.69-3.75-.7-28.63-.04-57.27-.01-85.9-.08-3.07,0-4.75,1.1-6.01,4.02-5.44,12.68-11.16,25.23-16.75,37.85-.49,1.1-.72,2.32-1.21,3.95,29.58,0,58.53.04,87.47-.12,1.44,0,3.42-1.39,4.22-2.7,3.52-5.8,6.86-11.72,9.95-17.76,4.08-7.94,7.86-16.03,11.98-24.47ZM1000.05,671.22c-2.23,0-4.03,0-5.82,0-13.49,0-26.98-.17-40.46.12-4.03.08-5.79-1.38-7.43-4.87-1.28-2.73-3.93-6.58-6.23-6.76-9.53-.76-19.16-.32-28.61-.32v52.91c4.84-8.95,8.83-18.04,12.6-27.22,1.46-3.57,3.65-4.9,7.57-4.87,20.81.17,41.63.07,62.44.06,1.92,0,3.85,0,5.94,0v-9.04Z"/>
  <path id="_window-fill_" data-name="&amp;lt;window-fill&amp;gt;" class="cls-3" d="M517.32,812.5c-90.13,0-180.26,0-270.39,0-9.89,0-12.76-2.98-12.51-12.85,1.61-63.45,3.16-126.9,4.91-190.34.11-4.16-1.2-5.13-4.99-4.85-4.14.3-8.33.1-12.49.08-8.44-.04-11.65-3.37-11.43-11.95.92-35.97,1.89-71.94,2.77-107.91,1.07-43.47,1.95-86.94,3.14-130.4,1.25-45.63,2.58-91.25,3.18-136.89.11-8.05,4.41-12.43,12.17-12.8,52.41-2.49,104.83-4.78,157.28-6.36,82.12-2.48,164.23-2.52,246.35-.49,31.81.79,63.6,1.95,95.4,3.11,2.96.11,3.6-.62,3.54-3.41-.3-14.07-.12-11.59,12.3-11.81,6.5-.11,13.01.26,19.49-.08,6.98-.37,11.62,2.69,13.87,8.96,1.29,3.6,3.35,4.2,6.73,4.17,14.49-.16,28.99.05,43.49-.17,3.79-.06,4.81,1.09,4.76,4.79-.12,10.01.05,10.01,10.13,10,3.67,0,7.33-.05,11,.01,4.44.08,5.6,1.95,3.53,6-5.44,10.65-11,21.24-16.51,31.85-2.68,5.16-5.69,10.19-7.96,15.53-1.32,3.12-3.19,3.66-6.13,3.65-18.83-.08-37.66-.08-56.48.03-2,.01-5.44-1.61-4.88,3.1.4,3.32-.82,6.71,5.04,6.71,17.64-.02,35.27.9,52.88,2.07,8.23.54,11.85,4.3,12.07,12.62.29,10.82.97,21.63,1.31,32.45.08,2.49,1.03,3.08,3.29,3.01,4.49-.13,9-.08,13.5-.03,4.83.05,5.99,1.87,3.79,6.15-5.54,10.79-11.09,21.57-16.8,32.26-1.71,3.2-2.53,6.38-2.4,10.01.75,21.14,1.5,42.29,1.96,63.44.09,4.16,1.33,5.67,5.45,5.17,2.63-.32,5.32-.09,7.99-.05,4.83.07,5.98,1.87,3.8,6.15-4.37,8.59-8.73,17.19-13.32,25.66-1.66,3.06-2.36,6.1-2.26,9.52,1.58,56.29,3.12,112.57,4.64,168.86.14,5.16.15,10.33.05,15.49-.13,7.13-3.31,10.29-10.49,10.36-11,.11-21.99.08-32.99.1-7.24.01-7.28,0-7.08,7.49.81,31.14,1.66,62.28,2.48,93.43.13,4.83.25,9.66.22,14.49-.06,9.74-2.82,12.47-12.5,12.5-23.99.06-47.98.14-71.97.15-66.31.02-132.61,0-198.92,0,0,.35,0,.7,0,1.05Z"/>
  <path id="_right-speaker_" data-name="&amp;lt;right-speaker&amp;gt;" class="cls-5" d="M1119.88,1049.82c-.46,12.19-5.68,21.68-15.25,29.6-15.11,12.5-32.76,14.3-50.87,12.47-15.11-1.53-29.16-7.08-37.56-21.01-6.09-10.09-8.37-20.97-3.87-32.66,5.38-13.97,16.22-21.4,29.64-26.05,13.83-4.79,27.87-3.64,41.96-1.44,8.54,1.33,16.59,4.57,22.73,10.22,8.13,7.48,14.51,16.58,13.22,28.88Z"/>
  <path id="_left-speaker_" data-name="&amp;lt;left-speaker&amp;gt;" class="cls-5" d="M182.25,1090.59c-9.04.67-17.73-.75-26.25-3.61-20.8-6.96-37.45-25.72-30.67-49.8,3.32-11.8,11.64-20.1,23.38-24.8,15.73-6.29,32.11-6.79,48.16-3.56,12.8,2.58,24.27,9.17,31.53,21.08,13.65,22.4-.79,48.68-21.2,55.8-8.17,2.85-16.37,4.68-24.95,4.87Z"/>
  <path id="_window-bkgd_" data-name="&amp;lt;window-bkgd&amp;gt;" class="cls-2" d="M517.3,802.74c-76.14,0-152.28-.03-228.41.03-11.82,0-23.64.39-35.47.6-6.42.12-9.12-2.37-8.99-8.84.26-13.32.73-26.63,1.07-39.95.68-26.64,1.35-53.28,1.99-79.92,1.59-65.94,3.18-131.87,4.71-197.81.19-8.16.08-16.33-.06-24.49-.08-4.5,1.6-6.64,6.37-6.85,73.9-3.29,147.81-5.91,221.79-6.64,62.15-.62,124.29-.42,186.43.92,35.14.76,70.27,2.16,105.4,3.35,8.62.29,9.87,1.54,10.1,9.96,1.12,41.63,2.13,83.26,3.24,124.88,1.24,46.79,2.42,93.58,3.88,140.36.78,24.8,2.1,49.58,3.2,74.37.32,7.27-1.78,9.49-9.85,9.52-38.99.1-77.97.14-116.96.16-49.48.02-98.96,0-148.44,0,0,.11,0,.22,0,.33Z"/>
  <path id="_window-bkgd_-2" data-name="&amp;lt;window-bkgd&amp;gt;" class="cls-6" d="M300.17,365.08c0-13.33.02-26.65,0-39.98-.01-6.25.91-7.24,7.12-7.54,114.84-5.58,229.75-7.96,344.73-6.77,55.98.58,111.93,2.14,167.86,4.35,8.99.35,10.11,1.43,10.35,10.24,1.12,41.46,2.14,82.92,3.25,124.38,1.24,46.79,2.4,93.57,3.86,140.35.77,24.8,2.07,49.58,3.19,74.37.33,7.37-1.57,9.63-9.07,9.77-9.16.17-18.34-.23-27.48.29-5.35.31-6.63-1.66-6.73-6.59-.62-28.65-1.43-57.29-2.3-85.93-1.45-47.62-2.99-95.23-4.51-142.85-.18-5.49-.56-10.98-.67-16.47-.16-8.03-3.83-12.08-11.75-12.48-105.17-5.39-210.41-7.33-315.7-5.35-52.12.98-104.22,2.66-156.29,5.2-7.03.34-6.97.3-6.95-6.53.04-12.82.01-25.65.01-38.47.36,0,.73,0,1.09,0Z"/>
  <path id="_background_" data-name="&amp;lt;background&amp;gt;" class="cls-6" d="M521.33,276.58c-57.57,1.36-123.17,2.94-188.7,6.65-9.48.54-18.97.9-28.46,1.26-8.18.31-12.6,4.64-12.78,12.74-.78,36.31-1.62,72.61-2.21,108.92-.07,4-1.33,5.11-5.08,5.19-9.32.2-18.64.79-27.96,1.14-8.16.31-12.56,4.66-12.74,12.77-1.14,51.29-2.26,102.58-3.41,153.87-.09,4.16-.55,8.32-.5,12.48.03,2.76-.8,4.05-3.68,3.78-1.49-.14-3-.02-4.5,0-9.07.12-11.17-1.98-10.93-10.91,1.16-43.78,2.47-87.56,3.42-131.34,1.43-66.43,4.06-132.84,4.46-199.3.02-3.16.03-6.33-.11-9.49-.2-4.55,1.7-6.61,6.43-6.78,36.96-1.33,73.9-2.86,110.86-4.22,78.26-2.89,156.56-3.13,234.86-2.5,55.98.45,111.92,2.12,167.85,4.34,8.59.34,9.77,1.56,10.09,9.99.36,9.49.34,19,1.08,28.45.4,5.19-1.5,5.91-6.11,5.73-25.96-1.01-51.93-1.88-77.91-2.46-48.64-1.09-97.29-.71-153.97-.31Z"/>
  <path id="_button_" data-name="&amp;lt;button&amp;gt;" class="cls-8" d="M261.93,437.78c-5.21-.02-9.33-3.93-9.43-8.94-.1-4.99,4.09-9.34,9.03-9.4,5.1-.06,9.68,4.36,9.73,9.4.05,5.02-4.06,8.96-9.33,8.94Z"/>
  <path id="_button_-2" data-name="&amp;lt;button&amp;gt;" class="cls-8" d="M309.85,309.8c-5.2-.05-9.3-3.99-9.35-9.02-.06-4.99,4.17-9.32,9.11-9.33,5.12-.01,9.65,4.43,9.65,9.48,0,5.02-4.13,8.92-9.41,8.87Z"/>
  <path id="_button_-3" data-name="&amp;lt;button&amp;gt;" class="cls-8" d="M237.73,229.82c-5.19-.1-9.24-4.12-9.22-9.15.02-5.01,4.28-9.27,9.23-9.2,5.15.07,9.59,4.55,9.52,9.61-.07,5.02-4.24,8.85-9.53,8.75Z"/>
  <path id="_button_-4" data-name="&amp;lt;button&amp;gt;" class="cls-8" d="M295.44,427.76c-.02,5.1-4.1,8.98-9.37,8.92-5.34-.06-9.15-3.84-9.19-9.12-.04-5.33,3.8-9.28,8.99-9.26,5.31.02,9.6,4.25,9.57,9.45Z"/>
  <path id="_button_-5" data-name="&amp;lt;button&amp;gt;" class="cls-1" d="M310.53,417.26c5.31.22,9.47,4.66,9.17,9.79-.29,4.92-4.76,8.73-9.9,8.43-5.12-.29-9-4.51-8.82-9.56.19-5.19,4.26-8.88,9.55-8.65Z"/>
  <path id="_button_-6" data-name="&amp;lt;button&amp;gt;" class="cls-8" d="M343.42,299.62c.06,5.14-3.92,9.07-9.2,9.08-5.35.02-9.24-3.71-9.35-8.96-.12-5.35,3.64-9.36,8.83-9.42,5.33-.06,9.66,4.09,9.72,9.3Z"/>
  <path id="_button_-7" data-name="&amp;lt;button&amp;gt;" class="cls-1" d="M358.35,289.28c5.33.14,9.56,4.49,9.37,9.61-.18,4.89-4.62,8.81-9.75,8.61-5.13-.2-9.09-4.34-9-9.39.1-5.22,4.09-8.97,9.38-8.83Z"/>
  <path id="_button_-8" data-name="&amp;lt;button&amp;gt;" class="cls-8" d="M261.79,210.34c5.32-.02,9.63,4.17,9.65,9.37.02,5.1-4.03,9.02-9.28,9-5.36-.02-9.2-3.76-9.27-9.04-.08-5.34,3.71-9.32,8.91-9.34Z"/>
  <path id="_button_-9" data-name="&amp;lt;button&amp;gt;" class="cls-1" d="M286.36,209.29c5.32.14,9.56,4.49,9.37,9.61-.18,4.89-4.62,8.81-9.75,8.61-5.13-.2-9.09-4.34-9-9.39.1-5.22,4.09-8.97,9.37-8.83Z"/>
  <path class="cls-4" d="M618.1,99.21c.04-4.38,2.54-6.97,6.64-6.89,4.24.08,7.47,2.82,7.39,6.26-.09,4.13-3,7.66-6.27,7.63-4.74-.05-7.8-2.81-7.76-7Z"/>
  <path class="cls-5" d="M820.07,996.63h-256.17c-.46,0-.89-.06-1.28-.15-39.59.03-79.18.08-118.78.16-8.98.02-18.02.39-26.91,1.54-8.88,1.15-15.1,9.89-14.5,18.78.56,8.29,5.45,14.97,12.25,17.2h206.43s.04,0,.06,0c44.94,0,89.89.17,134.83-.08,19.98-.11,39.95-1.18,59.93-1.68,10.69-.26,14.94-3.72,16.94-14.36,1.92-10.23-3.85-19.23-12.81-21.41Z"/>
  <path class="cls-7" d="M852.53,219.12c-4.24,8.7-8.04,16.79-12.12,24.74-3.1,6.04-6.46,11.95-9.94,17.78-.73,1.23-2.47,2.62-3.76,2.63-19.61.17-39.23.12-59.28.12-.53-15.29-1.04-30.17-1.56-45.26h86.66Z"/>
  <path class="cls-7" d="M829.04,204.22v8.78c-1.76.1-3.36.26-4.96.26-17.82.02-35.64-.04-53.46.05-2.93.01-4.89-.23-5.76-3.76-1.4-5.63-6.2-6.9-11.26-7.26-4.3-.3-8.61-.47-13.24-.71v-9.2c9.61,0,19.24-.44,28.78.32,2.29.18,4.94,4.05,6.21,6.78,1.64,3.52,3.44,4.93,7.45,4.85,13.48-.28,26.98-.11,40.47-.11,1.79,0,3.59,0,5.78,0Z"/>
  <path class="cls-7" d="M839.76,336.16h12.75c-4.09,8.36-7.85,16.05-11.61,23.74-.38-.07-.76-.15-1.14-.22v-23.52Z"/>
  <path class="cls-7" d="M843.25,469.04v-15.89h9.27c-2.89,5.88-5.45,11.09-8.01,16.29-.42-.13-.84-.27-1.26-.4Z"/>
  <path class="cls-7" d="M1022.66,453.22c-3.75,7.88-7.16,15.41-10.91,22.76-3.16,6.2-6.53,12.31-10.19,18.23-.94,1.52-3.29,3.08-5,3.09-28.47.19-56.93.13-86.39.13,1.96-4.74,3.61-8.94,5.43-13.07,4.08-9.27,8.09-18.59,12.52-27.69.87-1.79,3.5-3.85,5.34-3.86,28.98-.22,57.96-.13,86.94-.1.47,0,.95.21,2.25.51Z"/>
  <path class="cls-7" d="M911.31,477.9v-51.44c9.72,0,19.48-.4,29.15.31,2.14.16,4.71,3.99,5.78,6.66,1.49,3.72,3.45,4.93,7.39,4.88,15.28-.22,30.56-.09,46.19-.09v7.76c-1.86.09-3.77.25-5.68.26-20.63.02-41.26.16-61.88-.08-4.54-.05-7.03,1.48-8.66,5.54-3.02,7.55-6.29,15.01-9.47,22.49-.56,1.32-1.21,2.61-1.82,3.92-.33-.07-.67-.14-1-.21Z"/>
  <path class="cls-7" d="M1024.05,219.4c-7.79,14.64-15.04,28.43-22.53,42.07-.77,1.41-3.05,2.82-4.63,2.83-28.47.16-56.93.11-85.4.08-.45,0-.9-.29-1.99-.66,2.16-4.77,4.29-9.4,6.36-14.05,3.98-8.96,8.05-17.89,11.83-26.93,1.2-2.88,2.8-4.15,5.93-4.14,28.63.07,57.27.04,85.9.07,1.1,0,2.19.34,4.53.73Z"/>
  <path class="cls-7" d="M911.36,245.22v-52.81c9.6,0,19.36-.4,29.05.31,2.16.16,4.77,3.89,5.87,6.53,1.6,3.84,3.64,5.14,7.79,5.07,15.13-.26,30.26-.1,45.78-.1v9.03c-2.13,0-4.08,0-6.02,0-20.65,0-41.29.12-61.94-.07-4.15-.04-6.39,1.4-7.89,5.15-3.09,7.72-6.46,15.33-9.74,22.97-.61,1.43-1.36,2.8-2.05,4.19-.28-.09-.56-.18-.84-.27Z"/>
  <path class="cls-7" d="M1023.4,336.36c-4.11,8.44-7.89,16.52-11.96,24.46-3.1,6.03-6.44,11.96-9.95,17.75-.8,1.31-2.77,2.72-4.21,2.72-28.95.16-57.9.12-87.48.12.48-1.61.7-2.82,1.19-3.92,5.58-12.62,11.3-25.17,16.74-37.85,1.25-2.91,2.92-4.05,6-4.04,28.63.06,57.27.04,85.9.08,1.09,0,2.17.38,3.78.68Z"/>
  <path class="cls-7" d="M911.49,309.31c9.41,0,18.55-.1,27.68.04,4.13.06,6.19,3.07,7.14,6.59,1.16,4.31,3.65,5.48,7.99,5.38,13.31-.29,26.64-.11,39.96-.11,1.79,0,3.59,0,5.67,0v9.04c-1.99,0-3.92,0-5.84,0-20.81,0-41.63.11-62.44-.06-3.94-.03-6.09,1.34-7.55,4.89-3.77,9.17-7.76,18.26-12.6,27.19v-52.97Z"/>
  <path class="cls-7" d="M1023.95,569.51c-7.61,14.34-14.83,28.13-22.33,41.77-.83,1.51-3.3,3.01-5.02,3.02-28.47.16-56.93.09-85.4.05-.31,0-.62-.21-1.65-.57,1.79-4.07,3.55-8.1,5.34-12.12,4.32-9.72,8.51-19.5,13.09-29.09.81-1.7,3.22-3.75,4.9-3.76,29.3-.22,58.6-.15,87.9-.12.62,0,1.24.31,3.16.82Z"/>
  <path class="cls-7" d="M1000.06,554.21v9.04c-2.08,0-4,0-5.92,0-20.81,0-41.63.11-62.44-.06-3.91-.03-6.12,1.26-7.59,4.84-3.76,9.19-7.76,18.28-12.59,27.25v-52.92c9.43,0,19.05-.44,28.58.32,2.3.18,4.95,4.02,6.24,6.75,1.64,3.47,3.37,4.98,7.41,4.9,13.48-.29,26.97-.11,40.46-.12,1.8,0,3.59,0,5.85,0Z"/>
  <path class="cls-7" d="M1023.4,686.37c-4.11,8.44-7.9,16.53-11.98,24.47-3.1,6.03-6.43,11.96-9.95,17.76-.8,1.31-2.78,2.7-4.22,2.7-28.95.16-57.89.12-87.47.12.49-1.62.72-2.84,1.21-3.95,5.58-12.62,11.3-25.17,16.75-37.85,1.26-2.93,2.94-4.03,6.01-4.02,28.63.06,57.27.04,85.9.08,1.08,0,2.17.39,3.75.7Z"/>
  <path class="cls-7" d="M1000.05,671.22v9.04c-2.09,0-4.02,0-5.94,0-20.81,0-41.63.11-62.44-.06-3.92-.03-6.11,1.3-7.57,4.87-3.76,9.18-7.76,18.27-12.6,27.22v-52.91c9.46,0,19.08-.44,28.61.32,2.3.18,4.95,4.03,6.23,6.76,1.64,3.49,3.4,4.96,7.43,4.87,13.48-.28,26.97-.11,40.46-.12,1.8,0,3.59,0,5.82,0Z"/>
</svg>