<?xml version="1.0" encoding="UTF-8"?>
<svg id="Layer_1" data-name="Layer 1" xmlns="http://www.w3.org/2000/svg" version="1.1" viewBox="0 0 825 661">
  <defs>
    <style>
      .cls-1 {
        fill: #ed1388;
      }

      .cls-1, .cls-2, .cls-3, .cls-4, .cls-5, .cls-6, .cls-7, .cls-8 {
        stroke-width: 0px;
      }

      .cls-2 {
        fill: #232323;
      }

      .cls-3 {
        fill: #fffbf8;
      }

      .cls-4 {
        fill: #232323;
      }

      .cls-5 {
        fill: #232323;
      }

      .cls-6 {
        fill: #ed1588;
      }

      .cls-7 {
        fill: #ed1488;
      }

      .cls-8 {
        fill: #fffcfb;
      }
    </style>
  </defs>
  <path class="cls-4" d="M28.94,337.54c.87,1.68,1.72,3.37,2.62,5.04,5.84,10.91,10.52,22.66,17.76,32.54,17.85,24.39,43.71,34.54,72.99,34.84,65.37.67,130.75.18,196.12.35,115.58.31,231.16.79,346.73,1.15,15.01.05,30.03-.34,45.04-.19,23.09.23,41.16-10.31,56.55-26.22,15.13-15.64,22.6-35.13,26.69-56.12.28-1.43.35-2.97.97-4.25.56-1.15,1.72-2.78,2.65-2.8,1.3-.03,3.34.92,3.81,1.99,1.43,3.31,2.89,6.81,3.23,10.34,2.41,24.72,5.92,49.44,6.41,74.21.66,33.06-.11,66.22-2.22,99.22-1.2,18.81-4.98,37.73-10,55.94-5.62,20.4-17.14,37.94-34.26,51.12-10.92,8.41-23.35,12.57-37.26,12.59-194.19.26-388.38.61-582.57.84-15.74.02-31.56.19-47.21-1.19-23.82-2.1-39.81-16.48-52.48-35.71-13.29-20.17-18.64-42.79-21.49-66.17-5.03-41.3-5.52-82.8-3.47-124.3.93-18.95,2.83-37.86,4.55-56.77.21-2.31,2.02-4.48,3.1-6.71.58.08,1.17.16,1.75.24ZM355.05,544.03c-14.93.97-26.4,13.02-25.66,27.57.69,13.47,12.81,23.97,26.94,21.48,6.82-1.2,13.15-5.81,19.41-9.39,7.61-4.34,13.27-4.08,19.67,1.74,11.17,10.17,25.19,10.67,36.86,1.31,7.54-6.04,16.12-6.26,24.21-1.14,3.81,2.42,7.96,4.48,12.21,6.01,9.26,3.32,17.74,1.38,24.81-5.38,6.93-6.64,9-14.84,6.25-24.08-4.83-16.25-23.53-22.82-38.1-13.76-10.48,6.52-20.86,9.63-32.18.4-8.23-6.72-19.6-6.23-28.15,0-10.54,7.69-20.59,9.78-31.83,1.01-3.93-3.06-9.58-3.93-14.44-5.8ZM222.88,513.34c.11-13.92-9.99-25.32-22.55-25.44-13.5-.13-24.35,10.83-24.59,24.83-.22,13.03,10.33,24.02,23.26,24.22,12.73.2,23.77-10.72,23.88-23.61ZM107.65,480.45c13.81-.06,25.05-10.75,25-23.79-.05-12.72-11.4-23.59-24.65-23.61-14.11-.01-25.02,10.4-24.86,23.71.16,13.05,11.22,23.74,24.5,23.69ZM353.99,432.95c-13.61-.08-23.81,9.62-24.16,22.96-.33,12.78,10.97,24.69,23.48,24.75,13.68.06,25.03-10.2,25.25-22.83.24-13.26-11.16-24.8-24.57-24.88ZM114.63,511.29c.44,14.31,11.09,24.76,24.73,24.28,12.41-.44,22.21-11.18,21.89-23.99-.33-13.26-11.79-24.8-24.42-24.59-12.57.21-22.61,11.2-22.2,24.3ZM538.86,482.58c12.71,0,22.48-10.81,22.36-24.71-.12-13.57-10.51-24.48-23.51-24.69-12.23-.2-22.42,10.74-22.5,24.14-.07,13.39,11.05,25.27,23.65,25.27ZM638.07,456.29c.11,13.91,10.71,25.06,23.8,25.04,13.09-.02,24.03-11.19,23.83-24.34-.22-13.93-11.47-25.07-25.28-25.04-12.31.03-22.45,11.07-22.35,24.33ZM206.22,457.42c0,12.55,11.1,23.63,23.87,23.86,12.7.23,24.38-11.19,24.53-23.97.15-12.82-10.56-23.56-23.7-23.76-13.65-.21-24.72,10.48-24.71,23.87ZM622.81,456.53c.17-12.76-11.06-24.04-24.09-24.19-11.81-.14-23.04,11.4-23.19,23.84-.17,14.1,10.16,25.15,23.41,25.03,12.52-.11,23.71-11.67,23.88-24.68ZM231.31,545.85c-13.52-.15-23.9,9.8-24.01,23.01-.11,13.58,10.39,24.35,23.98,24.59,13.35.24,23.39-9.47,23.52-22.73.13-14.06-9.94-24.73-23.49-24.88ZM192.04,569.17c-.02-12.92-11.1-24.09-23.73-23.94-12.38.15-22.95,10.59-22.98,22.7-.04,13.82,10.93,25.63,23.57,25.39,12.19-.23,23.16-11.68,23.13-24.15ZM131.56,570.32c0-13.05-11.2-24.04-24.26-23.82-12.08.21-22.8,11.18-22.92,23.48-.13,12.87,10.71,23.97,23.42,24,12.88.02,23.77-10.81,23.76-23.66ZM514.9,568.31c-.28,14.04,11.32,25.83,25.5,25.95,12.32.1,22.89-10.56,22.97-23.15.09-14.12-11.14-26.16-24.6-26.41-13.69-.25-23.59,9.54-23.87,23.61ZM453.46,457.74c.03,12.99,10.41,23.76,22.88,23.75,13.45-.02,23.76-10.53,23.67-24.15-.08-13.42-9.83-23.49-22.9-23.65-13.4-.17-23.69,10.29-23.65,24.06ZM391.91,457.92c.05,12.48,9.48,22.44,21.28,22.47,13.45.04,24.57-10.92,24.56-24.2,0-13.15-10.2-23.22-23.35-23.08-12.38.13-22.55,11.35-22.5,24.81ZM661.82,544.79c-13.14-.09-23.47,10.29-23.53,23.64-.06,13.62,10.29,24.91,22.97,25.06,13.17.15,24.03-10.22,24.27-23.17.26-14.3-10.08-25.42-23.71-25.52ZM569.5,487.92c-13.18-.09-23.92,10.81-24.16,24.53-.21,12.26,10.37,23.45,22.42,23.72,12.87.29,24.41-11.55,24.47-25.09.05-12.74-10.09-23.07-22.74-23.16ZM699.7,457.35c.03,13.34,9.82,23.07,23.18,23.06,13.17-.01,24.3-10.98,24.24-23.89-.06-12.3-10.87-23.3-22.97-23.34-13.65-.05-24.48,10.66-24.45,24.17ZM445.31,535.59c13.13.36,24.47-9.85,24.95-22.48.49-12.98-9.94-24.78-22.26-25.17-14.05-.45-24.85,9.47-25.2,23.14-.36,13.65,9.28,24.15,22.52,24.51ZM298.17,512.67c.06,13.6,11.18,24.8,24.34,24.53,12.85-.26,24.26-11.69,24.32-24.36.07-13.91-10.38-24.79-23.85-24.81-13.71-.02-24.88,11.07-24.81,24.63ZM531.93,512.65c.12-13.85-10.52-24.62-24.49-24.78-13.2-.15-24.1,10.31-24.14,23.17-.05,13.65,10.96,24.78,24.62,24.88,13.34.11,23.9-10.13,24.02-23.27ZM268.87,456.67c-.05,13.22,11.28,24.44,24.5,24.27,12.13-.16,22.12-11.03,22.13-24.07,0-13.08-10.97-23.86-24.29-23.83-12.22.03-22.29,10.68-22.34,23.63ZM384.42,535.55c13.1-.03,23.87-10.71,23.83-23.63-.04-13.35-10.8-24.04-24.11-23.96-13.01.08-23.99,10.58-23.53,23.87.49,14.42,11.4,23.86,23.82,23.72ZM315.37,568.69c-.06-12.95-10.39-22.93-23.69-22.87-12.26.05-22.9,10.67-22.76,22.74.15,13.18,10.4,23.84,22.94,23.86,13.25.02,23.57-10.4,23.5-23.72ZM54.45,512.57c-.05,13.08,8.69,22.84,20.53,22.93,12.46.1,22.62-10.63,22.65-23.9.03-12.53-8.81-22.18-20.54-22.43-12.06-.25-22.59,10.63-22.63,23.4ZM623.28,567.89c-.3-13.12-10.8-23.92-23.13-23.8-13.34.13-23.84,12.01-23.45,26.5.34,12.4,10.76,22.25,23.29,22.02,13.1-.24,23.6-11.39,23.29-24.72ZM667.72,512.39c-.09,14.11,9.96,24.86,23.41,25.05,13.79.2,25.36-11.68,25.39-26.07.03-13.34-10.62-24.39-23.58-24.48-13.87-.09-25.14,11.3-25.22,25.49ZM145.67,456.08c.03,13.76,10.82,24.49,24.67,24.54,12,.04,22.45-10.22,22.6-22.19.17-13.82-10.59-24.55-24.63-24.57-13.1-.02-22.67,9.37-22.64,22.22ZM238,511.21c.1,13.77,10.82,24.81,23.99,24.73,12.67-.08,23.22-10.44,23.29-22.87.08-13.81-10.92-24.69-24.76-24.5-12.56.17-22.61,10.28-22.52,22.64ZM654.01,512.17c-.13-13.29-10.61-23.7-23.7-23.54-12.58.15-22.9,10.95-22.74,23.83.15,12.78,10.52,23.03,23.11,22.84,13.44-.2,23.46-10.14,23.34-23.13ZM723.08,545.07c-12.15-.02-23.16,11.38-23.03,23.85.14,12.69,10.88,24.02,23.01,24.25,11.96.23,22.98-10.98,22.94-23.35-.04-13.3-10.62-24.73-22.92-24.75ZM730.63,511.63c-.03,13.25,9.69,23.7,22.02,23.69,13.58-.02,24.44-10.97,24.57-24.81.13-13.54-9.59-23.93-22.41-23.93-13.57,0-24.16,10.96-24.19,25.06Z"/>
  <path class="cls-4" d="M787.77,130.24c-2.79-24.04-9.09-46.96-23.77-66.91-12.27-16.68-27.65-28.49-49-29.48-21.39-1-42.84-1.17-64.26-1.14-179.73.25-359.46.64-539.19.93-10.34.02-19.9,2.51-28.83,7.57-18.83,10.67-30.57,27.6-37.46,47.13-5.6,15.87-9.41,32.78-11.1,49.53-5.49,54.35-5.54,108.82.74,163.16,2.8,24.24,9.14,47.33,23.96,67.41,12.05,16.33,27.19,27.7,48.03,29.26,12.03.9,24.15.91,36.23.92,89.41.07,178.82.04,268.23.04,0,.02,0,.05,0,.07.27-.04.54-.06.84-.06h158.89c46.97-.27,93.94-.53,140.91-.78,9.76-.05,18.83-2.48,27.3-7.14,19.16-10.53,31.05-27.61,38.08-47.29,5.66-15.84,9.49-32.77,11.19-49.51,5.53-54.53,5.57-109.19-.75-163.71ZM751.56,293.47c-3.31,23.37-11.98,44.47-29.99,60.72-11.19,10.1-24.38,15.17-39.56,15.17-90.86-.03-181.71-.02-272.57-.02,0,.17,0,.34,0,.51-81.15,0-162.3.02-243.46-.02-10.62,0-21.25-.12-31.86-.59-16.85-.74-30.51-8.27-41.67-20.59-15.64-17.27-22.67-38.26-25.26-60.83-5.53-48.15-5.73-96.35.66-144.45,2.78-20.89,9.95-40.09,24.24-56.06,12.19-13.62,27.17-21.13,45.85-21.15,172.37-.15,344.74-.42,517.12-.6,10.61-.01,21.25.2,31.84.81,16.24.93,29.3,8.53,40.11,20.28,15.51,16.87,22.66,37.53,25.28,59.66,5.82,49.04,6.19,98.17-.75,147.16Z"/>
  <path class="cls-3" d="M411.77,367.93c-81.53,0-163.06.02-244.6-.02-9.34,0-18.68-.42-28.02-.43-18.18-.02-33-7.33-45.03-20.6-14.67-16.2-21.73-35.78-24.81-57.05-5.1-35.33-4.95-70.84-3.72-106.39.68-19.62,2.32-39.12,7.1-58.24,4.27-17.11,12.5-32.05,25.11-44.34,11.49-11.19,25.33-16.67,41.62-16.92,109.92-1.68,219.85-.65,329.78-.86,62.11-.12,124.23.14,186.34.32,10.98.03,21.98.2,32.94.8,16.25.9,29.33,8.54,40.08,20.35,14.3,15.72,21.31,34.77,24.55,55.42,5.68,36.21,5.08,72.66,3.98,109.11-.59,19.42-2.29,38.75-7.27,57.64-4.73,17.96-13.37,33.64-27.35,46.07-10.82,9.61-23.55,14.43-38.1,14.68-82.62,1.43-165.25.85-247.88.99-8.25.01-16.49,0-24.74,0,0-.18,0-.35,0-.53Z"/>
  <path class="cls-2" d="M411.64,336.91c-95.81,0-191.63,0-287.44,0-11.62,0-17.7-6.23-17.62-18.08.37-58.07.85-116.13,1.02-174.2.04-12.6,6.95-20,19.67-19.88,55.99.54,111.98,0,167.97.41,76.83.56,153.65.27,230.48.21,58.18-.05,116.37-.31,174.55-.43,10.36-.02,16.51,6.68,16.59,18.25.16,21.8.08,43.61.23,65.41.25,36.81.62,73.62.92,110.44.09,11.68-6.09,17.86-17.82,17.87-87.59.01-175.18.02-262.76.03-8.59,0-17.19,0-25.78,0,0,0,0-.02,0-.02Z"/>
  <path class="cls-5" d="M154.42,106.23c-4.72-.18-6.93-2.72-6.85-6.62.07-3.67,2.38-6.08,6.31-6.05,4.02.03,6.6,1.98,6.62,6.26.02,4.28-2.58,6.07-6.08,6.42Z"/>
  <path class="cls-5" d="M170.92,106.23c-4.72-.18-6.93-2.72-6.86-6.62.07-3.67,2.38-6.08,6.31-6.05,4.02.03,6.6,1.98,6.62,6.26.02,4.28-2.58,6.07-6.08,6.42Z"/>
  <path class="cls-5" d="M648.75,93.49c4.2.33,6.71,2.25,6.59,6.52-.12,4.24-2.69,6.17-6.73,6.15-4.02-.02-6.13-2.59-6.2-6.2-.07-3.98,2.35-6.29,6.34-6.46Z"/>
  <path class="cls-5" d="M665.12,106.22c-4.24-.3-6.4-2.9-6.2-6.8.18-3.66,2.55-5.99,6.49-5.87,4.06.13,6.53,2.19,6.43,6.45-.1,4.26-2.73,6.03-6.72,6.22Z"/>
  <path class="cls-5" d="M144.12,99.94c-.43,4.15-2.71,6.28-6.81,6.21-4.29-.07-6.39-2.82-6.22-6.7.15-3.66,2.51-5.99,6.46-5.91,4.11.09,6.32,2.27,6.58,6.39Z"/>
  <path class="cls-5" d="M121.32,106.21c-4.48-.06-6.73-2.56-6.74-6.47,0-3.68,2.27-6.14,6.19-6.18,3.99-.04,6.67,1.83,6.75,6.13.08,4.24-2.39,6.18-6.19,6.52Z"/>
  <path class="cls-5" d="M698.32,93.48c4.44.48,6.77,2.6,6.5,6.82-.27,4.26-3.03,6.03-7,5.86-3.99-.17-6-2.86-5.92-6.48.09-4.01,2.69-6.12,6.42-6.2Z"/>
  <path class="cls-5" d="M688.45,99.85c-.4,4.2-2.67,6.34-6.77,6.3-4.3-.04-6.41-2.78-6.27-6.66.13-3.66,2.47-6,6.42-5.95,4.11.06,6.32,2.24,6.62,6.3Z"/>
  <path class="cls-3" d="M412.88,133.41c94.59,0,189.19.01,283.78-.02,10.31,0,12.57,2.11,12.53,12.41-.22,56.97.24,113.93.93,170.89.12,9.67-2.67,12.38-12.96,12.39-51.85.07-103.71.09-155.56.08-34.26,0-68.52-.12-102.77-.12-103.1,0-206.2.05-309.29.08-2.01,0-4.05.05-6.04-.19-6.67-.79-9.1-3.79-9.04-11.23.28-33.69.67-67.39.87-101.08.14-24.19.04-48.37.06-72.56,0-7.88,2.63-10.62,10.42-10.6,54.91.15,109.83.42,164.74.51,32.92.06,65.85-.12,98.77-.19,7.86-.02,15.71,0,23.57,0,0-.13,0-.25,0-.38Z"/>
  <path class="cls-7" d="M556.51,210.9c0-.07-.01-.14-.01-.21v-2.6c-.04-1.06-.09-2.13-.17-3.18-.16-2.12-1.4-3.3-3.5-3.46-2.16-.15-3.88,1.14-3.91,2.99-.06,3.14-1.79,4.71-3.87,6.56-2.24,2-2.46,4.76-.9,7.47,1.56,2.71,3.94,3.56,6.94,3.13,3.1-.44,4.98-2.14,5.31-5.26.19-1.8.03-3.63.03-5.45.03,0,.06,0,.09,0Z"/>
  <path class="cls-6" d="M401.08,192.19c3.94.45,6.83,1.87,6.92,6.32.09,4.26-2.08,6.48-6.23,6.68-4.2.2-6.68-2.11-6.9-6.12-.22-4.11,2.42-6.23,6.21-6.88Z"/>
  <path class="cls-6" d="M441.02,182.17c0,4.14-2.17,6.37-6.32,6.53-4.2.16-6.67-2.17-6.85-6.18-.18-4.09,2.41-6.62,6.4-6.69,3.85-.07,6.64,1.85,6.77,6.35Z"/>
  <path class="cls-6" d="M434.06,254.75c-3.96-.33-6.34-2.67-6.21-6.7.13-4.05,2.81-6.42,6.84-6.24,3.94.18,6.45,2.34,6.3,6.69-.15,4.37-2.74,6.05-6.94,6.24Z"/>
  <path class="cls-6" d="M408.02,248.58c-.25,4.28-2.78,6.19-6.82,6.1-4.2-.1-6.49-2.68-6.34-6.68.16-4.05,2.85-6.4,6.89-6.18,3.93.21,6.45,2.38,6.27,6.77Z"/>
  <path class="cls-6" d="M401.05,172.28c-3.94-.33-6.32-2.67-6.19-6.7.13-4.05,2.81-6.42,6.84-6.24,3.94.18,6.45,2.34,6.3,6.7-.15,4.37-2.74,6.05-6.96,6.24Z"/>
  <path class="cls-6" d="M457.52,248.19c0,4.11-2.18,6.33-6.34,6.48-4.21.16-6.66-2.19-6.83-6.19-.17-4.09,2.42-6.62,6.41-6.68,3.86-.06,6.64,1.87,6.76,6.39Z"/>
  <path class="cls-6" d="M417.93,172.27c-3.99-.09-6.47-2.31-6.58-6.34-.11-4.08,2.49-6.59,6.5-6.6,3.86-.01,6.63,1.92,6.66,6.34.03,4.3-2.31,6.28-6.57,6.59Z"/>
  <path class="cls-6" d="M556.47,232.62c-.1,3.45-2.44,5.53-6.55,5.57-4.22.04-6.59-2.42-6.61-6.42-.02-4.07,2.61-6.52,6.63-6.45,3.9.06,6.55,2.11,6.53,7.3Z"/>
  <path class="cls-6" d="M549.49,273.55c4.18.5,6.95,2.08,6.96,6.5.02,4.29-2.29,6.4-6.41,6.52-4.21.12-6.62-2.29-6.75-6.29-.13-4.12,2.62-6.13,6.19-6.72Z"/>
  <path class="cls-6" d="M499.73,238.25c-3.94-.55-6.24-3.01-5.88-7.02.36-3.98,3.04-6.24,7.15-5.88,4.06.36,6.25,2.72,5.96,6.99-.3,4.42-3.13,5.81-7.23,5.91Z"/>
  <path class="cls-6" d="M523.42,281.91c-.16,2.79-2.66,4.73-6.71,4.65-4.2-.08-6.5-2.63-6.38-6.64.12-4.07,2.84-6.39,6.85-6.23,3.95.17,6.44,2.35,6.24,8.21Z"/>
  <path class="cls-6" d="M500.13,273.57c3.98.47,6.8,1.98,6.85,6.42.05,4.28-2.21,6.43-6.34,6.58-4.21.15-6.65-2.22-6.81-6.22-.17-4.11,2.51-6.2,6.3-6.77Z"/>
  <path class="cls-6" d="M408.02,281.04c-.1,3.42-2.45,5.49-6.56,5.53-4.22.04-6.58-2.43-6.6-6.43-.02-4.07,2.62-6.51,6.64-6.44,3.91.07,6.54,2.12,6.51,7.35Z"/>
  <path class="cls-6" d="M473.93,233.64c-.15,2.67-2.65,4.62-6.7,4.54-4.2-.08-6.51-2.63-6.39-6.64.12-4.05,2.81-6.42,6.84-6.23,3.94.18,6.45,2.35,6.24,8.33Z"/>
  <path class="cls-6" d="M433.75,238.25c-3.94-.55-6.24-3.01-5.88-7.02.36-3.98,3.04-6.24,7.15-5.88,4.06.36,6.25,2.72,5.96,6.99-.3,4.42-3.13,5.81-7.23,5.91Z"/>
  <path class="cls-6" d="M408.02,232.53c-.09,3.51-2.42,5.6-6.53,5.66-4.22.06-6.59-2.4-6.63-6.4-.04-4.07,2.6-6.53,6.61-6.48,3.9.05,6.56,2.08,6.55,7.22Z"/>
  <path class="cls-6" d="M507,248.03c.02,4.21-2.13,6.47-6.29,6.64-4.2.18-6.68-2.14-6.88-6.15-.2-4.09,2.38-6.63,6.36-6.72,3.85-.09,6.65,1.82,6.8,6.23Z"/>
  <path class="cls-6" d="M500.27,208.71c4.27.56,6.82,2.39,6.7,6.76-.12,4.34-2.65,6.26-6.69,6.23-4.21-.03-6.52-2.57-6.45-6.57.06-4.09,2.82-6.06,6.45-6.41Z"/>
  <path class="cls-6" d="M473.95,216.93c-.14,2.83-2.6,4.81-6.67,4.76-4.21-.05-6.53-2.58-6.44-6.59.09-4.06,2.76-6.44,6.79-6.29,3.93.15,6.48,2.29,6.31,8.11Z"/>
  <path class="cls-6" d="M441,216.24c-.08,3.32-2.42,5.4-6.53,5.45-4.22.05-6.59-2.41-6.62-6.41-.03-4.07,2.61-6.52,6.62-6.47,3.9.05,6.56,2.09,6.53,7.42Z"/>
  <path class="cls-6" d="M401.16,208.69c3.99.47,6.8,1.99,6.84,6.42.04,4.28-2.22,6.43-6.35,6.57-4.21.15-6.64-2.22-6.8-6.23-.16-4.11,2.51-6.19,6.3-6.77Z"/>
  <path class="cls-6" d="M384.62,286.64c-4-.33-6.38-2.67-6.25-6.7.13-4.06,2.82-6.41,6.84-6.23,3.93.18,6.45,2.32,6.3,6.69-.15,4.39-2.78,6.02-6.9,6.24Z"/>
  <path class="cls-6" d="M500.41,205.26c-3.99-.08-6.48-2.3-6.59-6.33-.11-4.08,2.49-6.59,6.48-6.61,3.85-.02,6.63,1.9,6.66,6.33.03,4.31-2.29,6.28-6.56,6.6Z"/>
  <path class="cls-6" d="M474,199.65c-.1,3.44-2.45,5.51-6.55,5.55-4.22.04-6.58-2.43-6.6-6.43-.02-4.07,2.62-6.51,6.64-6.45,3.91.06,6.54,2.12,6.52,7.32Z"/>
  <path class="cls-6" d="M434.46,205.26c-4-.07-6.5-2.29-6.62-6.31-.12-4.08,2.47-6.6,6.47-6.62,3.85-.02,6.63,1.88,6.67,6.32.04,4.31-2.28,6.28-6.52,6.62Z"/>
  <path class="cls-6" d="M368.29,273.58c4.25.55,6.83,2.35,6.72,6.72-.1,4.33-2.58,6.26-6.66,6.25-4.23,0-6.52-2.53-6.49-6.52.04-4.1,2.79-6.08,6.42-6.45Z"/>
  <path class="cls-6" d="M352.18,286.63c-4.2-.08-6.69-2.29-6.81-6.32-.12-4.08,2.47-6.6,6.47-6.62,3.85-.02,6.64,1.89,6.68,6.32.04,4.3-2.29,6.28-6.34,6.62Z"/>
  <path class="cls-6" d="M556.48,248.03c.02,4.22-2.12,6.47-6.29,6.65-4.19.18-6.67-2.12-6.87-6.15-.2-4.11,2.37-6.64,6.35-6.73,3.85-.09,6.65,1.82,6.8,6.22Z"/>
  <path class="cls-6" d="M341.99,281.81c-.14,2.83-2.6,4.81-6.67,4.76-4.21-.05-6.53-2.58-6.44-6.59.09-4.06,2.77-6.44,6.79-6.29,3.93.15,6.48,2.29,6.31,8.11Z"/>
  <path class="cls-6" d="M318.57,286.63c-3.94-.33-6.32-2.67-6.19-6.7.13-4.05,2.81-6.42,6.84-6.24,3.94.18,6.45,2.34,6.3,6.7-.15,4.37-2.74,6.05-6.96,6.24Z"/>
  <path class="cls-6" d="M309.06,279.39c.02,4.75-2.14,7-6.3,7.17-4.2.17-6.68-2.15-6.87-6.16-.2-4.09,2.38-6.62,6.37-6.72,3.88-.1,6.59,1.89,6.79,5.71Z"/>
  <path class="cls-6" d="M285.58,286.63c-3.94-.33-6.32-2.67-6.19-6.7.13-4.05,2.81-6.42,6.84-6.24,3.94.18,6.45,2.34,6.3,6.7-.15,4.37-2.74,6.05-6.96,6.24Z"/>
  <path class="cls-6" d="M269.33,273.58c4.25.55,6.83,2.35,6.72,6.72-.1,4.34-2.6,6.27-6.66,6.27-4.21,0-6.53-2.53-6.49-6.54.04-4.1,2.79-6.08,6.43-6.45Z"/>
  <path class="cls-6" d="M252.59,273.55c4.38.54,7.02,2.27,6.96,6.66-.06,4.32-2.49,6.32-6.57,6.36-4.22.04-6.55-2.45-6.59-6.45-.04-4.14,2.81-6.01,6.19-6.56Z"/>
  <path class="cls-6" d="M243.01,281.99c-.16,2.7-2.65,4.65-6.7,4.58-4.2-.08-6.51-2.63-6.39-6.64.12-4.06,2.81-6.41,6.84-6.23,3.94.18,6.45,2.35,6.25,8.29Z"/>
  <path class="cls-6" d="M226.58,280.9c-.11,3.51-2.39,5.6-6.54,5.64-4.23.04-6.6-2.39-6.62-6.39-.03-4.07,2.61-6.52,6.62-6.46,3.9.05,6.55,2.1,6.54,7.21Z"/>
  <path class="cls-6" d="M506.91,184.45c-.11,2.33-2.57,4.3-6.64,4.25-4.21-.05-6.52-2.58-6.44-6.59.09-4.06,2.76-6.44,6.79-6.29,3.93.15,6.48,2.29,6.29,8.62Z"/>
  <path class="cls-6" d="M467.26,175.72c4.25.55,6.83,2.35,6.73,6.72-.1,4.34-2.6,6.28-6.66,6.27-4.21,0-6.53-2.53-6.49-6.53.04-4.1,2.79-6.08,6.42-6.45Z"/>
  <path class="cls-6" d="M473.95,249.92c-.14,2.83-2.6,4.81-6.67,4.76-4.21-.05-6.53-2.58-6.44-6.59.09-4.06,2.76-6.44,6.79-6.29,3.93.15,6.48,2.29,6.31,8.11Z"/>
  <path class="cls-6" d="M401.21,188.77c-3.92-.2-6.36-2.48-6.35-6.51,0-4.07,2.64-6.51,6.66-6.43,3.9.08,6.55,2.12,6.49,6.51-.05,4.34-2.51,6.18-6.8,6.43Z"/>
  <path class="cls-6" d="M400.69,271.23c-3.87-.54-6.17-3-5.81-7.01.35-3.98,3.04-6.25,7.14-5.88,4.05.36,6.22,2.69,5.93,6.98-.3,4.44-3.09,5.83-7.26,5.91Z"/>
  <path class="cls-6" d="M500.32,258.19c4.37.59,6.81,2.53,6.65,6.86-.17,4.37-2.79,6.2-6.8,6.12-4.2-.09-6.48-2.68-6.34-6.68.14-4.08,2.91-6.03,6.49-6.3Z"/>
  <path class="cls-6" d="M153.74,273.57c3.99.47,6.79,1.99,6.84,6.42.04,4.28-2.22,6.43-6.35,6.57-4.21.15-6.64-2.23-6.8-6.23-.16-4.11,2.52-6.19,6.31-6.76Z"/>
  <path class="cls-6" d="M203.19,286.64c-4.01-.33-6.4-2.67-6.26-6.7.13-4.05,2.81-6.42,6.84-6.24,3.94.18,6.44,2.34,6.3,6.69-.14,4.39-2.78,6.02-6.88,6.25Z"/>
  <path class="cls-6" d="M506.91,167.81c-.16,2.59-2.69,4.5-6.73,4.4-4.2-.1-6.49-2.68-6.34-6.68.15-4.05,2.85-6.39,6.89-6.19,3.95.21,6.42,2.4,6.18,8.46Z"/>
  <path class="cls-6" d="M483.69,172.28c-3.93-.2-6.37-2.49-6.36-6.51,0-4.07,2.64-6.51,6.66-6.42,3.9.08,6.54,2.12,6.49,6.51-.05,4.34-2.52,6.17-6.79,6.43Z"/>
  <path class="cls-6" d="M545.88,171.4c-1.88-.1-3.05-1.19-3.05-3.12,0-1.95,1.27-3.12,3.19-3.08,1.87.04,3.13,1.02,3.11,3.12-.03,2.08-1.21,2.96-3.25,3.08Z"/>
  <path class="cls-6" d="M467.06,159.2c4.45.57,7.03,2.38,6.92,6.75-.1,4.34-2.6,6.27-6.66,6.27-4.21,0-6.52-2.53-6.49-6.54.03-4.13,2.88-5.98,6.23-6.47Z"/>
  <path class="cls-6" d="M441.02,165.64c0,4.17-2.17,6.4-6.32,6.56-4.2.16-6.67-2.17-6.85-6.18-.18-4.09,2.41-6.62,6.4-6.69,3.85-.07,6.64,1.85,6.77,6.31Z"/>
  <path class="cls-6" d="M193.57,281.22c-.21,3.51-2.72,5.43-6.77,5.35-4.2-.09-6.51-2.65-6.36-6.65.15-4.02,2.72-6.35,6.86-6.15,4.06.19,6.39,2.36,6.27,7.45Z"/>
  <path class="cls-1" d="M177.1,280.32c-.08,4.04-2.37,6.16-6.49,6.24-4.21.09-6.62-2.34-6.69-6.33-.07-4.05,2.44-6.47,6.55-6.46,4,.01,6.54,1.99,6.62,6.54Z"/>
  <path class="cls-7" d="M556.41,264.78c-.09,4.24-2.36,6.37-6.5,6.4-4.21.03-6.57-2.43-6.6-6.42-.03-4.06,2.61-6.52,6.62-6.45,3.86.07,6.6,2.02,6.48,6.48Z"/>
  <path class="cls-1" d="M540,280.18c-.12,4.24-2.43,6.32-6.53,6.39-4.2.07-6.6-2.37-6.65-6.35-.05-4.04,2.43-6.37,6.6-6.36,4.12,0,6.46,2.03,6.58,6.32Z"/>
  <path class="cls-8" d="M549.65,211.54c2.26.06,3.42.94,3.45,2.96.03,1.99-1.23,3.12-2.98,3.23-1.83.12-3.17-1.14-3.22-2.97-.05-1.83,1.29-2.84,2.74-3.22Z"/>
  <path class="cls-8" d="M495.63,568.72c-.16,7.51-3.16,13.53-9.9,17.1-7.28,3.85-14.5,2.56-21.42-1.3-1.75-.98-3.46-2.04-5.11-3.18-10.79-7.46-21-5.28-30.89,1.86-9.6,6.94-18.65,6.54-28.01-.49-10.65-7.99-16.51-12.09-34.61,1.19-6.06,4.45-12.68,5.68-19.68,2.9-10.33-4.1-14.3-15.99-8.94-26.08,5.48-10.32,18.61-14.05,28.21-7.94,2.6,1.66,4.84,3.95,7.56,5.34,9.26,4.74,18.62,4.1,26.7-2.11,10.77-8.27,21.08-7.68,31.72-.43,8.5,5.79,17.04,5.44,25.77.61,3.19-1.76,6.49-3.32,9.71-5.03,13.48-7.18,29.14,2.33,28.9,17.57Z"/>
  <path class="cls-8" d="M183.23,512.82c0-10.01,6.85-17.22,16.47-17.36,8.94-.13,16.29,7.02,16.17,15.72-.14,10-7.91,18.2-17.38,18.35-8.3.13-15.26-7.49-15.26-16.71Z"/>
  <path class="cls-8" d="M125.05,456.83c-.09,9.34-7.88,16.86-17.37,16.76-9.66-.09-17.88-7.74-17.77-16.54.11-8.83,8.95-17.21,18.1-17.16,9.68.06,17.13,7.46,17.04,16.93Z"/>
  <path class="cls-8" d="M355.7,473.6c-10.72,0-19.55-7.91-19.49-17.44.05-8.71,8.12-16.24,17.39-16.24,9.79,0,17.95,7.69,17.98,16.95.04,9.62-6.72,16.73-15.88,16.72Z"/>
  <path class="cls-8" d="M137.95,528.8c-9.39-.08-17.51-8.72-17.23-18.34.27-9.13,7.84-16.86,16.33-16.67,9.28.21,17.42,9,17.19,18.57-.23,9.43-7.24,16.51-16.28,16.44Z"/>
  <path class="cls-8" d="M554.83,458.62c-.12,9.47-7.4,17.23-16.17,17.22-9.42,0-16.8-7.9-16.71-17.88.09-9.9,7.97-18.39,16.76-18.05,8.91.34,16.23,8.85,16.11,18.7Z"/>
  <path class="cls-8" d="M679.44,456.86c-.08,10.04-7.89,17.91-17.61,17.76-9.5-.14-17.94-8.96-17.81-18.6.13-9.66,8.22-17.34,18.18-17.28,9.73.06,17.32,8.04,17.24,18.12Z"/>
  <path class="cls-8" d="M212.87,457.59c-.02-9.5,8.36-17.69,17.9-17.49,9.77.21,17.9,7.88,18.03,17.03.14,9.21-8.36,17.36-18.35,17.17-9.41-.18-18.4-6.49-17.59-16.71Z"/>
  <path class="cls-8" d="M599.5,439.7c9.32.08,16.67,7.72,16.73,17.38.06,9.72-7.98,17.62-17.92,17.61-9.34,0-17.11-8.2-16.95-17.87.16-9.95,7.85-17.21,18.14-17.12Z"/>
  <path class="cls-8" d="M230.71,586.76c-9.56-.11-17.44-8.1-17.33-17.57.11-9.22,8.07-16.83,17.55-16.76,10.18.07,18.35,7.87,18.17,17.33-.18,9.68-8.23,17.11-18.39,16.99Z"/>
  <path class="cls-8" d="M185.32,568.98c.12,9.88-7.07,17.17-17.16,17.41-8.82.21-16.8-6.93-16.97-15.19-.22-10.56,7.8-19.36,17.47-19.19,8.94.16,16.56,7.91,16.67,16.96Z"/>
  <path class="cls-8" d="M124.84,570.34c-.02,9.26-7.46,16.79-16.64,16.84-10.05.05-18.14-7.51-17.95-16.78.2-9.54,8.68-17.56,18.3-17.32,9.05.23,16.32,7.92,16.29,17.26Z"/>
  <path class="cls-8" d="M540.12,587.85c-10.2.03-19.12-9.24-19.17-19.93-.05-9.3,7.66-17.12,16.99-17.22,10.55-.11,19.75,8.89,19.78,19.36.03,10.04-7.6,17.76-17.59,17.8Z"/>
  <path class="cls-8" d="M475.72,474.94c-9.81-.09-16.6-7.21-16.45-17.27.15-9.99,8.46-18.08,18.37-17.86,8.9.19,16.2,8.13,16.08,17.46-.13,9.62-8.41,17.75-18,17.66Z"/>
  <path class="cls-8" d="M397.53,457.26c-.7-10.42,9.75-16.87,18.98-16.69,8.62.17,15.29,7.28,15.09,16.1-.21,9.32-8.47,17.13-17.93,16.95-9.42-.18-16.31-7.15-16.15-16.35Z"/>
  <path class="cls-8" d="M661.74,586.83c-10.32-.11-17.8-7.8-17.71-18.18.09-10.18,8.09-18.12,18.08-17.94,9.23.16,17.42,8.59,17.24,17.74-.21,10.65-7.72,18.49-17.61,18.39Z"/>
  <path class="cls-8" d="M585.73,511.34c.02,10.32-7.64,18.27-17.67,18.34-9.75.07-16.46-6.65-16.45-16.48,0-10.51,7.87-18.62,18.09-18.68,9.63-.05,16,6.63,16.03,16.82Z"/>
  <path class="cls-8" d="M740.7,456.51c-.06,9.92-7.78,17.74-17.65,17.9-8.95.14-17.21-7.96-17.36-17.05-.16-9.57,8.47-17.72,18.61-17.59,9.54.13,16.46,7.19,16.39,16.73Z"/>
  <path class="cls-8" d="M445.94,529.67c-9.66-.06-17.72-7.52-17.71-16.39.02-10.16,8.32-18.52,18.33-18.45,10.25.07,17.87,7.7,17.62,17.64-.25,9.79-8.17,17.26-18.24,17.2Z"/>
  <path class="cls-8" d="M322.5,530.76c-10.57-.08-18.64-7.81-18.74-17.96-.11-10.34,8.51-18.87,18.82-18.63,10.29.24,18.79,8.5,18.82,18.26.03,10.45-8.17,18.4-18.89,18.33Z"/>
  <path class="cls-8" d="M508.03,529.71c-10.27-.1-18.87-8.31-18.92-18.06-.05-10.05,8.8-18.24,19.44-17.97,9.87.24,18.03,8.67,17.85,18.45-.18,10.15-8.05,17.69-18.37,17.59Z"/>
  <path class="cls-8" d="M291.37,439.74c10.38.03,17.65,7.76,17.77,18.92.09,8.2-8.06,15.89-17,16.02-10.25.15-17.74-7.83-17.66-18.79.08-9.64,6.91-16.18,16.89-16.15Z"/>
  <path class="cls-8" d="M366.8,512.56c-1.21-8.52,7.76-18.42,17.79-18.39,9.91.03,18.26,7.82,18.32,17.31.06,10.05-8.32,18.19-18.72,18.16-10.12-.03-17.41-7.2-17.39-17.09Z"/>
  <path class="cls-8" d="M291.01,585.71c-9.64-.01-16.53-6.62-16.55-15.85-.01-10.21,7.78-18.14,17.83-18.16,9.67-.02,16.43,6.78,16.45,16.55.02,10.12-7.45,17.48-17.73,17.47Z"/>
  <path class="cls-8" d="M90.73,511.81c.05,9.33-6.88,17.16-15.37,17.36-8.39.2-15.21-7.01-15.11-15.97.1-9.43,7.35-17.52,15.84-17.68,8.39-.16,14.58,6.74,14.63,16.29Z"/>
  <path class="cls-8" d="M599.87,550.68c9.89.03,17.44,7.48,17.48,17.24.04,10.4-7.97,18.68-18.14,18.74-9.58.06-17.82-8.3-17.67-17.92.16-9.98,8.4-18.1,18.33-18.07Z"/>
  <path class="cls-8" d="M690.68,531.93c-10.56-.08-18.23-8.16-18.17-19.14.06-10.74,9.22-20.06,19.81-20.17,10.39-.1,18.69,8.74,18.51,19.73-.18,11-9.1,19.66-20.15,19.58Z"/>
  <path class="cls-8" d="M169.94,474.8c-10.68.04-18.53-7.5-18.64-17.88-.1-9.89,7.23-17.27,17.13-17.24,9.73.03,18.8,9.01,18.66,18.48-.14,9.62-7.34,16.6-17.16,16.63Z"/>
  <path class="cls-8" d="M261.66,529.86c-10.55-.03-19.1-8.12-18.98-17.97.12-9.75,7.64-17.04,17.64-17.1,10.19-.05,19.68,8.95,19.44,18.44-.25,9.64-7.88,16.65-18.1,16.63Z"/>
  <path class="cls-8" d="M631.21,529.67c-9.8.02-18.56-8.01-18.71-17.15-.16-9.51,8.6-17.64,18.77-17.42,9.59.21,17.81,8.25,17.79,17.4-.02,9.23-8.25,17.15-17.85,17.17Z"/>
  <path class="cls-8" d="M740.41,568.51c.09,10.43-7.81,19.17-17.22,19.06-9.33-.11-17.35-8.63-17.34-18.41,0-10.25,7.58-18.36,17.13-18.35,9.22.01,17.36,8.28,17.43,17.71Z"/>
  <path class="cls-8" d="M752.89,529.91c-9.71-.1-17.58-8.17-17.54-17.99.05-10.63,9.72-20.39,19.9-20.08,9.56.29,17.34,8.72,17.11,18.54-.26,11.07-8.8,19.63-19.47,19.52Z"/>
  <path class="cls-6" d="M550.55,165.73c-1.88-.1-3.05-1.19-3.05-3.12,0-1.95,1.27-3.12,3.19-3.08,1.87.04,3.13,1.02,3.11,3.12-.03,2.08-1.21,2.96-3.25,3.08Z"/>
  <path class="cls-6" d="M555.32,171.4c-1.88-.1-3.05-1.19-3.05-3.12,0-1.95,1.27-3.12,3.19-3.08,1.87.04,3.13,1.02,3.11,3.12-.03,2.08-1.21,2.96-3.25,3.08Z"/>
  <path class="cls-6" d="M550.73,177.26c-1.88-.1-3.05-1.19-3.05-3.12,0-1.95,1.27-3.12,3.19-3.08,1.87.04,3.13,1.02,3.11,3.12-.03,2.08-1.21,2.96-3.25,3.08Z"/>
</svg>