<?xml version="1.0" encoding="UTF-8"?>
<svg id="Layer_1" data-name="Layer 1" xmlns="http://www.w3.org/2000/svg" version="1.1" viewBox="0 0 2271 971">
  <defs>
    <style>
      .cls-1 {
        fill: #000;
      }

      .cls-1, .cls-2 {
        stroke-width: 0px;
      }

      .cls-2 {
        fill: #fff;
      }
    </style>
  </defs>
  <path class="cls-1" d="M649.13,445.52c0-94.44.12-188.87-.07-283.31-.06-31.33,8.25-59.75,27.76-84.42,22-27.82,50.75-45.21,85.36-52.32,40.98-8.42,78.97-.88,112.93,23.98,24.28,17.77,39.82,41.68,46.41,71.03,9.32,41.54,18.24,83.17,27.15,124.8,6.28,29.33,10.61,59.19,18.75,87.98,10.51,37.14,36.54,60.2,74.47,67.46,41.83,8,84.2-12.87,105.42-50.56,14.88-26.43,38.02-39.5,67.2-43.19,27.33-3.47,52.23,3.25,73.91,20.14,22.73,17.71,34.36,40.91,33.76,70.33-.56,27.3.22,54.63.25,81.95.12,109.8.19,219.59.24,329.39.03,67.53-46.06,118.18-105.2,133.85-43,11.39-83.32,4.61-119.66-21.78-16.57-12.04-28.46-28.24-38.45-45.9-20.03-35.44-39.97-70.92-60.06-106.31-5.56-9.79-11.13-19.62-17.36-28.99-9.8-14.72-24.51-23.24-40.57-29.3-39.59-14.94-81.67-1.95-105.57,33.01-6.21,9.08-10.01,19.77-15.23,29.56-18.68,35.09-47.95,52.11-87.71,51-37.92-1.06-73.99-27.8-83.44-67.8-1.59-6.74-2.5-13.81-2.51-20.73-.06-44.49.29-88.97.36-133.46.08-52.14.02-104.27.02-156.41.61,0,1.22,0,1.83,0Z"/>
  <path class="cls-1" d="M1925.77,479.77c0,72.82.06,145.65-.02,218.47-.04,33.81.42,67.65-.8,101.43-.79,21.99-7.94,42.74-19.63,61.54-22.73,36.53-55.53,58.63-97.92,65.33-29.36,4.64-57.48-.47-83.77-14.94-69.22-38.1-138.5-76.07-207.76-114.1-35.07-19.26-70.42-38.02-105.08-57.97-23.69-13.64-40.5-34.25-52.16-58.9-8.79-18.58-13.11-38.2-13-58.85.41-78.29.95-156.58.86-234.87-.04-34.37,12.74-63.28,33.94-89.38,12.84-15.81,29.82-26.3,46.18-37.74,52.59-36.77,105.01-73.78,157.53-110.65,40-28.08,80.32-55.71,119.96-84.28,17.39-12.53,35.46-22.86,56.65-26.67,31.57-5.68,62.03-1.7,90.55,13.15,37.56,19.57,62.94,49.36,73.27,91,1.43,5.76,2.52,11.79,2.53,17.7.11,52.32-.11,104.64-.15,156.96-.05,54.26-.01,108.51-.01,162.77-.39,0-.78,0-1.17,0ZM1647.74,580.96c37.86-.03,68.65-30.84,68.69-68.72.03-37.28-31.36-68.71-68.85-68.08-38.73.65-67.47,30.61-68.04,66.86-.62,39.21,29.9,69.97,68.2,69.94Z"/>
  <path class="cls-1" d="M614.27,501.92c.6,32.14,1.16,64.28,1.8,96.42.97,48.46,1.86,96.92,3.06,145.37.36,14.49,1.1,28.92-3.03,43.05-10.17,34.78-33.14,56.61-67.96,65.46-49.64,12.62-102.12-17.94-115.73-66.87-5.59-20.09-10.63-40.34-16.41-60.37-9.24-32.01-29.15-53.42-62.23-61.52-34.64-8.48-69.32,5.05-87.51,34.46-6.92,11.18-9.12,23.76-10.29,36.56-2.83,30.94-15.23,56.47-42.71,72.58-37.21,21.81-83.94,9.27-107.21-27.4-8.41-13.25-10.68-28.03-13.78-42.7-7.04-33.35-13.78-66.77-20.61-100.17-8.21-40.17-16.36-80.35-24.58-120.52-6.4-31.28-12.86-62.55-19.28-93.83-3.96-19.28-8.96-38.43-11.64-57.89-7.62-55.27,11.43-99.54,58.2-130.35,16.42-10.82,34.78-18.71,52.33-27.8,63.25-32.77,126.52-65.51,189.81-98.21,30.37-15.7,60.63-31.61,91.25-46.83,19.6-9.74,40.62-14.09,62.63-13.63,61.58,1.29,117.94,43.8,132.6,106.97,3.38,14.58,4.03,29.98,4.45,45.05,1.76,63.26,2.97,126.53,4.35,189.79.82,37.46,1.57,74.93,2.35,112.39.05,0,.09,0,.14,0ZM322.61,482.95c37.45-.53,67.48-28.99,68.24-67.18.76-37.79-29.91-68.21-68.19-68.55-36.47-.32-67.84,30.77-67.47,67.82.37,38.25,30.17,67.14,67.42,67.9Z"/>
  <path class="cls-1" d="M1962.09,473.25c0-54.61-.04-109.22.02-163.82.03-30.78-.47-61.58.55-92.32.78-23.65,9.89-45.01,23.63-64.09,25.51-35.41,60.46-55.58,103.36-62.14,39.61-6.05,76.42,1.76,109.63,24.22,30.01,20.3,48.61,48.59,55.58,84.26,2.35,11.99,1.74,24.06.57,36.18-1.41,14.72-2.19,29.51-3.35,44.26-1.54,19.7-3.21,39.38-4.77,59.08-1.11,13.91-2.12,27.83-3.21,41.74-1.23,15.56-2.53,31.12-3.77,46.69-1.09,13.75-2.12,27.5-3.22,41.25-1.26,15.73-2.6,31.46-3.84,47.19-1.1,13.92-2.04,27.85-3.17,41.76-1.54,19.04-3.22,38.08-4.76,57.12-1.13,13.91-2.12,27.84-3.19,41.76-1.29,16.73-3.12,33.44-3.77,50.2-.59,15.39-2.87,30.48-7.42,45.01-14.6,46.67-44.27,79.14-92.1,92.42-53.18,14.76-110.72-11.08-136.87-59.74-12.53-23.32-17.15-47.89-17.1-74.26.14-63.93-.95-127.86-1.48-191.8-.12-14.99-.02-29.99-.02-44.99-.43,0-.87,0-1.3,0Z"/>
  <path class="cls-2" d="M1647.74,580.96c-38.31.03-68.83-30.73-68.2-69.94.58-36.24,29.31-66.21,68.04-66.86,37.49-.62,68.88,30.81,68.85,68.08-.03,37.88-30.83,68.69-68.69,68.72Z"/>
  <path class="cls-2" d="M322.61,482.95c-37.24-.76-67.04-29.65-67.42-67.9-.36-37.05,31-68.14,67.47-67.82,38.28.33,68.94,30.76,68.19,68.55-.77,38.18-30.79,66.65-68.24,67.18Z"/>
</svg>