<svg width="806" height="1159" viewBox="0 0 806 1159" fill="none" xmlns="http://www.w3.org/2000/svg">
<g clip-path="url(#clip0_697_7)">
<path d="M261.168 1030.35C246.163 1012.68 233.419 994.087 225.012 972.788C223.594 969.192 222.238 965.558 221.041 961.888C219.318 956.603 219.904 951.599 222.507 946.547C231.72 928.661 245.601 915.167 261.852 903.851C269.403 898.59 269.599 897.367 262.915 891.286C253.238 882.49 244.049 873.278 236.925 862.206C234.702 858.756 231.855 857.558 227.602 858.194C216.569 859.845 205.584 862.023 194.367 862.329C186.363 862.549 178.519 861.375 170.809 859.515C159.506 856.787 151.27 849.887 145.344 839.99C133.137 819.608 127.688 797.245 125.94 773.805C125.22 764.201 128.458 755.955 134.396 748.358C139.968 741.238 139.589 739.831 131.598 735.366C106.744 721.456 87.4018 702.273 74.6452 676.631C72.067 671.456 70.6252 665.963 69.892 660.286C69.0001 653.301 71.1506 647.086 76.1726 640.932C69.8309 639.513 64.5035 638.583 59.3226 637.128C42.8881 632.491 27.8099 625.261 14.5523 614.238C7.31869 608.219 2.45554 601.197 1.28252 591.752C-1.90663 566.159 0.549379 541.361 11.4365 517.713C13.7214 512.758 17.2405 508.941 22.0303 506.25C42.9859 494.493 64.9067 485.685 89.0514 483.054C94.5988 482.455 99.5475 482.92 104.252 485.868C104.936 486.296 105.633 486.773 106.39 487.03C110.826 488.56 115.591 493.881 119.574 490.578C123.546 487.287 120.527 480.962 120.002 476.008C119.623 472.399 117.546 470.918 113.587 471.64C104.789 473.243 95.9429 474.613 87.0719 475.763C71.2484 477.818 58.5651 471.114 51.3559 456.923C41.5196 437.557 37.4262 416.6 34.8847 395.289C31.9888 371.041 32.1843 347.014 38.978 323.207C42.6804 310.239 50.5372 301.381 62.133 295.558C87.2186 282.969 113.355 273.06 141.373 270.136C158.7 268.325 176.319 267.799 193.463 273.17C197.006 274.271 199.987 278.81 203.763 276.62C206.72 274.907 208.357 271.017 210.801 268.301C215.713 262.857 220.906 257.67 225.757 252.177C234.799 241.961 247.079 240.077 259.543 238.976C273.937 237.716 288.392 237.264 302.859 237.508C312.365 237.667 321.359 239.869 330.12 243.442C335.3 245.558 338.893 248.971 341.349 254.036C344.269 260.068 347.128 266.209 352.089 270.992C355.144 273.941 358.7 275.654 362.524 273.072C375.11 264.594 389.479 258.673 399.487 246.464C403.103 242.047 404.386 238.022 402.517 232.529C398.607 221.029 392.949 210.435 385.985 200.623C381.525 194.335 374.169 191.472 367.656 187.741C365.933 186.75 364.516 187.753 363.318 188.977C361.608 190.726 359.812 192.414 358.309 194.323C344.538 211.842 327.407 222.754 304.411 223.525C289.992 224.002 275.647 226.082 261.156 225.911C252.541 225.813 245.137 223.146 239.113 217.066C234.103 212.001 229.399 206.63 224.45 201.504C220.955 197.883 221.432 195.191 225.281 191.937C243.927 176.156 264.699 163.836 286.571 153.205C291.874 150.623 297.446 148.556 302.639 145.779C313.648 139.882 323.717 141.57 333.468 148.666C340.713 153.939 348.326 158.722 355.364 164.252C360.239 168.081 363.538 167.347 367.864 163.249C391.092 141.24 413.465 118.387 436.278 95.9625C439.992 92.3168 443.866 88.8179 447.813 85.1233C445.467 83.3861 443.389 84.1323 441.459 84.1446C419.061 84.2914 396.701 83.7898 374.401 81.4898C367.192 80.7436 360.704 77.7096 354.35 74.4921C341.789 68.1304 330.205 60.1173 318.255 52.7525C314.113 50.2078 314.1 47.8222 318.585 45.8526C325.66 42.7452 332.967 40.1883 340.249 37.5947C343.133 36.5671 345.344 38.5612 347.361 40.2372C352.981 44.9228 358.541 49.694 364.064 54.5142C379.374 67.898 396.493 75.7522 417.497 73.8926C430.657 72.7304 443.927 72.816 457.148 72.4735C460.032 72.4001 462.158 71.3602 464.113 69.3538C480.327 52.728 496.786 36.3346 512.757 19.4641C521.786 9.9217 531.916 3.58455 545.308 2.27553C572.947 -0.403688 600.538 -1.32123 628.067 2.91169C638.416 4.50209 641.3 9.37117 639.296 19.7455C636.4 34.7565 629.961 48.3238 622.642 61.5486C620.149 66.0629 615.995 68.5464 611.388 70.5038C597.471 76.4372 582.563 77.2814 567.864 79.1654C553.104 81.0494 538.294 81.5877 523.411 81.6244C506.72 81.6611 490.041 82.4196 473.363 82.7255C470.503 82.7744 468.341 83.7042 466.349 85.7105C437.158 115.023 407.93 144.286 378.727 173.586C377.749 174.565 377.004 175.776 375.623 177.575C382.087 182.199 388.282 186.689 394.538 191.081C404.032 197.761 413.538 204.416 423.094 211.01C431.268 216.637 436.278 225.042 440.933 233.227C450.403 249.865 465.799 259.786 480.352 270.821C483.932 273.537 486.4 271.775 488.502 268.815C492.29 263.505 496.579 258.453 499.633 252.752C507.515 237.998 520.894 232.37 536.095 228.994C564.993 222.571 594.172 219.39 623.802 219.011C635.582 218.864 644.685 222.938 653.043 230.278C672.324 247.234 687.146 267.457 696.933 291.227C698.595 295.264 701.051 297.393 704.985 297.32C717.522 297.075 725.745 304.538 733.346 312.942C747.055 328.088 759.018 344.604 769.44 362.159C773.717 369.353 776.295 377.476 776.527 385.954C777.065 404.904 776.747 423.818 774.181 442.695C773.045 451.087 770.088 458.171 765.372 465.058C753.372 482.589 740.506 499.35 725.354 514.287C718.976 520.576 719.44 523.328 727.432 527.451C756.611 542.499 781.562 562.721 802.481 588.07C806.586 593.049 806.733 597.514 804.57 603.215C796.615 624.209 782.93 641.483 768.683 658.231C746.75 684.02 722.129 706.738 690.738 720.82C686.095 722.899 681.317 724.649 676.588 726.545C673.876 727.634 671.09 728.038 668.219 727.365C665.506 726.729 663.368 724.343 660.435 724.526C658.749 726.398 659.592 728.16 660.191 729.836C667.204 749.484 668.463 769.988 669.465 790.565C670.528 812.366 667.62 833.604 660.887 854.34C659.824 857.631 658.236 860.751 657.234 864.054C651.54 882.772 637.011 888.179 619.599 888.962C611.474 889.329 603.311 889.5 595.198 888.534C593.145 888.289 591.141 888.35 589.321 890.014C596.029 912.793 585.191 933.065 579.338 953.887C574.609 970.696 567.754 986.894 559.995 1002.69C553.385 1016.16 544.233 1024.82 528.262 1023.6C527.664 1023.55 527.04 1023.66 526.43 1023.69C514.406 1024.59 512.683 1027.07 514.443 1039.13C515.848 1048.79 516.605 1058.54 517.607 1068.25C519.123 1082.89 513.575 1095.41 505.718 1107.17C494.709 1123.64 481.537 1138.4 468.842 1153.54C465.371 1157.68 461.095 1159.4 455.914 1158.93C432.539 1156.79 409.641 1152.41 387.39 1144.69C374.597 1140.25 367.632 1131.08 364.308 1118.44C359.274 1099.29 357.307 1080.04 362.439 1060.57C359.555 1058.98 357.429 1060.73 355.278 1061.52C345.161 1065.28 335.044 1069 324.609 1071.77C317.534 1073.66 311.217 1072.47 304.753 1068.82C287.585 1059.11 274.157 1045.3 261.095 1030.36M264.601 356.556C264.601 356.556 264.552 356.519 265.396 356.96C276.405 358.599 287.121 361.437 297.348 365.67C299.291 362.575 298.509 359.896 298.228 357.364C296.969 345.949 299.438 335.624 306.329 326.29C315.579 313.774 326.209 302.58 337.94 292.426C341.263 289.551 342.033 286.248 340.713 282.639C338.147 275.592 336.229 268.301 332.258 261.744C329.154 256.618 325.159 253.498 319.269 252.776C295.967 249.926 272.605 250.978 250.537 258.44C230.266 265.291 218.56 282.676 208.981 301.1C208.137 302.727 208.076 304.513 208.541 306.434C211.962 320.454 215.31 334.499 218.573 348.567C219.623 353.094 222.421 355.137 226.869 354.99C239.504 354.587 252.065 355.944 264.601 356.544M160.044 323.659C152.187 314.79 141.874 313.725 130.987 314.484C127.908 314.704 124.621 316.466 121.994 313.273C124.218 310.239 124.218 310.214 125.806 309.811C136.302 307.131 146.896 305.614 157.795 306.165C163.941 306.471 168.133 309.187 171.065 314.41C173.326 318.423 174.071 322.815 174.694 327.268C176.209 337.948 177.712 348.616 179.191 359.297C179.753 363.334 181.72 364.068 185.044 361.927C190.078 358.685 195.466 356.678 201.503 355.932C208.968 355.002 210.594 352.531 208.382 345.093C203.898 329.984 197.519 315.719 188.563 302.641C179.423 289.294 166.642 283.655 150.843 284.523C132.307 285.539 114.1 288.475 96.2606 293.821C83.4307 297.662 71.6638 303.363 60.8622 311.254C53.6042 316.564 48.6921 323.28 47.7024 332.333C47.067 338.193 46.1628 344.004 46.0406 349.95C45.4785 376.669 49.1198 402.776 57.392 428.161C60.8011 438.633 65.2733 448.702 72.8857 457.021C76.3925 460.862 80.4859 463.076 85.8011 462.599C96.2606 461.682 106.341 459.064 115.518 454.072C125.33 448.738 131.977 440.652 134.983 429.458C137.145 421.408 140.762 413.786 145.589 406.874C146.884 405.014 148.643 403.082 151.148 404.244C153.91 405.516 152.81 408.024 152.15 410.141C150.94 414.031 149.499 417.848 148.411 421.763C140.505 450.402 139.332 479.091 148.032 507.828C149.218 511.755 152.639 516.392 148.509 519.585C144.477 522.692 140.457 518.471 136.999 516.404C129.313 511.816 122.079 506.507 114.039 502.482C106.415 498.665 99.0221 498.542 91.2142 502.237C79.5573 507.742 68.8046 514.679 58.1618 521.836C48.5088 528.32 43.7801 537.593 42.6071 548.958C42.3016 551.894 42.2772 554.99 40.0778 556.996C38.3304 556.996 37.6584 556.25 37.2307 555.295C32.612 545.007 38.6604 524.026 48.1056 517.615C54.4717 513.297 60.8622 509.027 67.2405 504.733C58.6628 505.283 51.1604 508.538 43.328 510.617C33.7605 513.162 28.0176 519.45 25.2317 528.687C21.6515 540.59 18.5479 552.69 17.1061 564.985C14.1002 590.541 11.2165 587.054 32.4165 605.907C46.7127 618.618 63.7092 627.279 83.8583 626.864C86.3021 626.815 88.8192 627.071 90.762 625.151C100.672 615.388 112.927 608.598 123.13 599.178C134.054 589.085 145.699 579.849 158.003 571.444C163.966 567.37 169.794 563.125 176.136 558.635C173.949 556.727 172.409 555.442 170.931 554.084C163.697 547.441 157.417 539.979 151.808 531.929C150.721 530.375 149.731 528.601 151.05 526.876C152.456 525.029 154.398 525.885 156.06 526.693C161.913 529.543 167.864 532.222 173.546 535.391C198.79 549.46 225.11 556.396 254.35 551.013C288.221 544.774 317.461 530.057 342.326 506.482C346.285 502.726 349.206 497.931 348.033 491.753C343.438 467.493 337.512 443.612 327.847 420.821C322.434 408.049 316.532 395.546 306.855 385.232C300.525 378.491 292.632 376.143 284.054 377.929C253.824 384.266 225.024 394.799 197.739 409.333C190.286 413.297 185.435 419.304 182.783 427.708C178.531 441.178 177.993 454.892 177.859 468.765C177.822 472.668 178.323 476.888 174.987 480.351C170.699 477.574 170.027 472.949 169.697 469.047C168.023 449.644 168.707 430.351 175.354 411.731C177.138 406.727 180.889 403.351 185.386 400.623C203.812 389.465 223.533 381.464 244.269 375.824C247.556 374.931 250.843 374.051 254.13 373.158C254.02 372.631 253.91 372.105 253.8 371.579C238.966 371.579 224.12 371.2 209.311 371.726C200.635 372.032 191.874 373.035 183.871 377.231C175.464 381.648 168.267 387.483 162.17 394.75C160.85 396.328 159.237 398.139 157.05 396.524C155.144 395.117 156.488 393.184 157.16 391.521C159.555 385.55 163.587 380.669 167.79 375.947C169.868 373.61 170.503 371.212 170.039 368.117C169.073 361.682 168.646 355.174 167.595 348.751C166.226 340.371 166.006 331.611 160.044 323.684M672.691 491.74C680.596 484.094 688.844 476.766 695.638 468.068C709.592 450.194 721.811 431.195 731.794 410.789C732.918 408.489 733.26 405.149 736.816 404.929C738.893 406.972 738.038 409.076 737.402 410.887C715.824 472.386 670.222 513.431 617.803 550.047C623.143 551.674 626.979 550.977 630.877 549.864C651.576 543.93 670.638 534.314 689.431 524.038C723.363 505.491 742.278 475.335 753.617 439.722C758.48 424.43 757.429 408.428 757.148 392.463C756.659 365.609 747.581 343.282 726.955 325.825C717.656 317.958 708.052 311.23 695.198 310.434C686.303 309.884 677.468 308.22 668.622 306.936C666.593 306.642 663.832 306.984 663.869 303.229C664.663 302.862 665.518 302.348 666.435 302.091C676.014 299.424 677.81 296.109 674.145 286.591C672.764 283.006 670.76 279.617 668.695 276.363C662.451 266.503 655.034 257.523 646.603 249.522C637.329 240.726 626.393 235.502 613.233 235.343C582.16 234.964 552.92 243.381 524.071 253.682C521.053 254.758 517.705 255.431 515.347 257.902C508.284 265.328 502.199 273.451 497.923 282.835C496.212 286.591 496.53 289.869 499.914 292.683C504.619 296.586 509.213 300.611 513.795 304.648C527.065 316.343 539.455 328.638 542.986 347.099C543.609 350.366 542.986 354.109 546.53 357.559C555.718 350.158 565.298 343.209 575.88 336.933C574.426 335.538 573.631 334.621 572.703 333.911C559.604 323.928 548.754 311.951 539.883 298.029C536.376 292.524 537.243 288.45 542.107 284.939C548.375 280.413 554.814 276.118 561.254 271.824C562.757 270.821 564.553 270.001 566.068 272.106C566.276 274.638 564.076 275.458 562.72 276.828C559.14 280.437 555.279 283.752 552.358 288.01C549.939 291.533 549.377 294.726 551.466 298.739C557.295 309.921 564.76 319.647 574.743 327.452C578.385 330.29 580.78 329.336 583.504 326.192C592.094 316.319 598.998 306.079 592.693 292.218C592.607 292.035 592.595 291.827 592.534 291.631C591.838 289.563 591.618 287.496 593.829 286.248C595.858 285.11 597.238 286.676 598.644 287.839C606.928 294.665 607.893 299.204 603.434 309.786C601.527 314.325 598.338 318.399 597.666 323.855C602.102 323.39 604.9 320.735 608.297 319.488C611.926 318.154 615.445 316.551 619.025 315.083C628.189 311.328 634.299 300.794 633.174 290.775C633.016 289.307 632.612 288.022 631.684 286.86C621.346 273.965 602.175 259.639 579.765 267.506C577.798 268.191 575.44 269.463 573.693 266.417C573.986 265.83 574.157 264.863 574.731 264.484C582.075 259.688 589.687 255.419 598.253 253.155C600.806 252.483 603.055 253.449 605.266 254.575C616.862 260.484 626.234 269.133 635.227 278.382C642.559 285.93 645.723 294.188 642.058 304.452C641.96 304.709 642.375 305.149 642.559 305.492C646.994 308.355 652.383 303.253 656.904 306.666C655.987 310.985 652.615 311.315 649.866 312.282C612.94 325.323 580.951 345.631 554.02 374.454C538.001 391.606 531.659 411.755 530.01 434.192C528.507 454.672 530.022 474.833 536.217 494.566C540.811 509.186 545.271 523.805 555.633 535.672C563.294 544.456 579.484 548.371 590.213 543.82C620.259 531.085 647.74 514.226 672.666 491.716M426.417 980.679C427.932 972.238 425.122 964.763 421.2 957.569C420.662 956.578 419.416 955.918 418.402 955.269C403.103 945.495 387.732 935.952 369.098 933.689C362.451 932.881 355.804 931.634 349.352 929.884C338.624 926.973 328.751 928.881 319.465 934.35C308.761 940.65 298.24 947.232 287.683 953.765C277.773 959.906 274.022 969.534 276.771 980.997C278.238 987.114 281.635 992.142 285.105 997.183C286.119 998.675 287.39 1000.56 285.3 1002C283.321 1003.37 281.818 1001.78 280.718 1000.29C275.159 992.754 269.416 985.328 264.247 977.535C260.569 971.993 260.85 966.109 264.467 960.285C267.864 954.805 272.25 950.339 277.346 946.559C292.375 935.389 309.408 928.135 326.796 921.663C330.608 920.244 334.665 919.534 338.783 919.742C352.187 920.391 365.518 921.626 378.653 924.648C384.775 926.055 391.092 926.667 397.336 927.499C400.794 927.951 402.883 926.593 402.529 922.727C401.992 916.99 403.275 911.374 403.714 905.698C404.411 896.62 402.566 895.458 394.306 898.627C370.198 907.9 345.112 910.958 319.428 909.662C317.485 909.564 315.518 908.646 313.685 907.851C312.402 907.3 311.107 906.346 311.461 904.609C311.803 902.909 313.318 902.529 314.736 902.358C319.171 901.82 323.631 901.477 328.055 900.865C364.272 895.788 397.177 882.845 425.635 859.429C438.587 848.774 449.474 837.335 450.806 818.886C451.833 804.671 454.826 790.247 451.307 776.423C444.306 748.933 429.557 725.701 408.406 706.653C406.036 704.524 403.421 704.133 400.525 704.206C379.716 704.769 359.188 707.387 339.076 712.892C336.925 713.479 334.677 714.03 333.223 715.938C323.265 729.065 309.702 737.702 295.894 746.034C293.243 747.636 290.909 749.557 289.247 752.212C276.478 772.557 262.634 792.229 250.794 813.173C248.863 816.574 246.762 820.293 247.177 824.061C248.986 840.712 251.442 857.068 263.001 870.66C272.837 882.221 284.482 891.029 297.69 898.174C300.415 899.654 305.804 900.254 304.46 904.572C303.128 908.866 298.118 906.738 294.66 906.946C291.336 907.154 288.025 905.563 284.848 908.45C274.45 917.919 263.563 926.973 255.254 938.362C240.713 958.303 238.379 975.015 251.368 993.476C255.119 998.798 258.553 1004.36 261.95 1009.92C273.973 1029.53 291.019 1043.78 310.398 1055.51C314.003 1057.69 317.864 1060.65 322.275 1059.36C332.209 1056.44 342.571 1054.12 351.674 1049.42C372.189 1038.83 390.811 1025.23 407.282 1008.95C415.261 1001.06 422.715 992.644 426.429 980.667M175.794 783.848C180.4 798.162 182.82 813.357 192.387 826.728C201.295 816.281 209.286 806.579 215.652 795.654C221.896 784.937 221.371 782.858 212.316 774.379C208.883 771.162 206.867 771.933 204.826 775.64C202.419 780.019 201.002 784.57 201.173 789.635C201.234 791.482 200.598 793.415 198.313 793.721C196.578 793.954 195.919 792.559 195.32 791.201C192.436 784.729 196.065 765.767 200.928 760.347C203.763 757.179 206.121 757.313 209.213 759.895C215.958 765.534 222.165 771.651 227.676 778.515C236.4 789.39 236.583 796.486 227.651 807.276C219.917 816.611 210.508 824.086 200.097 830.239C190.286 836.026 182.221 833.677 176.796 823.523C172.739 815.926 169.66 807.913 168.291 799.41C165.958 784.888 160.3 770.55 165.371 755.503C166.41 752.42 167.045 749.202 168.035 746.107C168.817 743.648 168.817 741.434 165.994 740.7C162.732 739.856 159.359 735.696 156.024 739.452C150.256 745.96 144.391 752.322 140.738 760.629C136.351 770.611 138.722 780.203 140.127 790.039C143.536 813.968 158.736 830.007 176.417 844.321C178.384 845.911 181.17 847.012 183.687 847.293C198.313 848.908 212.903 848.871 227.248 844.969C229.008 844.492 230.95 843.99 230.914 841.556C230.718 830.325 235.826 820.685 240.298 810.91C246.395 797.55 253.543 784.742 260.972 772.079C264.1 766.733 263.086 764.8 257.001 764.115C252.761 763.638 248.497 763.32 244.245 762.953C226.698 761.412 209.75 757.228 193.243 751.208C190.97 750.377 188.098 749.3 189.21 746.193C190.176 743.477 192.888 744.468 195.088 744.847C205.303 746.609 215.493 748.566 225.745 750.01C240.823 752.138 255.791 751.906 270.32 746.56C272.8 745.642 275.391 744.896 278.067 742.045C265.701 741.911 254.594 741.617 243.695 738.4C222.959 732.295 202.896 724.392 182.991 716.146C160.984 707.032 139.186 697.404 118.56 685.378C110.166 680.484 109.139 677.487 114.418 669.315C119.831 660.935 126.075 653.154 132.71 645.655C148.216 628.16 166.801 614.177 184.677 599.386C189.675 595.251 194.22 590.284 200.452 588.009C224.425 579.237 248.973 576.558 274.279 581.072C281.109 582.295 285.19 585.733 287.781 591.85C295.344 609.687 303.873 627.047 313.954 643.624C316.068 647.098 317.962 650.719 319.672 654.414C322.751 661.094 321.395 664.666 314.528 667.382C310.386 669.021 306.085 670.489 301.723 671.297C280.938 675.138 260.105 678.76 239.271 682.369C229.24 684.106 226.026 680.962 228.03 670.869C230.229 659.834 233.993 649.264 239.528 639.428C240.64 637.446 241.813 634.363 244.917 635.88C247.764 637.262 245.699 639.856 245.32 641.874C244.868 644.272 243.878 646.572 243.524 648.97C242.644 654.989 241.361 661.057 242.974 667.137C243.854 670.441 245.234 673.426 249.596 672.728C267.448 669.89 284.457 664.495 300.183 655.515C306.977 651.637 307.185 649.349 303.152 642.682C295.662 630.313 286.754 618.826 280.132 605.919C278.812 603.35 276.466 602.298 273.814 601.564C259.054 597.527 244.11 594.199 228.836 593.49C215.53 592.878 202.7 594.688 191.398 603.509C180.107 612.317 169.538 621.86 159.616 632.051C150.989 640.908 142.656 650.193 137.243 661.669C131.732 673.328 131.781 673.328 141.984 681.647C164.198 699.765 190.469 709.724 216.813 719.535C234.567 726.154 252.26 731.732 271.994 729.787C292.742 727.732 311.046 721.064 327.639 708.696C333.052 704.659 335.936 699.839 337.243 693.195C342.192 668.03 348.155 643.049 347.58 617.125C347.495 613.162 346.359 610.164 343.56 607.387C332.698 596.597 321.114 586.626 308.687 577.72C299.878 571.395 290.176 566.71 279.814 563.37C272.813 561.106 266.288 560.862 259.042 563.345C238.758 570.319 218.01 573.854 196.823 567.101C193.78 566.135 191.666 567.529 189.479 568.936C170.173 581.451 150.403 593.281 132.233 607.485C119.232 617.639 106.134 627.732 95.6374 640.614C85.9967 652.445 86.07 672.924 96.2484 684.032C108.553 697.477 123.497 707.839 138.648 717.81C150.244 725.444 163.001 730.974 175.085 737.715C177.773 739.207 180.18 740.565 177.847 744.235C169.953 756.665 170.54 769.682 175.794 783.848ZM524.584 375.372C524.89 357.963 518.805 342.805 508.688 328.932C498.582 315.083 486.351 302.972 476.185 289.282C466.972 276.889 455.608 270.087 440.677 268.338C437.243 267.934 433.834 267.371 430.413 266.931C408.382 264.08 388.037 268.191 369.428 280.816C353.03 291.937 339.748 306.177 327.7 321.628C319.672 331.905 313.16 343.392 315.396 356.984C318.304 374.699 327.248 389.759 339.039 403.118C339.687 403.852 340.151 405.382 341.789 404.758C339.479 399.032 337.194 393.392 334.922 387.74C327.541 369.304 328.678 351.907 341.349 335.991C344.513 332.015 347.874 328.186 351.209 324.344C352.37 323.011 353.58 320.956 355.657 321.995C358.125 323.231 356.696 325.519 356.378 327.44C354.044 341.313 352.908 355.345 353.274 369.341C353.885 392.646 362.121 413.994 373.216 434.058C382.27 450.439 394.196 464.092 413.978 468.19C419.575 469.34 425.195 470.062 430.816 470.845C454.655 474.16 475.379 467.689 493.047 451.161C509.189 436.052 514.443 415.536 520.87 395.643C522.849 389.514 524.878 383.214 524.621 375.409M509.127 733.176C504.57 742.07 507.649 750.633 510.215 759.246C510.801 761.216 511.547 763.626 509.091 764.592C506.671 765.547 505.474 763.344 504.606 761.473C499.511 750.474 495.65 739.207 496.212 726.79C496.408 722.545 497.923 719.657 501.271 717.015C519.88 702.359 540.701 691.935 562.854 683.947C564.431 683.384 566.581 683.531 567.375 681.072C562.903 678.026 557.82 676.863 552.603 676.019C538.551 673.744 524.633 676.398 510.643 676.704C497.263 676.998 489.98 684.412 485.154 695.055C474.743 718.067 468.585 742.217 467.375 767.59C467.082 773.707 468.866 778.466 472.739 783.151C499.035 814.971 530.633 840.332 566.606 860.237C582.551 869.057 599.499 875.382 617.962 876.606C626.955 877.205 635.203 875.884 640.054 867.063C644.783 858.463 648.839 849.471 650.244 839.721C653.776 815.216 653.641 790.687 650.464 766.109C647.507 743.208 639.003 722.948 623.57 705.723C622.092 704.071 620.479 702.236 618.524 701.392C605.095 695.557 591.557 689.941 578.042 684.289C576.344 683.58 574.597 682.992 572.947 684.571C566.092 691.104 557.392 694.81 549.548 699.839C534.971 709.173 519.929 717.92 509.091 733.213M649.939 555.442C640.555 558.635 631.623 563.553 621.2 562.672C619.049 562.489 617.51 564.177 615.726 565.119C606.329 570.086 598.204 576.961 589.345 582.736C579.997 588.816 574.646 598.273 568.646 607.155C567.375 609.026 567.901 611.559 568.255 613.761C571.725 635.097 580.095 654.328 593.328 671.407C605.682 687.336 622.483 697.074 640.323 705.515C652.248 711.167 664.015 714.103 677.358 709.944C707.197 700.646 734.018 687.225 752.028 660.25C761.437 646.156 769.013 631.109 776.845 616.122C783.26 603.839 781.439 593.661 775.513 582.797C772.446 577.182 768.219 572.435 763.343 568.41C746.872 554.843 728.372 544.762 708.822 536.284C695.552 530.534 684.958 533.972 675.086 543.123C675.709 545.618 677.713 546.866 679.643 547.833C687.891 551.931 695.271 557.4 702.981 562.33C720.907 573.793 735.325 588.865 747.495 606.225C750.929 611.118 751.271 615.547 747.886 620.795C743.219 628.026 738.392 634.987 731.867 640.7C712.097 658.035 689.553 670.575 664.357 677.573C639.382 684.509 646.982 685.182 626.491 670.318C625.513 669.609 624.572 668.777 623.827 667.835C622.959 666.758 621.982 665.535 623.314 664.067C624.988 663.063 626.601 663.822 627.933 664.58C643.17 673.23 658.639 671.517 674.462 666.293C695.161 659.455 709.03 644.101 723.241 628.809C730.499 621.003 730.731 613.871 726.173 604.745C709.03 570.392 687.231 553.472 649.976 555.405M568.365 883.701C565.872 876.887 562.207 871.516 555.511 867.504C525.782 849.74 496.872 830.753 471.163 807.289C465.347 801.979 462.304 802.933 460.606 810.726C459.311 816.672 458.859 822.813 457.979 828.845C455.559 845.226 453.702 861.852 438.331 872.422C434.14 875.297 430.266 878.624 426.075 881.499C423.204 883.469 421.53 885.818 420.968 889.353C419.196 900.621 417.363 911.864 417.571 923.315C417.681 929.052 418.695 934.643 421.64 939.72C441.581 974.146 467.656 1000.3 509.555 1005.18C523.717 1006.84 538.038 1008.47 548.118 995.237C555.095 986.087 559.726 975.822 560.362 963.931C561.229 947.795 558.944 931.878 558.089 915.864C557.062 896.608 546.334 886.124 530.767 878.367C529.497 877.731 528.116 877.303 526.857 876.642C524.988 875.651 521.982 875.101 523.399 872.042C524.572 869.51 526.992 870.844 528.812 871.467C538.673 874.82 547.984 879.419 556.953 884.656C562.084 887.653 565.151 892.497 566.544 898.284C568.231 905.294 569.831 912.329 571.554 919.767C575.672 911.191 575.403 903.092 572.373 894.932C571.102 891.494 569.892 888.032 568.365 883.701ZM461.877 1138.42C464.675 1137.74 467.387 1136.78 469.355 1134.54C476.014 1126.96 481.476 1118.58 485.728 1109.39C478.837 1114.27 472.287 1119.42 465.775 1124.61C456.293 1132.16 437.451 1129.75 429.729 1119.94C429.57 1119.73 429.839 1119.18 429.961 1118.52C431.671 1116.83 433.969 1117.44 436.144 1117.45C442.449 1117.49 448.973 1118.37 454.973 1116.44C477.541 1109.18 493.072 1093.99 502.651 1072.48C503.311 1071 503.666 1069.46 503.287 1067.74C499.731 1051.43 496.603 1035.02 490.885 1019.25C489.834 1016.37 488.184 1014.49 485.349 1013.21C475.647 1008.79 466.862 1002.77 458.834 995.886C454.081 991.812 448.986 989.83 443.047 988.754C439.748 988.154 438.16 989.096 436.84 991.91C426.662 1013.55 409.824 1029.13 389.797 1041.05C380.559 1046.56 375.721 1052.22 375.293 1063.69C374.426 1086.6 376.71 1108.32 389.1 1128.22C391.532 1132.13 394.489 1134.53 398.9 1135.72C419.379 1141.26 439.993 1143.5 461.889 1138.4M516.886 71.2501C540.249 71.8862 562.83 66.4299 585.545 62.1481C592.131 60.9002 597.177 57.1811 600.648 50.9052C604.998 43.051 608.846 35.0134 612.378 26.7922C616.276 17.7269 613.832 13.8977 603.666 14.3748C590.09 15.011 576.515 15.9652 562.976 17.2131C553.91 18.0572 545.015 19.4029 536.901 24.5901C521.078 34.7075 506.61 46.501 492.876 59.1997C489.137 62.6619 485.093 66.0262 481.952 71.2746C493.793 71.2746 504.729 71.2746 516.886 71.2623M242.925 199.547C244.074 203.168 247.018 203.51 250.183 203.743C264.21 204.771 278.177 204.587 292.241 203.657C313.624 202.238 330.999 192.427 347.287 179.728C347.825 179.312 347.947 178.345 348.338 177.477C343.829 173.232 338.123 171.311 333.223 168.093C326.71 163.812 319.746 163.726 312.744 166.173C288.453 174.687 266.361 187.888 242.9 199.547M521.102 597.404C522.263 599.46 522.238 599.447 523.729 597.735C532.979 587.152 535.545 575.714 529.753 562.293C520.845 541.716 506.855 524.98 491.422 509.223C490.2 507.975 488.416 506.702 486.767 506.519C478.372 505.565 470.051 506.397 460.398 507.987C466.887 510.397 472.104 512.024 477.04 514.251C497.08 523.267 513.086 536.137 519.257 558.55C522.727 571.15 523.143 583.776 521.078 597.404M380.743 609.088C396.016 631.745 416.801 646.792 429.985 643.783C388.624 623.976 376.6 591.593 387.842 548.701C383.871 554.549 380.608 560.323 377.725 566.294C370.98 580.265 368.744 594.113 379.594 607.326C379.851 607.644 380.034 608.011 380.743 609.088ZM505.254 622.606C493.622 635.733 479.301 644.272 461.999 648.052C469.171 649.729 476.258 651.258 483.529 650.915C487.378 650.732 491.496 650.169 494.465 647.588C503.934 639.354 508.04 628.087 512.5 615.645C508.81 617.627 507.453 619.939 505.242 622.606M407.844 515.119C404.814 519.095 400.904 522.557 400.012 528.014C410.007 522.301 419.367 515.951 429.851 511.437C422.385 510.972 415.115 510.605 407.844 515.107V515.119Z" fill="#C71D42"/>
<path d="M288.808 448.2C276.577 449.154 264.786 450.011 253.214 452.396C243.549 454.39 242.107 457.277 245.516 466.551C246.359 468.838 247.398 471.065 248.302 473.341C248.864 474.784 248.791 476.203 247.459 477.194C246.078 478.222 244.612 477.769 243.561 476.729C234.922 468.276 227.261 458.978 222.532 447.784C220.333 442.572 225.379 437.361 232.65 437.287C249.536 437.104 266.362 435.367 283.285 435.77C291.117 435.966 297.007 439.147 301.748 444.872C305.133 448.958 307.87 453.571 309.764 458.525C314.077 469.78 317.083 481.378 318.268 493.416C319.637 507.29 311.462 516.905 297.752 518.422C273.889 521.053 250.269 517.835 226.565 516.22C214.529 515.401 202.725 513.394 191.007 510.874C180.462 508.611 175.477 502.665 176.345 494.481C177.053 487.764 179.693 486.529 185.313 490.284C190.458 493.722 196.054 496.34 202.053 497.515C230.181 503.02 258.432 507.705 287.11 509.369C292.535 509.687 295.235 507.889 296.604 502.506C300.893 485.721 301.833 469.169 294.808 452.861C293.757 450.427 292.73 447.808 288.796 448.212L288.808 448.2Z" fill="#C71D42"/>
<path d="M86.5475 386.811C87.0362 395.961 88.3436 404.427 90.7386 412.648C93.7566 423.035 99.0841 425.005 108.725 420.05C111.303 418.729 114.431 414.3 116.912 418.141C118.903 421.224 114.346 423.475 112.024 425.494C108.603 428.479 104.497 430.339 100.074 431.342C93.9033 432.736 89.089 430.901 85.13 425.714C77.1877 415.315 75.0372 403.033 74.0108 390.676C72.6423 374.369 74.2918 358.195 78.4341 342.243C80.6335 333.777 85.6188 328.296 93.2801 324.858C97.3612 323.023 101.479 321.274 105.646 319.647C107.1 319.072 108.969 318.423 110.02 320.295C111.095 322.203 109.458 323.353 108.261 324.332C104.326 327.55 100.282 330.633 96.286 333.764C91.5084 337.508 89.5411 342.499 88.588 348.445C86.5841 360.997 86.1564 373.561 86.5475 386.786V386.811Z" fill="#C71D42"/>
<path d="M117.021 581.439C120.076 568.006 119.098 555.1 115.848 542.34C114.052 535.281 113.111 534.938 106.72 537.923C96.6153 542.633 87.6832 548.885 81.3416 558.293C78.739 562.158 76.0019 566.086 77.5537 571.26C77.9814 572.704 77.6881 574.148 76.1363 574.906C74.8533 575.53 73.8269 574.808 72.7761 574.135C63.3919 568.165 62.8054 562.097 70.1857 553.693C83.1256 538.975 99.2546 529.751 118.023 524.796C124.218 523.157 127.627 524.625 128.25 530.595C130.193 549.142 130.193 567.639 122.935 585.293C119.294 594.15 113.868 597.294 104.826 596.585C103.018 596.438 100.88 596.646 100.428 594.272C100 592.058 101.833 591.067 103.397 590.125C107.893 587.434 113.294 586.222 116.997 581.439H117.021Z" fill="#C71D42"/>
<path d="M141.129 382.896C140.823 375.935 142.106 369.353 139.174 362.563C133.932 366.184 130.327 370.723 127.101 375.604C125.097 378.626 127.566 380.486 129.154 382.516C130.058 383.666 131.036 384.841 130.058 386.333C129.301 387.483 127.957 387.496 126.747 387.434C122.8 387.214 118.915 386.578 116.483 383.042C114.296 379.862 116.691 377.146 118.108 374.589C123.362 365.108 129.569 356.238 137.561 348.873C144.66 342.34 150.537 343.576 152.847 352.984C158.137 374.467 155.474 391.936 138.086 403.632C133.712 406.58 129.789 410.507 123.961 411.694C122.971 406.886 126.38 405.247 128.409 403.045C133.761 397.209 139.895 391.949 141.129 382.896Z" fill="#C71D42"/>
<path d="M80.4867 598.224C69.3308 599.716 59.3968 597.111 49.6582 593.208C46.9823 592.131 45.5282 590.076 44.3552 587.605C41.8747 582.381 41.4104 576.619 40.0052 571.114C39.5531 569.352 39.5654 567.125 41.8503 566.575C44.1353 566.024 45.0761 568.153 45.7604 569.743C49.6338 578.699 55.9021 584.84 65.5185 587.25C69.4652 588.241 73.3997 589.256 77.3586 590.235C78.7394 590.578 80.2179 590.627 81.5253 591.153C84.1768 592.217 89.1133 591.091 88.9789 594.774C88.8323 599.031 83.9447 597.478 80.4745 598.224H80.4867Z" fill="#C71D42"/>
<path d="M587.415 394.689C609.543 380.62 631.525 367.175 655.108 355.749C656.525 360.789 653.373 361.633 651.454 363.064C636.278 374.381 621.066 385.648 605.804 396.83C602.236 399.436 599.78 402.714 597.886 406.678C589.993 423.169 583.798 440.028 584.531 458.77C584.788 465.364 586.022 471.689 587.794 477.965C589.015 482.308 591.569 483.862 596.041 482.479C601.528 480.791 606.623 478.283 611.608 475.506C615.347 473.426 619.086 471.359 622.862 469.352C624.34 468.569 626.039 467.97 627.249 469.634C628.275 471.053 627.371 472.423 626.369 473.463C616.704 483.433 605.499 491.19 591.985 494.603C584.262 496.56 576.234 488.633 575.917 479.274C575.587 469.511 575.477 459.687 576.1 449.949C576.968 436.37 577.383 422.729 579.717 409.247C580.694 403.607 582.576 398.665 587.427 394.677L587.415 394.689Z" fill="#C71D42"/>
<path d="M657.002 402.017C645.333 407.424 638.881 416.612 635.069 428.088C634.324 430.339 633.419 433.446 630.548 433.128C627.163 432.749 627.628 429.286 627.249 426.754C627.224 426.558 627.249 426.338 627.224 426.142C625.269 414.092 629.277 405.871 640.751 400.109C656.721 392.083 671.762 382.186 689.517 378.1C693.854 377.097 697.642 377.513 700.66 380.926C703.739 384.413 703.349 388.34 701.76 392.401C696.103 406.788 685.814 417.909 675.599 428.944C664.26 441.202 651.638 452.188 638.6 462.648C637.061 463.884 635.472 466.013 633.407 464.006C631.318 461.988 633.334 460.226 634.653 458.807C640.873 452.09 647.044 445.301 653.52 438.817C664.468 427.843 674.915 416.453 684.165 403.999C687.574 399.399 688.784 394.249 688.026 387.496C676.687 390.945 666.997 396.267 657.014 402.017H657.002Z" fill="#C71D42"/>
<path d="M680.487 350.831C676.43 352.384 672.85 353.828 669.27 355.259C667.743 355.871 666.032 356.63 664.981 354.709C664.126 353.131 665.262 351.907 666.509 351.173C679.571 343.417 693.464 338.291 708.835 341.068C716.35 342.426 721.433 348.249 725.514 354.562C731.966 364.569 736.267 375.543 739.639 386.921C739.871 387.691 740.091 388.548 740.006 389.318C739.664 392.499 741.973 397.576 737.599 398.176C733.408 398.763 734.678 393.441 733.554 390.652C727.139 374.772 718.17 360.642 704.779 349.668C702.933 348.151 700.673 348.09 698.412 348.041C692.437 347.931 686.707 349.252 680.499 350.818L680.487 350.831Z" fill="#C71D42"/>
<path d="M421.566 828.098C405.437 851.269 385.924 870.44 363.258 886.43C360.105 888.656 356.708 890.54 353.336 892.436C351.784 893.317 349.804 894.455 348.583 892.143C347.581 890.246 349.365 889.256 350.623 888.252C371.701 871.308 388.013 850.266 401.637 827.169C409.311 814.176 415.274 800.352 416.056 784.803C416.435 777.255 413.685 771.835 407.344 767.981C396.823 761.607 385.618 756.861 373.68 753.9C369.624 752.885 365.579 754.169 361.522 754.096C359.457 754.059 357.063 754.022 356.696 751.441C356.329 748.884 358.627 748.15 360.545 747.453C370.968 743.673 380.78 742.963 390.567 750.193C401.393 758.194 414.394 762.537 425.965 769.364C438.539 776.777 442.669 785.696 438.233 797.159C434.409 807.032 429.753 816.562 423.595 825.26C423.008 826.092 422.41 826.924 421.579 828.123L421.566 828.098Z" fill="#C71D42"/>
<path d="M316.459 839.121C306.146 842.534 296.872 847.355 286.792 850.009C277.994 852.321 271.493 846.486 273.803 837.592C280.059 813.589 289.712 790.981 302.786 769.877C305.071 766.195 308.138 763.21 312.232 761.448C323.168 756.75 334.714 754.414 346.42 752.762C348.033 752.53 350 752.469 350.379 754.585C350.734 756.53 349.047 757.436 347.496 758.023C342.168 760.054 336.804 761.95 331.489 764.005C322.386 767.529 315.628 773.474 311.23 782.405C304.925 795.189 298.045 807.705 293.231 821.174C292.205 824.037 291.276 827.022 290.971 830.019C290.36 835.879 295.369 840.381 300.575 838.265C317.51 831.353 334.739 824.979 350.098 814.727C351.772 813.614 353.336 812.231 354.705 810.751C358.554 806.591 359.397 801.906 356.892 796.67C355.963 794.712 354.13 793.024 354.631 790.589C354.961 790.235 355.218 789.696 355.499 789.696C362.146 789.427 376.027 801.196 376.516 807.594C376.748 810.628 375.196 813.026 373.253 815.241C368.793 820.33 362.794 822.911 356.745 825.358C343.72 830.631 330.438 835.17 316.447 839.133L316.459 839.121Z" fill="#C71D42"/>
<path d="M322.923 1015.84C331.317 1015.11 338.233 1011.59 345.32 1008.54C358.272 1002.94 370.418 995.996 381.574 987.359C388.258 982.184 388.49 976.948 382.515 971.1C380.621 969.253 378.678 967.454 376.845 965.546C375.868 964.518 374.817 963.27 376.039 961.814C377.139 960.518 378.678 960.725 379.949 961.496C384.995 964.567 390.103 967.638 393.866 972.287C396.872 976.006 396.176 980.336 394.648 984.496C392.327 990.845 387.781 995.506 382.735 999.678C367.449 1012.33 349.866 1020.67 331.012 1026.25C318.5 1029.94 303.91 1023.88 296.872 1013.06C295.968 1011.68 294.844 1010.16 296.359 1008.69C297.874 1007.23 299.438 1008.34 300.709 1009.36C307.075 1014.46 314.37 1016.32 322.923 1015.84Z" fill="#C71D42"/>
<path d="M359.372 959.245C346.689 953.398 334.91 954.083 323.632 961.607C321.995 962.708 319.844 963.246 319.209 966.084C323.656 969.436 329.033 969.938 334.409 970.329C337.122 970.525 337.513 968.311 338.05 966.28C338.539 964.42 339.492 962.818 341.753 962.867C343.867 962.916 344.905 964.469 345.797 966.121C349.683 973.4 346.457 979.578 338.258 979.578C326.784 979.578 315.629 977.278 305.145 972.458C299.426 969.828 298.278 964.959 302.896 960.811C312.623 952.089 324.28 946.131 337.183 945.152C347.068 944.406 355.255 951.599 364.089 955.551C365.213 956.052 366.068 957.325 365.311 958.585C363.906 960.921 361.767 959.747 359.385 959.221L359.372 959.245Z" fill="#C71D42"/>
<path d="M404.802 415.536C394.404 402.604 386.278 388.719 378.641 374.552C374.316 366.514 375.562 363.75 383.712 359.737C391.129 356.091 398.925 356.935 406.464 358.232C414.651 359.639 422.666 362.122 430.682 364.398C433.492 365.205 437.341 366.135 436.755 370.038C436.193 373.806 432.466 373.94 429.387 373.83C421.664 373.573 413.954 372.864 406.244 372.815C396.872 372.754 395.662 374.662 398.839 383.263C399.401 384.792 399.866 386.394 400.684 387.777C410.093 403.461 410.631 403.828 427.053 399.999C445.394 395.717 463.148 390.199 479.607 380.914C494.208 372.68 490.249 371.861 482.295 364.594C456.794 341.251 427.334 324.858 394.538 314.337C385.252 311.364 376.075 311.829 367.388 316.735C365.995 317.518 364.418 318.827 363.026 317.175C361.461 315.316 362.842 313.627 364.223 312.453C370.259 307.315 377.065 303.914 385.166 303.669C404.863 303.094 422.74 309.333 440.029 318.044C458.309 327.244 474.756 339.257 491.129 351.32C502.273 359.541 502.811 375.115 492.803 384.78C477.639 399.424 461.29 412.379 441.826 420.98C435.203 423.903 428.336 425.543 421.212 426.081C413.465 426.668 408.969 421.64 404.79 415.548L404.802 415.536Z" fill="#C71D42"/>
<path d="M617.546 744.908C619.966 764.225 622.642 783.017 621.554 802.028C621.139 809.332 620.088 816.611 619.098 823.865C618.671 827.046 616.887 829.677 613.746 830.802C604.35 834.166 594.758 836.882 584.971 838.815C583.419 839.121 581.672 839.292 580.56 837.372C580.242 834.435 582.857 833.995 584.665 832.967C591.593 829.065 598.179 824.636 604.924 820.464C611.205 816.586 611.901 810.628 612.17 804.622C613.123 783.445 613.697 762.219 608.199 741.446C604.9 728.955 599.658 717.969 585.374 714.837C584.152 714.568 583.077 713.858 583.077 712.366C583.077 710.984 584.103 710.249 585.13 709.552C595.98 702.065 605.657 705.013 610.362 717.235C613.746 726.019 615.518 735.219 617.546 744.896V744.908Z" fill="#C71D42"/>
<path d="M553.751 731.695C559.836 726.57 565.579 721.713 571.42 716.978C572.947 715.742 574.963 714.005 576.76 716.073C578.837 718.458 576.552 720.122 574.915 721.603C568.781 727.108 564.199 733.763 560.191 740.895C553.36 753.031 553.971 758.304 563.942 769.217C568.536 767.834 571.273 763.822 574.853 760.959C576.442 759.687 578.043 758.023 580.218 759.503C582.258 760.885 581.989 763.161 581.317 765.069C578.483 773.156 573.18 779.554 566.862 785.133C564.773 786.98 562.415 786.307 560.985 784.301C552.652 772.569 547.08 759.515 543.194 745.728C542.583 743.575 543.866 741.752 545.308 740.247C547.972 737.445 550.733 734.754 553.764 731.708L553.751 731.695Z" fill="#C71D42"/>
<path d="M545.211 814.531C553.239 823.498 560.802 832.368 572.679 835.61C574.304 836.05 575.844 836.87 575.783 838.852C575.722 840.712 574.304 841.776 572.74 842.29C566.533 844.369 560.619 844.969 555.084 840.051C540.616 827.193 529.497 811.778 520.076 795.03C516.997 789.537 514.04 783.971 511.169 778.368C510.277 776.618 509.043 774.306 511.462 772.973C513.942 771.602 515.079 774.098 516.117 775.688C524.903 789.146 534.006 802.358 545.211 814.531Z" fill="#C71D42"/>
<path d="M611.291 656.69C602.823 649.264 595.846 641.018 588.686 632.956C585.191 629.029 585.314 625.628 588.93 621.786C601.675 608.207 616.374 600.842 635.717 604.157C648.351 606.323 660.925 608.562 673.266 612.012C676.394 612.892 679.937 613.798 680.145 617.872C680.353 621.896 676.968 623.23 673.999 624.563C669.197 626.717 664.529 629.371 658.615 630.68C659.104 624.943 663.515 622.777 664.505 618.447C660.387 615.217 655.169 615.156 650.331 614.446C633.236 611.938 617.107 613.259 604.045 626.692C601.076 629.751 600.636 632.173 602.628 635.745C605.744 641.312 609.666 646.181 614.114 650.707C616.777 653.411 619.576 656.09 620.125 660.433C615.934 662.073 614.187 658.525 611.291 656.702V656.69Z" fill="#C71D42"/>
<path d="M463.478 942.803C452.029 933.982 451.76 922.556 453.898 910.077C455.988 897.868 458.444 885.695 458.982 873.229C459.263 866.684 463.258 861.46 467.107 856.444C469.612 853.178 473.314 853.777 476.711 854.267C489.443 856.102 501.613 860.151 513.845 863.919C515.763 864.506 518.305 865.094 517.523 867.773C516.765 870.391 514.175 869.547 512.256 869.253C502.799 867.797 493.292 866.99 483.725 866.941C470.455 866.867 465.213 870.77 464.309 883.872C463.063 901.881 466.13 919.559 470.944 936.906C471.714 939.696 473.742 941.861 475.758 943.892C483.786 951.966 491.276 960.591 500.428 967.491C504.179 970.317 507.002 969.962 509.397 965.888C510.423 964.139 511.657 962.5 512.696 960.75C516.728 953.96 522.984 946.742 520.919 939.133C518.085 928.648 510.387 920.195 502.823 912.377C499.512 913.845 499.744 916.549 499.109 918.812C498.766 920.024 498.241 921.174 496.775 921.235C495.357 921.296 494.563 920.305 494.099 919.13C491.741 913.124 490.885 906.835 492.095 900.535C492.877 896.461 495.968 895.018 499.365 897.819C511.034 907.423 521.824 917.895 529.729 930.985C531.183 933.383 531.623 935.928 530.951 938.607C527.799 951.293 523.62 963.576 517.058 974.966C514.505 979.407 511.535 980.716 506.501 978.832C498.669 975.908 492.4 970.794 486.181 965.57C478.068 958.744 470.981 950.853 463.466 942.791L463.478 942.803Z" fill="#C71D42"/>
<path d="M480.572 1040.75C485.789 1043.45 485.521 1047.29 483.614 1051.38C479.24 1060.76 473.094 1068.73 464.809 1075.05C456.354 1081.52 447.361 1087.04 437.512 1091.1C429.533 1094.39 427.713 1093.81 424.157 1086.11C422.63 1082.81 418.194 1078.78 421.346 1075.81C424.853 1072.51 427.273 1078.23 430.156 1079.93C432.124 1081.08 433.663 1081.39 435.765 1080.29C446.64 1074.64 457.148 1068.47 466.166 1060.04C470.577 1055.92 470.528 1054.52 465.2 1051.5C455.78 1046.15 445.809 1042.14 435.301 1039.39C428.006 1037.48 422.116 1039.35 417.192 1044.96C415.665 1046.68 414.064 1049.58 411.266 1047.56C408.785 1045.76 411.193 1043.56 411.84 1041.57C414.577 1033.14 420.467 1030.13 429.118 1030.31C446.774 1030.68 464.003 1032.78 480.56 1040.76L480.572 1040.75Z" fill="#C71D42"/>
<path d="M409.629 1096.5C412.243 1103.47 419.184 1106.81 422.178 1113.04C418.854 1115.57 416.361 1114.29 414.076 1113.17C411.339 1111.84 408.834 1110.05 406.195 1108.52C400.086 1104.96 396.86 1100.06 397.031 1092.59C397.263 1082.75 397.397 1073.01 402.676 1064.24C403.849 1062.29 404.387 1058.87 407.576 1059.82C410.594 1060.73 409.653 1063.75 409.494 1066.14C408.847 1076.1 408.333 1086.07 409.616 1096.5H409.629Z" fill="#C71D42"/>
<path d="M264.626 356.568C257.393 351.797 249.243 348.274 243.329 341.545C240.078 337.838 237.329 333.862 235.496 329.275C232.735 322.375 233.724 318.313 239.321 313.664C240.53 312.673 241.728 311.132 243.561 312.098C245.345 313.028 244.856 314.704 244.722 316.392C243.768 328.479 253.177 342.389 264.773 345.607C267.828 339.306 269.99 332.639 271.677 325.764C273.228 319.488 268.011 316.992 264.675 313.493C269.795 309.566 284.678 313.42 286.498 318.888C286.865 319.977 286.963 321.433 286.535 322.448C282.49 331.966 279.949 342.145 274.243 350.941C272.178 354.134 269.685 356.715 265.005 356.556C264.541 356.532 264.59 356.556 264.614 356.581L264.626 356.568Z" fill="#C71D42"/>
<path d="M312.672 275.323C317.217 279.471 321.078 283.642 324.157 288.487C325.966 291.337 327.2 294.237 323.632 297.846C318.317 291.325 311.059 287.814 304.228 283.618C297.373 279.409 290.946 279.483 284.36 284.034C276.675 289.355 268.891 294.53 261.156 299.767C259.311 301.014 257.478 302.311 255.597 303.51C254.363 304.293 252.872 304.929 251.711 303.608C250.306 301.993 251.332 300.488 252.579 299.375C258.48 294.09 264.284 288.67 270.431 283.691C275.795 279.348 281.99 275.972 287.085 271.372C293.671 265.426 299.903 266.662 306.464 270.687C308.529 271.959 310.387 273.574 312.659 275.323H312.672Z" fill="#C71D42"/>
</g>
<defs>
<clipPath id="clip0_697_7">
<rect width="806" height="1159" fill="white"/>
</clipPath>
</defs>
</svg>
