<?xml version="1.0" encoding="UTF-8"?>
<svg id="Layer_1" data-name="Layer 1" xmlns="http://www.w3.org/2000/svg" version="1.1" viewBox="0 0 1074 117.51">
  <defs>
    <style>
      .cls-1 {
        fill: #232323;
      }

      .cls-1, .cls-2 {
        stroke-width: 0px;
      }

      .cls-2 {
        fill: #252525;
      }
    </style>
  </defs>
  <path class="cls-2" d="M107.85,3.07c4.76,0,9.29-.01,13.82,0,3.31.01,4.86,1.52,4.87,4.84.01,34.05.01,68.1,0,102.15,0,3.51-1.63,5.09-5.17,5.11-5.66.03-11.33.01-16.99,0-4.71,0-5.82-1.1-5.82-5.89-.02-9.36,0-18.72-.01-28.09,0-2.73-.91-4.07-3.05-4.63-2.16-.57-3.57.5-4.77,2.15-6.44,8.84-12.91,17.65-19.37,26.48-1.16,1.58-2.29,3.18-3.48,4.75-2.36,3.11-5,3.11-7.29-.12-6.98-9.85-13.9-19.73-20.84-29.6-.17-.25-.36-.48-.52-.74-1.16-1.88-2.66-3.12-5.04-2.48-2.1.57-2.99,2.09-2.99,4.94,0,8.83,0,17.67,0,26.5,0,.68.02,1.36,0,2.04-.13,2.85-1.67,4.55-4.5,4.59-5.81.08-11.63.08-17.44,0-3.13-.04-4.46-1.47-4.48-4.67-.04-6.87-.02-13.74-.02-20.61,0-26.88,0-53.76,0-80.63,0-5.05,1.05-6.09,6.12-6.09,6.49,0,12.99.12,19.48-.05,3.12-.09,4.79,1.18,6.04,3.96,7.86,17.45,15.86,34.84,23.79,52.27.85,1.88,1.8,3.5,4.16,3.57,2.36.07,3.43-1.5,4.39-3.31,9.41-17.8,18.85-35.58,28.23-53.39,1.12-2.12,2.6-3.18,5.02-3.06,1.88.1,3.77.02,5.89.02Z"/>
  <path class="cls-1" d="M743.11,108.44c0-33.59,0-66.96,0-100.34,0-4.18,1.19-5.39,5.37-5.39,18.27,0,36.55-.14,54.82.04,17.32.16,32.46,5.76,43.92,19.28,19.2,22.65,17.04,58.3-4.67,77.82-9.19,8.26-20.24,12.33-32.38,13.61-3.74.39-7.53.45-11.3.46-16.84.03-33.68,0-50.51-.02-4.08,0-5.16-1.08-5.24-5.45M823.88,63.85c.2-11.36-1.68-22.23-7.75-32.05-4.6-7.44-10.96-11.82-20.15-11.37-5.35.26-10.72.04-16.07.05-3.32,0-3.31,0-3.1,3.23.05.83.05,1.66.05,2.49,0,21.36,0,42.72,0,64.08,0,3.73.84,4.57,4.47,4.57,6.72,0,13.43,0,20.15,0,7.14,0,12.62-3.04,16.45-9.04,4.18-6.56,5.56-13.9,5.95-21.95Z"/>
  <path class="cls-1" d="M1031.57,110.54c-15.84,5.73-31.9,6.3-47.79,1.93-22.65-6.23-38.13-20.28-42.51-44.09-4.56-24.77,7.26-48.08,30.16-58.6,23.03-10.59,46.55-10.51,68.93,1.94,31.34,17.43,36.87,61.26,11.4,86.32-5.73,5.63-12.47,9.7-20.19,12.5M1014.76,23.37c-5.18-2.94-10.66-3.56-16.36-1.98-8.05,2.22-12.45,8.13-15.05,15.57-3.67,10.49-3.44,21.18-1.07,31.89,1.73,7.82,4.56,15.16,10.13,21.15,4.8,5.17,10.63,6.82,17.46,5.02,7.97-2.1,12.92-7.61,15.97-14.83,5.85-13.82,5.75-27.87.57-41.87-2.24-6.06-5.74-11.27-11.66-14.96Z"/>
  <path class="cls-1" d="M712.18,99.27c-7.85,7.18-17.15,11.11-27.19,13.43-14.66,3.39-29.35,3.42-43.88-.61-9.93-2.76-19.11-7.05-26.12-15-5.31-6.02-8.02-13.09-8.05-21.07-.08-22.5-.03-45.01-.02-67.51,0-3.81,1.41-5.22,5.17-5.24,8.38-.06,16.76-.14,25.14-.18,4.23-.02,5.49,1.28,5.49,5.57,0,21.98.17,43.95-.06,65.93-.16,15.4,12.21,21.41,23.11,20.51,3.45-.28,7-1.3,10.15-2.75,7.11-3.28,10.56-9.2,10.57-17.02.03-22.28.01-44.56.01-66.83,0-4.17,1.43-5.45,5.64-5.39,8.45.12,16.91.15,25.37.22,3.67.03,5.13,1.37,5.13,5.03.02,22.5.06,45.01-.01,67.51-.03,9.23-3.67,16.97-10.46,23.42Z"/>
  <path class="cls-1" d="M441.46,23.27c0,5.07-1,6.09-5.79,6.08-12.16-.02-24.31-.02-36.47-.08-2.11,0-3.95.32-4.81,2.53-.95,2.41-.91,4.88.83,6.82.76.86,2.37,1.32,3.61,1.33,10.04.13,20.09-.09,30.12.2,11.04.32,21.73,2.46,31.58,7.78,7.5,4.05,13.53,9.59,17.03,17.53,4.78,10.83,2.15,23.41-6.66,32.54-6.48,6.71-14.52,10.63-23.34,13.23-7.59,2.24-15.38,3.05-23.25,3.08-19.25.08-38.51.03-57.76.02-4.29,0-5.49-1.22-5.5-5.54,0-4.08-.01-8.16,0-12.23.01-3.56,1.34-4.89,4.93-4.89,18.2,0,36.4.06,54.59,0,7-.02,13.88-.87,20.15-4.32,1.44-.79,2.83-1.76,4-2.91,4.3-4.21,3.99-9.5-.72-13.27-3.95-3.17-8.65-4.59-13.55-5.25-3.65-.49-7.36-.78-11.05-.81-11.1-.1-22.21-.31-33.3.04-12.84.4-19.86-7.29-22.7-16.61-4.01-13.19-2.9-25.85,5.11-37.37,3.85-5.54,9.39-8.24,16.28-8.2,17.06.08,34.13.02,51.2.03,4.26,0,5.47,1.23,5.47,5.55,0,4.83,0,9.67,0,14.72Z"/>
  <path class="cls-1" d="M537,115.1c-5.13,0-10.04.02-14.95,0-3.77-.02-5.03-1.29-5.03-5.02,0-25.06,0-50.12,0-75.19,0-4.2-1.33-5.53-5.57-5.53-8.83,0-17.66,0-26.5,0-3.67,0-5.05-1.38-5.05-5.06-.01-5.44-.02-10.87,0-16.31.01-3.49,1.47-4.98,4.98-4.97,32.83.1,65.67.21,98.5.33,3.32.01,4.78,1.54,4.79,4.89.01,5.44.02,10.87,0,16.31-.01,3.36-1.44,4.8-4.84,4.81-8.98.02-17.97,0-26.95,0-4.77,0-5.92,1.13-5.92,5.8,0,24.53,0,49.07,0,73.6,0,5.13-1.23,6.34-6.44,6.34-2.26,0-4.53,0-7.02,0Z"/>
  <path class="cls-1" d="M172.6,45.13c-8.16-11.71-16.23-23.28-24.32-34.83-1.1-1.57-1.8-3.14-.81-5.02.99-1.88,2.65-2.23,4.58-2.22,6.04.04,12.08.09,18.12-.02,2.35-.04,3.96.77,5.34,2.67,6.28,8.58,12.66,17.09,19.02,25.62,3.06,4.11,5.45,4.11,8.53.08,6.27-8.21,12.56-16.41,18.85-24.6,1.93-2.51,4.25-3.94,7.68-3.86,8.23.2,16.46.1,24.69.05,2.07-.01,3.93.18,4.98,2.28,1.06,2.12.05,3.73-1.16,5.37-11.91,16.06-23.76,32.15-35.72,48.17-1.85,2.47-2.77,4.9-2.65,8.07.56,14.18.87,28.36,1.27,42.54.12,4.28-1.31,5.75-5.59,5.76-8.38.01-16.76.01-25.15,0-4.27,0-5.47-1.22-5.47-5.55,0-15.03.02-30.05-.05-45.08,0-1.17-.44-2.51-1.1-3.49-3.59-5.31-7.3-10.54-11.06-15.93Z"/>
  <path class="cls-2" d="M881.05,85.41c0-25.82,0-51.4,0-76.99,0-4.63,1.25-5.86,5.93-5.86,8.98,0,17.96,0,26.95,0,4.26,0,5.54,1.29,5.54,5.54,0,33.44,0,66.88,0,100.32,0,4.09-1.46,5.51-5.63,5.51-9.21,0-18.42,0-27.63,0-3.79,0-5.15-1.36-5.16-5.19-.02-7.7,0-15.4,0-23.32Z"/>
</svg>