<?xml version="1.0" encoding="UTF-8"?>
<svg id="Layer_1" data-name="Layer 1" xmlns="http://www.w3.org/2000/svg" version="1.1" viewBox="0 0 1045 151">
  <defs>
    <style>
      .cls-1 {
        fill: #232323;
        stroke-width: 0px;
      }
    </style>
  </defs>
  <path class="cls-1" d="M940.8,141.4c-22.1-4.5-39.8-14.9-50.7-35-3-5.6-4.8-11.8-7.1-17.5v31.9c0,5.4,0,10.8,0,16.2,0,4-1.8,5.7-5.8,5.7-11,0-22.1,0-33.1,0-4.2,0-5.9-1.7-5.9-5.9,0-15.7,0-31.4-.5-47.2-.4,1.4-.7,2.9-1.1,4.3-7,26.5-28.3,44.9-55.8,48-4.5.5-9,.8-13.6.8-21.4,0-42.8,0-64.3,0-5.6,0-7-1.4-7-6.8V16.2c0-5,1.6-6.6,6.5-6.6,22.7,0,45.5-.4,68.2.1,24.2.6,44.5,9.7,57.6,30.9,3.8,6.1,5.8,13.4,8.5,20.2.5,1.1.6,2.4,1.3,3.6v-30c0-6.1,0-12.1,0-18.2,0-4.9,1.7-6.5,6.7-6.6,10.5,0,21,0,31.5,0,5,0,6.6,1.6,6.6,6.6,0,16.1,0,32.2.5,48.4.6-2.1,1.1-4.2,1.8-6.3,6.4-20,19.8-33.9,39.1-41.4,24.5-9.5,49.3-9.6,73.6.5,35.5,14.8,50.8,55.7,33.6,89.3-7.4,14.3-19,24.2-33.8,30.2-18.4,7.4-37.4,8.1-57,4.7M790,41.3c-5.3-7.2-12.3-10.8-21.4-10.4-8.4.3-16.9,0-25.3,0-4.3,0-6.1,1.5-6.1,5.7,0,26,0,51.9,0,77.9,0,4,1.7,5.4,5.6,5.5,9,0,18-.2,26.9,0,9.6.2,16.6-4,21.7-11.8,5.6-8.6,7.8-18.2,8.2-28.2.6-13.6-1.5-26.7-9.6-38.7M992.2,83.9c0-1.3.3-2.6.3-3.9.4-13.6-1.7-26.6-10.2-37.7-13.2-17.2-38.1-14-46,6.3-8.1,20.7-5.6,41,5.8,59.6,10,16.3,29.2,16.5,40.9,1.1,5.6-7.3,8.1-15.9,9.2-25.5h0Z"/>
  <path class="cls-1" d="M408,26.9c-.2,5-1.7,6.5-6.3,6.5-6.6,0-13.2,0-19.8,0-4.3,0-6.1,1.8-6,5.8,0,3.8,1.9,5.3,6.1,5.4,13.8.2,27.7-.3,41.5.8,17.2,1.3,32.3,7.8,43.2,21.9,1.4,1.8,2.5,3.7,4.2,6.3v-3.4c0-10.3,0-20.6,0-30.8,0-4.2-1.7-5.8-5.9-5.8-12.4,0-24.9,0-37.3,0s-6.9-1.5-6.9-6.9c0-3.9,0-7.8,0-11.7,0-3.4,1.8-5.1,5.2-5.3.9,0,1.7,0,2.6,0h145.4c6,0,7.3,1.3,7.3,7.5,0,26,0,51.9,0,77.9,0,9.2,3.9,15.9,12,19.8,15.2,7.3,30.4,6.7,45.1-1.2,7.2-3.9,10.8-10.2,10.7-18.7-.1-26,0-51.9,0-77.9s1.3-7.4,7.4-7.4,15.4,0,23,0c4.6,0,6.3,1.7,6.3,6.2.2,26.8.4,53.7.4,80.5,0,15.3-8,26.1-20.5,33.9-11,7-23.4,10.5-36.3,12.1-18.2,2.3-36,.9-53.3-5.6-8.7-3.3-16.6-7.9-22.9-14.8-6.6-7.3-9.8-15.8-9.9-25.7,0-19.5-.2-39-.3-58.4v-4.3h-16.3c-7.1,0-10.6,3.5-10.6,10.6v91.9c0,6-1.4,7.4-7.5,7.4-10.5,0-21,0-31.5,0-4.8,0-6.4-1.6-6.4-6.4,0-7.7,0-15.3,0-22.9-3.4,4.1-6.4,8.6-10.2,12.2-11.5,11-25.8,15.9-41.3,16.3-24.2.6-48.5.2-72.7.2s-5-1.8-5-5c0-7.4,0-14.7,0-22.1,0-3.5,2.1-5.2,6-5.2,8,0,16,0,24,0,13.5,0,27.1,0,40.6-.2,7.9-.2,15.3-2.5,21.5-7.8,9.5-8.2,8.5-20.3-2.3-26.7-6.2-3.7-13.1-4.8-20.2-4.9-14.1-.1-28.1-.3-42.2,0-17.1.4-25.2-11.7-26.8-24.4-1.3-10.9.9-20.9,8.3-29.3,4.3-4.9,9.8-7.4,16.3-7.5,11.8-.1,23.6,0,35.4,0,4,0,5.8,1.8,5.8,5.7,0,3.8,0,7.6,0,11.7h0Z"/>
  <path class="cls-1" d="M165.5,9.5c5.7-.9,9.3,1.3,12.5,5.8,7,9.7,14.7,19,22.1,28.4,3.5,4.5,6.5,4.5,10.1,0,7.7-9.6,15.5-19.2,23.1-28.8,2.9-3.7,6.4-5.6,11.4-5.4,9.9.3,19.9.1,29.9,0,2.5,0,4.8.3,6,2.8,1.3,2.6,0,4.5-1.5,6.5-15.2,19.6-30.5,39.2-45.6,58.9-1.3,1.7-2.2,4.3-2.1,6.4.4,17.2,1,34.4,1.5,51.6.2,5.4-1.4,7-6.8,7-10.8,0-21.6,0-32.5,0-4.4,0-6.1-1.6-6.1-6,0-17.8,0-35.7,0-53.6,0-1.4-.4-3.1-1.1-4.2-11.9-16.4-23.8-32.6-35.8-48.9-.3-.4-.6-.8-1.6-1.9v107.2c0,6.4-1,7.5-7.6,7.5s-14.5,0-21.8,0c-4.6,0-6.2-1.6-6.2-6.2,0-8.4,0-16.9,0-25.3,0-2.7-.6-5.1-3.3-6-2.9-1-4.8.4-6.6,2.8-7.1,9.4-14.3,18.7-21.5,28-3.8,5-6.8,5-10.4,0-6.5-9-13.1-18-19.5-27.1-1.6-2.2-3.4-3.8-6.2-2.9-3,.9-3.7,3.3-3.7,6.1,0,8.2,0,16.4,0,24.7,0,4.5-1.6,6.1-5.9,6.1-7.6,0-15.1,0-22.7,0-4.1,0-5.8-1.7-5.8-5.9,0-40.4,0-80.7,0-121.1,0-4.4,1.8-6.2,6.4-6.2,7.8,0,15.6,0,23.4,0,3.4,0,5.4,1.3,6.6,4.5,9,23.2,18.2,46.4,27.3,69.6,0,.2.2.4.2.6.9,2.4,2,4.6,5.1,4.6,3.3,0,4.4-2.2,5.5-4.7,5.1-12.1,10.1-24.3,15.2-36.4,4.7-11.2,9.5-22.4,14.1-33.7,1.3-3.3,3.4-4.6,6.9-4.6,15.6.1,31.2,0,47.1,0h0Z"/>
</svg>