<?xml version="1.0" encoding="UTF-8"?>
<svg id="Layer_1" data-name="Layer 1" xmlns="http://www.w3.org/2000/svg" version="1.1" viewBox="0 0 1034.08 446.79">
  <defs>
    <style>
      .cls-1 {
        fill: #898989;
      }

      .cls-1, .cls-2, .cls-3 {
        stroke-width: 0px;
      }

      .cls-2 {
        fill: #232323;
      }

      .cls-3 {
        fill: #232323;
      }
    </style>
  </defs>
  <path class="cls-2" d="M488.96,338.04c-3.95,24.44-9.36,48.52-21.23,70.48-4.46,8.26-10.2,16.03-16.41,23.09-9.14,10.39-21.21,15.07-35.17,14.99-23.66-.13-47.33-.02-70.99-.04-8.72,0-10.83-2.19-10.83-11.02,0-10.33-.04-20.67.02-31,.04-6.75,2.67-9.37,9.38-9.38,23-.03,46-.21,68.99.1,7.97.11,14.45-2.63,18.27-9.13,4.68-7.96,9.21-16.35,11.8-25.15,11.18-37.83,11.75-76.52,7.54-115.41-1.62-14.95-4.36-29.73-10.4-43.6-2.3-5.29-5.33-10.39-8.78-15.02-4.05-5.45-9.76-8.2-16.87-8.1-15.33.22-30.67-.11-45.99.25-7.85.18-13.92-2.74-17.56-9.27-3.7-6.63-7.35-13.63-9.11-20.92-9.91-41.12-9.25-82.23,2.4-122.95,1.84-6.43,5.43-12.49,8.93-18.29,3.2-5.32,8.49-7.63,14.86-7.56,15.99.18,31.99.15,47.99.28,6.24.05,8.93,2.68,8.94,8.79.05,20.83.05,41.66,0,62.49-.01,5.72-2.82,8.61-8.61,8.65-10.33.06-20.66-.15-30.99-.17-7.29-.01-9.81,2.59-9.84,9.98-.03,6.17-.06,12.33,0,18.5.07,6.68,2.71,9.31,9.49,9.34,9.66.04,19.36.42,28.99-.18,20.03-1.24,34.49,8,45.91,23.33,11.14,14.94,17.76,32.02,22.38,49.85,2.88,11.11,4.75,22.48,7.09,33.72.22,1.04.47,2.07,1.55,3.01,0-1.58,0-3.15,0-4.73.04-44.16.09-88.32.12-132.48,0-8.3-2.28-10.5-10.78-10.51-9.67,0-19.33.04-29-.02-5.75-.03-8.76-2.8-8.79-8.49-.1-20.83-.09-41.66,0-62.49.03-5.73,2.99-8.59,8.74-8.6,43.5-.05,86.99-.04,130.49,0,6.53,0,8.97,2.74,8.96,9.81-.05,33.33-.18,66.65-.2,99.98-.03,60.33-.06,120.66.02,180.98.02,17.07,1.48,34.05,7.86,50.08,2.43,6.1,5.72,12.13,9.82,17.22,9.55,11.83,23.16,11.98,33.73.99,9.35-9.72,14.4-21.76,16.4-34.74,1.99-12.95,3.45-26.14,3.49-39.22.29-91.16.15-182.32.15-273.48,0-9.85,2.05-11.86,12.06-11.87,30.83,0,61.67.33,92.49-.14,15.54-.24,27.32,5.89,36.62,17.75,13.43,17.13,21.03,37.07,26.14,57.85,4.69,19.04,7.87,38.46,11.72,57.71.24,1.22.5,2.43.75,3.65.5,0,1,0,1.5,0,0-1.78,0-3.57,0-5.35,0-40.16,0-80.33,0-120.49,0-8.52,2.42-10.94,10.99-10.96,7.5-.02,15-.04,22.5,0,7.19.05,9.86,2.76,9.87,10.01.02,39,0,77.99.67,117.14.69-3.55,1.44-7.1,2.06-10.66,4.82-27.64,11.21-54.82,24.06-80.04,5.87-11.52,12.84-22.25,23.8-29.68,14.44-9.78,31.11-8.43,43.98,3.43,14.31,13.19,21.91,30.36,28.17,48.22,11.92,34.02,17.11,69.38,20.23,105.09,4.3,49.26,3.77,98.48-2.44,147.56-4.04,31.96-9.9,63.53-23.03,93.25-5,11.32-11.15,21.95-20.17,30.71-15.4,14.96-35.36,15.53-51.51,1.16-11.34-10.1-18.22-23.2-24.12-36.91-10.36-24.05-15.59-49.47-19.98-75.11-.2-1.14-.36-2.3-.65-3.42-.19-.74-.59-1.44-.99-2.39,0,38.93,0,77.56,0,116.18,0,10.03-2.01,12.04-11.96,12.04-6.33,0-12.67,0-19,0-10.87,0-12.67-1.8-12.65-12.86.05-38.33.11-76.65.17-114.98,0-4.12,0-8.24,0-11.25-3.92,19.36-7.54,39.82-12.29,60.02-4.74,20.17-11.69,39.65-23.84,56.77-3.24,4.57-7.15,8.78-11.24,12.63-7.1,6.68-15.82,9.66-25.54,9.67-21.5.02-43,.04-64.49-.01-7.56-.02-10.06-2.61-10.07-10.31-.03-23.83-.01-47.66-.01-71.49,0-1.78,0-3.56,0-5.35-.4-.08-.79-.16-1.19-.24-.51,1.73-1.09,3.44-1.53,5.19-5.7,22.47-13.54,44.01-29.06,61.8-11.47,13.14-25.45,21.52-43.69,19.73-13.71-1.35-24.27-8.8-33.07-18.81-15.62-17.77-23.54-39.28-28.89-61.85-5.6-23.62-7.74-47.68-7.79-71.9-.14-69.16-.11-138.32-.14-207.47,0-1.8,0-3.61,0-6.02-2.93,0-5.55-.18-8.14.04-4.49.37-7.17,3.31-7.34,7.92-.18,4.83-.29,9.66-.29,14.48-.02,110.49-.01,220.98-.01,331.47,0,10.99-1.65,12.61-12.84,12.61-7,0-14,.08-21-.02-7.6-.11-10.11-2.68-10.1-10.37.06-32.32.17-64.65.44-97.85.18-3.36.18-5.85.18-8.34-.55,0-1.1-.01-1.66-.02l-.45,8.08M795.35,108.23c-3.7-10.1-7.06-20.34-11.24-30.23-1.91-4.51-6.26-6.5-11.55-6.3-7.15.28-14.33.07-21.49.07-10.41,0-11.92,1.49-11.92,11.76,0,87.81,0,175.61,0,263.42,0,5-.19,10-.07,14.99.14,5.72,2.63,8.14,8.35,8.2,7.33.08,14.71-.51,21.98.15,9.4.86,14.6-3.8,18.27-11.56,6.36-13.41,9.16-27.78,11.39-42.28,5.62-36.51,6.72-73.29,6-110.13-.64-32.66-2.75-65.21-9.72-98.1M979.76,325.19c2.05-17.51,4.76-34.97,6.02-52.54,2.53-35.25,2.24-70.54-.41-105.79-1.75-23.24-4.09-46.45-10.62-68.92-2.06-7.09-5.06-14.17-8.99-20.4-4.96-7.87-12.35-7.82-17.87-.29-2.99,4.08-5.23,8.92-6.91,13.73-8.67,24.83-10.1,50.82-11.46,76.74-1.98,37.95-.96,75.89,2.49,113.74,2.07,22.71,4.59,45.39,11.11,67.34,1.78,5.99,4.39,11.89,7.58,17.26,3.25,5.48,8.46,5.83,13.04,1.35,2.45-2.39,4.88-5.34,5.93-8.5,3.63-10.85,6.65-21.9,10.1-33.71Z"/>
  <path class="cls-3" d="M120.39,110.53c5.33-33.47,10.57-66.51,15.82-99.54,1.46-9.23,3.35-10.84,12.74-10.84,11.33,0,22.67-.03,34,.01,6.66.02,8.87,1.77,10.36,8.32,6.85,30.19,13.65,60.39,20.48,90.58.29,1.3.69,2.58.91,3.89.72,4.24,3.35,6.67,7.47,6.69,4.39.02,6.77-2.74,7.76-7.04,6.56-28.57,13.25-57.12,19.83-85.68C253.5.57,253.94.15,270.46.15c5.5,0,11,0,16.5,0,10.39.01,12.96,3.16,10.73,13.11-14.71,65.68-28.83,131.5-44.47,196.95-5.44,22.78-5.71,45.42-5.56,68.38.32,47.48.54,94.97.83,142.45.03,5.16.26,10.33.26,15.49,0,7.34-2.45,9.88-9.89,10-7.83.13-15.67.06-23.5.02-8.05-.04-10.47-2.45-10.46-10.44.07-57.66-.12-115.32.38-172.97.16-18.14-1.81-35.77-5.89-53.38-4.96-21.39-9.16-42.96-13.71-64.45-.4-1.88-.89-3.74-2.19-5.6-.08,1.7-.22,3.39-.22,5.09-.01,41.33.02,82.66-.02,123.99-.05,55.82-.16,111.65-.25,167.47-.01,7.76-2.32,10.19-10.08,10.28-8.33.1-16.67.07-25,0-7.61-.06-9.88-2.35-9.88-9.81-.01-30.83,0-61.66,0-92.49,0-1.5.04-3-.05-4.5-.26-4.21-2.42-6.98-6.64-7.5-4.23-.52-7.06,1.7-8.26,5.68-3.07,10.21-6,20.46-8.99,30.69-4.92,16.78-9.91,33.55-14.72,50.36-1.22,4.28-3.21,7.46-8.03,7.41-4.91-.05-6.69-3.57-7.82-7.72-6.86-25.22-13.69-50.45-20.76-75.62-.69-2.47-2.5-5.32-4.63-6.55-4.7-2.72-10.3,1.03-10.43,6.72-.19,8.33-.06,16.66-.06,25,0,22.67.01,45.33,0,68,0,8.02-2.36,10.33-10.48,10.35-8,.02-16,.03-24,0-7.14-.03-9.44-2.38-9.5-9.65,0-.67,0-1.33,0-2,0-140.83,0-281.65,0-422.48,0-10.69,1.63-12.29,12.54-12.29,7.67,0,15.33-.08,23,.03,6.31.08,8.68,2.2,9.61,8.47,9.79,65.73,19.55,131.46,29.33,197.19,1.89,12.68,3.79,25.37,5.79,38.03.82,5.2,3.43,7.65,7.7,7.42,4.5-.24,6.79-2.79,7.49-7.21,7.02-44.38,14.09-88.75,21.24-133.55Z"/>
  <path class="cls-1" d="M489.26,338.06c-.15-2.72,0-5.41.15-8.1.55,0,1.1.01,1.66.02,0,2.49,0,4.98-.17,7.89-.56.36-.95.29-1.63.2Z"/>
</svg>