<?xml version="1.0" encoding="UTF-8"?>
<svg id="Layer_1" data-name="Layer 1" xmlns="http://www.w3.org/2000/svg" version="1.1" viewBox="0 0 1068.28 460.21">
  <defs>
    <style>
      .cls-1 {
        fill: #232323;
      }

      .cls-1, .cls-2, .cls-3, .cls-4 {
        stroke-width: 0px;
      }

      .cls-2 {
        fill: #f5f5f5;
      }

      .cls-2, .cls-4 {
        opacity: 0;
      }

      .cls-3 {
        fill: #232323;
      }

      .cls-4 {
        fill: #f4f4f4;
      }
    </style>
  </defs>
  <path class="cls-1" d="M1063.13,447.97c2.74,7.53-.52,12.11-8.38,12.11-11.81,0-23.62-.06-35.42.03-4.25.03-7.02-1.73-8.83-5.57-20.35-43.28-40.76-86.54-61.15-129.81-4.19-8.89-8.34-17.79-12.63-26.63-2.55-5.26-9.13-6.51-12.7-2.25-1.3,1.55-2.04,4.05-2.07,6.12-.18,13.77-.09,27.55-.09,41.33,0,35.61,0,71.22,0,106.83,0,7.34-2.6,9.93-9.96,9.93-10.03,0-20.05,0-30.08,0-6.02,0-9-2.96-9-8.93-.02-50.51-.03-101.02-.04-151.53,0-1.03,0-2.06,0-4-.98,1.64-1.58,2.59-2.13,3.56-6.82,12.02-15.16,22.7-26.81,30.47-5.35,3.56-11.1,6.28-17.37,7.64-6.89,1.49-9.64,8.47-6.87,14.17,15.48,31.94,30.48,64.12,45.64,96.21,3.33,7.05-.02,12.42-7.79,12.42-10.87,0-21.74-.07-32.61.04-4.24.04-7.02-1.66-8.89-5.49-11.74-24.11-23.56-48.18-35.36-72.27-.49-1.01-.97-2.02-1.49-3.02-1.96-3.82-5.19-5.48-8.93-4.61-3.7.87-5.91,3.87-5.91,8.12-.01,22.21,0,44.42,0,66.63,0,8.26-2.38,10.6-10.74,10.6-8.9,0-17.81.01-26.71,0-5.55-.01-8.65-3.14-8.65-8.73,0-28.58,0-57.16,0-85.75,0-.75,0-1.49,0-2.24-.09-.02-.18-.03-.27-.05-1.8,6.4-3.45,12.85-5.42,19.2-5.29,17.12-11.81,33.71-21.86,48.7-6.33,9.43-13.69,17.91-23.89,23.3-17.64,9.32-34.33,6.89-49.84-5.02-10.68-8.2-18-19.16-24.27-30.89-7.17-13.41-12.29-27.63-16.68-42.13-.15-.51-.36-1-.89-1.44,0,4.32,0,8.64,0,12.97,0,20.8,0,41.61,0,62.41,0,7.01-2.68,9.68-9.67,9.68-10.78,0-21.55,0-32.33,0-5.32,0-8.03-2.43-8.9-7.71-5.74-35.09-11.53-70.17-17.25-105.26-6.1-37.42-12.16-74.84-18.24-112.26-1.68-10.32-3.37-20.64-5.06-30.95-.75-4.61-3.67-7.38-7.78-7.38-4,0-6.99,2.65-7.77,7.11-3.63,20.71-7.19,41.44-10.81,62.15-6.3,36.01-12.65,72.01-18.95,108.02-4.59,26.26-9.15,52.52-13.71,78.78-.92,5.27-3.62,7.62-9.02,7.63-11.53.02-23.05.02-34.58,0-5.94-.01-8.92-3.02-8.92-9.03-.01-41.98-.02-83.97,0-125.95.02-47.98.1-95.96.1-143.94,0-57.35-.07-114.7-.1-172.05,0-6.39,2.87-9.24,9.3-9.25,10.87-.02,21.74-.02,32.61,0,6.39.01,9.25,2.9,9.25,9.27,0,34.95,0,69.91,0,104.86,0,5.75,3.26,9.03,8.54,8.63,3.67-.28,5.65-2.5,6.72-5.83,4.38-13.7,8.76-27.41,13.16-41.1,5.52-17.17,11.06-34.33,16.62-51.49,1.29-3.99,3.84-5.95,7.53-5.93,3.77.02,6.38,2.08,7.62,6.21,8.9,29.6,17.77,59.21,26.68,88.8,1.8,6,7.38,8.12,12.24,4.74,2.4-1.67,3.03-4.05,3.02-6.84-.04-25.58-.02-51.17-.02-76.75,0-8.53-.02-17.06,0-25.58.02-6.04,2.95-8.97,8.95-8.98,10.68-.02,21.37-.02,32.05,0,5.76.01,8.6,2.88,8.6,8.64,0,25.3,0,50.6.37,76.04.22-.48.5-.94.65-1.44,4.97-16.71,11.06-32.96,19.93-48.04,6.02-10.25,13.17-19.57,22.98-26.53,18.02-12.78,39.32-11.47,56.19,3.45,10.28,9.09,17.43,20.45,23.45,32.61,8.71,17.61,14.42,36.25,19.07,55.27.06.24.16.46.58.66,0-.98,0-1.95,0-2.93-.01-28.86.12-57.73-.14-86.59-.07-7.83,2.73-11.32,11.09-11.24,27.08.27,54.17.41,81.25,0,18.57-.29,33.62,6.72,45.49,20.42,5.72,6.6,10.19,14.27,15.2,21.48.51.73.88,1.56,1.78,2.26,0-2.75,0-5.5,0-8.25-.01-9.18-.06-18.37-.02-27.55.02-5.12,3.13-8.21,8.26-8.23,10.68-.05,21.37-.03,32.05,0,5.92.01,8.76,2.98,8.76,9.13.04,43.57.1,87.15.11,130.72,0,34.48-.07,68.97-.1,103.45,0,4.92,2.44,8.03,6.68,8.59,4.08.54,7.24-1.57,8.62-5.94,4.77-15.05,9.5-30.11,14.24-45.17,17.11-54.34,34.23-108.69,51.34-163.03,3.31-10.51,6.58-21.04,9.93-31.55,1.43-4.5,3.78-6.2,8.47-6.21,11.9-.02,23.8-.03,35.7,0,6.55.02,9.84,4.55,7.94,10.92-10.09,33.75-20.16,67.51-30.29,101.25-15.05,50.12-30.13,100.22-45.22,150.32-.82,2.73-.72,5.21.39,7.89,23.08,55.66,46.09,111.35,69.12,167.04,1.43,3.45,2.84,6.91,4.37,10.56M848.2,117.18c-1.38-6.59-2.51-13.24-4.2-19.75-2.99-11.53-6.88-22.73-13.93-32.55-5.76-8.03-13.09-12.61-23.5-12.15-11.04.49-22.11.11-33.17.11-6.9,0-9.17,2.31-9.17,9.31-.01,39.92-.03,79.84-.04,119.76,0,28.67,0,57.35,0,86.02,0,6.03,1.93,7.94,7.87,7.94,12.28,0,24.55-.11,36.83.04,8,.1,14.31-3.17,19.47-8.96,6.13-6.89,9.92-15.1,12.91-23.72,7.37-21.26,9.79-43.36,10.61-65.65.74-20.06-.34-40.07-3.68-60.4M613.13,182.64c-.18,6.37-.48,12.73-.52,19.1-.24,37.03,1.48,73.96,6.59,110.67,2.21,15.85,5.01,31.6,10.01,46.86,2.06,6.32,4.37,12.56,8.68,17.77,4.13,5,8.73,5.62,14.08,1.94,1.3-.89,2.69-1.91,3.5-3.2,2.82-4.49,5.94-8.91,7.97-13.76,6.73-16.08,9.55-33.17,11.88-50.32,3.66-26.94,4.92-54.05,4.94-81.21.02-25.01-1-49.99-3.81-74.87-2.04-18.04-4.74-35.99-10.1-53.41-2.53-8.23-5.4-16.38-11.1-23.09-6.41-7.55-14.72-7.36-20.98.29-5.46,6.67-8.3,14.57-10.59,22.69-7.37,26.15-9.08,53.05-10.53,80.52Z"/>
  <path class="cls-3" d="M233.97,56.88c4.3,17.47,8.57,34.71,12.85,51.95,1.12,4.53,3.7,6.86,7.6,6.9,3.95.05,6.63-2.19,7.78-6.68,8.22-32.15,16.41-64.31,24.62-96.47.18-.72.31-1.48.58-2.16,3.53-8.69,3.95-10.72,14.23-10.5,10.02.22,20.05.03,30.08.05,7.09.02,10.3,4.06,8.62,10.92-11.91,48.58-23.85,97.15-35.77,145.72-7.02,28.6-14.19,57.16-20.84,85.84-1.28,5.52-.54,11.53-.53,17.31.03,11.52.21,23.05.3,34.57.27,33.73.52,67.45.81,101.18.16,18.46.39,36.91.55,55.37.05,6.48-2.77,9.3-9.16,9.3-10.4,0-20.81.01-31.21,0-6.27,0-9.1-2.85-9.1-9.1,0-41.8-.01-83.6,0-125.39.01-25.58.21-51.17-.01-76.75-.04-5.05-1.41-10.14-2.56-15.13-8.8-38.24-17.69-76.46-27-114.69,0,1.02,0,2.04,0,3.06.01,23.9.04,47.8.04,71.69,0,85.56-.03,171.13-.04,256.69,0,6.78-2.79,9.61-9.47,9.62-10.87,0-21.74.01-32.61,0-6.23-.01-9.04-2.87-9.04-9.13,0-35.05,0-70.1,0-105.15,0-5.87-3.75-9.31-9.22-8.5-3.66.55-5.29,3.13-6.32,6.35-4.91,15.4-9.86,30.78-14.79,46.17-4.79,14.94-9.57,29.89-14.36,44.83-1.55,4.83-4.03,7.07-7.88,7.1-3.91.04-6.56-2.36-8.03-7.28-8.73-29.16-17.46-58.33-26.19-87.49-1.4-4.66-4.54-7.14-8.42-6.63-4.54.59-7.12,3.74-7.12,8.88-.02,33.93,0,67.85,0,101.78,0,6.26-2.8,9.07-9.06,9.07-10.5,0-20.99.01-31.49,0-6.1,0-8.96-2.84-9.03-8.88,0-.47,0-.94,0-1.41-.01-89.22-.03-178.44-.04-267.66,0-47.61-.02-95.22-.03-142.82,0-10.12.03-20.24.07-30.36C2.81,2.85,5.66,0,11.9-.02c10.96-.03,21.93-.03,32.89,0,5.25.02,7.97,2.26,8.82,7.45,4.31,26.22,8.56,52.44,12.84,78.66,3.61,22.06,7.23,44.12,10.85,66.19,4.43,27.01,8.87,54.02,13.29,81.03,1.28,7.83,2.52,15.67,3.83,23.5.7,4.15,3.78,6.82,7.68,6.81,3.96-.01,6.9-2.58,7.64-6.81,6.38-36.56,12.73-73.13,19.12-109.68,5.54-31.7,11.13-63.4,16.7-95.1,2.64-15.02,5.26-30.04,7.92-45.06.81-4.54,3.49-6.94,8.09-6.96,17.24-.06,34.49-.06,51.73,0,4.62.01,7.13,2.2,8.28,6.84,4.12,16.6,8.23,33.21,12.37,50.05Z"/>
  <path class="cls-2" d="M848.24,117.42c3.3,20.09,4.38,40.1,3.64,60.16-.82,22.29-3.24,44.39-10.61,65.65-2.99,8.62-6.78,16.83-12.91,23.72-5.16,5.79-11.47,9.07-19.47,8.96-12.27-.16-24.55-.04-36.83-.04-5.94,0-7.87-1.91-7.87-7.94-.02-28.67-.01-57.35,0-86.02,0-39.92.03-79.84.04-119.76,0-7,2.27-9.31,9.17-9.31,11.06,0,22.13.38,33.17-.11,10.41-.46,17.74,4.13,23.5,12.15,7.04,9.81,10.94,21.02,13.93,32.55,1.69,6.51,2.82,13.16,4.24,19.99Z"/>
  <path class="cls-4" d="M613.13,182.37c1.45-27.2,3.15-54.11,10.53-80.25,2.29-8.12,5.14-16.02,10.59-22.69,6.26-7.65,14.57-7.83,20.98-.29,5.7,6.71,8.57,14.86,11.1,23.09,5.36,17.42,8.05,35.36,10.1,53.41,2.81,24.87,3.83,49.85,3.81,74.87-.02,27.16-1.28,54.27-4.94,81.21-2.33,17.15-5.15,34.24-11.88,50.32-2.03,4.85-5.15,9.27-7.97,13.76-.81,1.29-2.2,2.31-3.5,3.2-5.35,3.68-9.94,3.06-14.08-1.94-4.31-5.21-6.61-11.46-8.68-17.77-4.99-15.26-7.8-31.01-10.01-46.86-5.11-36.71-6.83-73.64-6.59-110.67.04-6.37.34-12.73.53-19.37Z"/>
</svg>