<?xml version="1.0" encoding="UTF-8"?>
<svg id="Layer_1" data-name="Layer 1" xmlns="http://www.w3.org/2000/svg" version="1.1" viewBox="0 0 1032 161">
  <defs>
    <style>
      .cls-1 {
        fill: #232323;
        stroke-width: 0px;
      }
    </style>
  </defs>
  <path class="cls-1" d="M1003.4,155.1c-10.8,0-21.4.1-31.8-.1-2.2,0-4.6-.9-6.3-2.1-17.7-12.9-35.2-26.1-52.8-39.1-2-1.5-4-2.8-6.7-1.5-2.5,1.1-3.2,3.1-3.2,5.7,0,10,0,20.1,0,30.1,0,5.4-1.7,7.1-7.1,7.1-9.8,0-19.6,0-29.4,0-5.4,0-7-1.7-7-7.2,0-23.9,0-47.8,0-72.7-1.6,3.2-2.7,5.9-4.1,8.3-8.7,15-22.5,23.2-38.6,28-5.7,1.7-11.6,2.6-17.4,3.6-3.1.5-5.3,1.8-6.2,4.9-.8,3,.6,5.1,3,6.8,8.3,5.8,16.5,11.8,24.7,17.7,2.3,1.6,4.2,3.5,3.3,6.6-1,3.4-3.7,4.1-6.9,4-9.2-.1-18.4,0-27.7-.1-2.1,0-4.4-.7-6.1-1.9-12.9-8.8-25.7-17.8-38.5-26.7-2.2-1.5-4.3-2.9-7-1.5-2.9,1.5-3.1,4-3.1,6.8,0,5.5,0,11,0,16.4,0,5-1.8,6.8-6.7,6.8-10,0-20.1,0-30.1,0-4.8,0-6.7-1.9-6.7-6.8,0-15.4,0-30.8,0-46.4-2.1,4.9-3.8,9.7-6.2,14.1-9.4,17.4-23.9,28.7-42.6,34.4-24.7,7.5-49.4,7.1-73.2-3.2-24.2-10.4-38.9-28.9-43.3-55.1,0-.2-.2-.4-.8-1.4v56.9c0,6.1-1.6,7.6-7.7,7.6h-23.1c-6,0-6.8-.5-8.9-6.2-9.7-25.4-19.5-50.8-29.1-76.3-1.1-2.8-2.3-5.2-5.7-5.1-3.3,0-4.5,2.3-5.6,4.9-10.5,25.7-21,51.4-31.6,77.2-2.1,5-2.8,5.5-8,5.5-8.6,0-17.3,0-25.9,0-4.9,0-6.7-1.8-6.7-6.8,0-44.6,0-89.2,0-133.7,0-5.1,1.8-6.9,7-6.9,8.3,0,16.6,0,24.9,0,4.7,0,6.5,1.9,6.5,6.6,0,9.6,0,19.1,0,28.7,0,3,.7,5.3,3.7,6.4,3.1,1,5-.5,6.8-2.9,7.6-10.3,15.4-20.5,23-30.8,4.4-5.9,7.6-5.9,11.8,0,6.9,9.9,14,19.8,20.9,29.8,1.7,2.5,3.8,3.8,6.8,2.9,2.9-.9,3.6-3.2,3.6-6.1,0-9,0-18,0-27,0-6.1,1.6-7.8,7.6-7.8h21.7c6.7,0,8.1,1.4,8.1,7.9v56.4c1.7-5.9,2.8-11.3,4.7-16.2,8.2-20.9,23.3-35,44.3-42.1,26.3-8.9,52.5-8.6,77.9,3.2,19,8.9,31.6,23.8,38,43.8.2.6.4,1.2,1.1,1.8v-3.3c0-14.9,0-29.9,0-44.8,0-4.6,1.9-6.7,6.2-6.7,31.3,0,62.5-.1,93.8.5,15.7.3,30.6,4.5,44.1,12.9,10.2,6.3,18,14.7,22.5,26,.2.6.6,1.2,1.3,2.7V15.2c0-6,1.5-7.6,7.3-7.6,9.7,0,19.4,0,29,0,5.4,0,7.1,1.7,7.1,7.1,0,19.8,0,39.7,0,59.5,0,3,.4,5.7,3.5,6.9,3,1.2,5-.5,7-2.5,18.6-18.5,37.3-37,55.9-55.4,4.4-4.4,8.7-8.8,13.3-12.9,1.6-1.4,4-2.5,6.1-2.5,10.4-.2,20.8,0,31.2-.1,2.6,0,4.9.5,6.1,3.2,1.1,2.6.2,4.6-1.5,6.7-19.4,23.3-38.7,46.6-58.1,69.9-3.8,4.6-3.6,6.6.8,10.5,17.8,15.6,35.6,31.2,53.4,46.7,2.2,1.9,3.7,4,2.6,7-1.1,3-3.6,3.6-6.5,3.5-4.2-.1-8.4,0-13,0M734.6,74.2c0,5.7,0,11.4,0,17.2,0,3.6,1.3,4.8,4.9,4.8,11.2,0,22.4,0,33.6,0,4.2,0,8.4,0,12.6-.6,13.8-1.9,24.3-8.6,29.4-22,8.7-22.8-7.7-47.4-32.5-48.6-13.7-.6-27.5-.2-41.3-.3-5.4,0-6.7,1.3-6.7,6.9v42.7M604,31.7c-10.7,2-17.2,8.8-21.2,18.3-5.4,12.9-5.6,26.3-3.3,39.9,1.8,11.2,5.4,21.7,12.7,30.6,7.3,9,17.1,11.5,27.9,7.3,6.6-2.5,11.4-7.1,15-13,7.8-12.8,9.5-26.9,8.1-41.4-1-11.2-4-21.8-11.2-30.8-7-8.8-16-12.9-28-10.9h0Z"/>
  <path class="cls-1" d="M252.9,10c2.5-.9,4.7-2.3,6.9-2.3,11.4-.2,22.9,0,34.3-.1,2.7,0,5.2.3,6.6,3,1.4,2.7.1,4.9-1.5,7-16.4,21.6-32.7,43.3-49.2,64.9-1.9,2.5-2.8,4.9-2.7,8,.7,19,1.2,38,1.8,57,.2,5.8-1.6,7.6-7.3,7.6-11.6,0-23.1,0-34.7,0-5.1,0-6.9-1.8-6.9-7,0-19.7,0-39.4,0-59.2,0-1.6-.5-3.5-1.4-4.8-12.8-18.1-25.7-36.1-38.5-54.1-.2-.4-.6-.7-1.6-1.8v119.2c0,6.2-1.4,7.6-7.6,7.6-7.9,0-15.9,0-23.8,0-5.1,0-6.8-1.8-6.9-7,0-9.3,0-18.7,0-28,0-3-.6-5.7-3.7-6.8-3.3-1.1-5.2.8-7,3.2-7.7,10.3-15.5,20.7-23.3,31-3.8,5.1-7.3,5.1-10.9,0-7-9.9-13.9-19.8-20.9-29.8-1.8-2.5-3.6-4.7-7.1-3.5-3.5,1.2-3.8,3.9-3.8,7,0,9.1,0,18.2,0,27.3,0,4.7-1.8,6.5-6.6,6.5-7.9,0-15.9,0-23.8,0-4.9,0-6.8-1.8-6.8-6.7,0-44.7,0-89.4,0-134.1,0-4.7,1.9-6.6,6.5-6.7,8.6,0,17.3,0,25.9,0,3.5,0,5.5,1.6,6.8,4.9,9.8,25.8,19.6,51.5,29.5,77.2.2.5.5,1.1.6,1.6.8,2.5,2.6,3.9,5.2,3.9,2.6,0,4.2-1.5,5.2-3.9,4.9-11.9,9.8-23.9,14.7-35.8,5.9-14.5,11.9-29.1,17.8-43.6,1.2-3,3.2-4.3,6.4-4.3,18.8,0,37.6,0,56.4,0,2.9,0,4.7,1.4,6.4,3.6,8.6,11.4,17.3,22.8,26,34.3,3.7,4.9,7.1,4.9,10.9,0,8.5-10.8,16.9-21.6,25.4-32.5.8-1,1.7-1.9,2.8-3h0Z"/>
</svg>