<?xml version="1.0" encoding="UTF-8"?>
<svg id="Layer_1" data-name="Layer 1" xmlns="http://www.w3.org/2000/svg" version="1.1" viewBox="0 0 1074 133.17">
  <defs>
    <style>
      .cls-1 {
        fill: #232323;
        stroke-width: 0px;
      }
    </style>
  </defs>
  <path class="cls-1" d="M148.8,60.68c.03,22.1.07,43.94.1,65.77,0,5.26-1.42,6.69-6.65,6.69-6.71,0-13.42,0-20.14,0-4.59,0-6.17-1.54-6.17-6.05,0-11.28.02-22.55-.01-33.83,0-3.96-2.27-6.36-5.66-5.66-1.38.29-2.86,1.46-3.74,2.64-8.85,11.92-17.75,23.81-26.28,35.96-2.71,3.86-6.99,4.72-10.2-.05-8.03-11.94-16.51-23.56-24.72-35.38-1.58-2.27-3.48-3.44-6.11-2.63-2.72.84-3.38,3.1-3.37,5.75.04,11.1.02,22.19.02,33.29,0,4.13-1.73,5.89-5.83,5.9-6.53.02-13.07.02-19.6,0-4.01-.01-5.69-1.69-5.79-5.69,0-.27,0-.54,0-.81-.07-39.82-.15-79.63-.22-119.45,0-5.23,1.47-6.69,6.68-6.69,8.23,0,16.47.08,24.7-.04,2.92-.04,4.62,1.17,5.79,3.76,9.34,20.59,18.74,41.15,28.13,61.72.26.57.54,1.13.77,1.71.83,2.09,2.25,3.44,4.59,3.53,2.34.09,3.75-1.19,4.81-3.19,5.37-10.21,10.8-20.39,16.2-30.59,5.82-10.98,11.69-21.94,17.43-32.97,1.44-2.78,3.29-4.07,6.54-3.99,7.69.19,15.39.05,23.09.06,3.98,0,5.64,1.67,5.64,5.73.01,18.08,0,36.15,0,54.5Z"/>
  <path class="cls-1" d="M571.53,36.52c-.02,30.24-.04,60.22-.07,90.19,0,4.83-1.56,6.38-6.45,6.38-8.14,0-16.29-.05-24.43.03-2.92.03-4.84-1.02-6.09-3.78-9.5-20.98-19.1-41.92-28.64-62.89-1.01-2.23-2.16-4.11-4.97-4.16-2.68-.04-3.91,1.7-5.01,3.77-11,20.75-22.09,41.46-32.99,62.27-1.81,3.46-4.01,4.99-7.98,4.84-7.24-.27-14.49-.06-21.74-.08-4.13,0-5.86-1.72-5.86-5.86-.01-40.36-.01-80.71,0-121.07,0-4.07,1.63-5.69,5.69-5.71,7.25-.02,14.5-.02,21.74,0,3.82.01,5.55,1.74,5.56,5.59.02,11.36.05,22.73-.02,34.09-.02,2.68.65,4.78,3.39,5.71,2.79.94,4.52-.49,6.08-2.62,8.91-12.19,17.88-24.35,26.83-36.52,2.84-3.86,6.27-3.82,9.06.14,8.44,11.99,16.86,23.99,25.29,35.98,2.21,3.14,5.42,3.92,7.63,1.52,1.02-1.1,1.61-3,1.63-4.55.13-11.09.07-22.19.07-33.29,0-4.34,1.66-6.05,5.94-6.06,6.53-.02,13.06-.03,19.6,0,3.99.02,5.71,1.73,5.72,5.73.03,10.02,0,20.04,0,30.33Z"/>
  <path class="cls-1" d="M859.45,2.43c16.29,3.86,29.54,11.78,37.87,26.49,15.26,26.95.71,59.01-29.89,66.13-1.3.3-2.62.55-3.91.88-2.32.6-3.62,2.24-4.17,4.46-.55,2.22.28,3.96,2,5.44,6.83,5.9,13.61,11.87,20.44,17.77,1.96,1.69,3.38,3.54,2.28,6.26-1.07,2.65-3.3,3.18-5.91,3.17-10.38-.05-20.76-.05-31.13,0-2.31.01-4.07-.72-5.66-2.43-6.41-6.86-12.91-13.63-19.38-20.43-.25-.26-.5-.51-.76-.76-1.55-1.55-3.25-2.49-5.52-1.56-2.27.93-3.23,2.65-3.22,5.05.02,4.83.03,9.66,0,14.49-.03,3.74-1.85,5.6-5.61,5.61-10.56.03-21.11.03-31.67,0-3.85-.01-5.7-1.9-5.7-5.81-.03-40.35-.04-80.69-.05-121.04,0-3.89,1.72-5.76,5.42-5.76,23.44.02,46.88,0,70.31.22,4.7.05,9.38,1.13,14.28,1.81M843.98,16.46c-.52-.13-1.04-.35-1.56-.36-9.29-.18-18.59-.36-27.89-.46-1.96-.02-2.15,1.47-2.15,3.02,0,19.24.02,38.48-.01,57.72,0,2.46.86,3.55,3.48,3.51,7.16-.12,14.32-.04,21.48-.04,8.71,0,15.57-3.63,20.29-10.91,6.13-9.45,7.31-19.86,4.89-30.67-2.29-10.24-7.41-18.35-18.53-21.81Z"/>
  <path class="cls-1" d="M615,112.64c-33.96-33.7-21.35-90.66,23.82-106.64,25.48-9.02,50.93-8.36,74.78,5.43,18.39,10.64,28.65,27.29,31.24,48.38,3.89,31.67-15.02,62.38-50.86,70.57-22.34,5.11-44.23,3.6-64.75-7.47-5.05-2.72-9.41-6.72-14.22-10.26M643.29,55.07c.2,5.96-.05,11.99.71,17.88,1.32,10.28,4.54,19.98,10.97,28.35,6.64,8.65,15.61,11.16,25.66,7.05,7.57-3.1,12.28-9.07,15.46-16.31,5.41-12.33,6.26-25.18,3.87-38.32-1.57-8.65-4.55-16.7-10.43-23.43-11.32-12.95-30.98-11.24-39.9,3.45-3.89,6.4-5.58,13.46-6.33,21.32Z"/>
  <path class="cls-1" d="M1049.84.44c4.92,0,9.58.04,14.23-.02,2.27-.03,4.05.68,5.08,2.77,1.04,2.11.4,3.91-1,5.68-16.54,20.99-33.04,42.01-49.56,63.02-3.48,4.43-3.29,6.01.92,9.89,15.05,13.89,30.07,27.81,45.09,41.72.39.36.75.76,1.14,1.13,1.62,1.54,2.23,3.61,1.09,5.34-.91,1.38-2.8,2.92-4.3,2.97-9.12.27-18.26.25-27.38.02-1.55-.04-3.27-1.33-4.56-2.45-17.14-14.89-34.23-29.86-51.32-44.8-.4-.35-.84-.67-1.22-1.05-1.64-1.65-3.6-2-5.66-1.13-2.16.9-2.84,2.75-2.84,5.01.03,12.35.02,24.7.01,37.05,0,.72.03,1.43-.01,2.15-.18,3.42-2.02,5.31-5.42,5.33-10.38.05-20.76.05-31.15,0-3.4-.02-5.23-1.97-5.33-5.37-.01-.36,0-.72,0-1.07-.04-39.73-.09-79.47-.13-119.2,0-5.77,1.29-7.05,7.12-7.05,9.49,0,18.97,0,28.46,0,4.7,0,6.31,1.59,6.31,6.24,0,17,.02,34.01-.02,51.01,0,2.59.4,4.84,3.14,5.9,2.74,1.06,4.48-.35,6.24-2.28,16.89-18.57,33.83-37.09,50.77-55.62,1.02-1.12,1.95-2.41,3.19-3.24,1.34-.89,2.95-1.76,4.49-1.86,4.1-.25,8.23-.09,12.61-.09Z"/>
  <path class="cls-1" d="M257.39,10.91c2.67-3.11,5.09-6.21,7.84-8.97.93-.94,2.71-1.42,4.11-1.44,10.64-.12,21.29-.04,31.94-.08,2.15,0,3.86.59,4.89,2.59,1.08,2.1.51,3.93-.81,5.72-14.52,19.62-29.01,39.26-43.58,58.84-1.69,2.27-2.51,4.48-2.4,7.37.63,17.42,1.08,34.85,1.55,52.28.11,4.1-1.71,5.9-5.81,5.9-10.47.01-20.93.02-31.4,0-3.91,0-5.7-1.82-5.7-5.78-.04-17.89-.02-35.78-.16-53.67-.01-1.65-.59-3.54-1.53-4.89-13.63-19.7-27.37-39.32-41.07-58.96-.56-.81-1.18-1.59-1.62-2.46-1.63-3.23.44-6.85,4.06-6.9,8.14-.09,16.29-.17,24.42.1,1.54.05,3.47,1.42,4.48,2.74,7.81,10.23,15.43,20.6,23.12,30.92,3.37,4.52,6.33,4.51,9.77.03,5.93-7.74,11.85-15.47,17.91-23.35Z"/>
</svg>