<svg width="143" height="143" viewBox="0 0 143 143" fill="none" xmlns="http://www.w3.org/2000/svg">
<g clip-path="url(#clip0_1251_647)">
<path d="M21.7228 82.1179L38.3801 75.8835L39.6465 79.2929C31.7561 86.2092 30.1975 87.4755 29.5157 88.06C31.4639 87.1833 33.8992 86.2092 36.6267 85.235L41.205 83.4816L42.1792 86.1117L25.5218 92.3461L24.3529 89.1315C32.8277 81.9231 34.3862 80.5593 35.0681 80.0722C33.0225 80.9489 30.5872 81.923 27.6648 82.9946L22.7943 84.8454L21.7228 82.1179Z" fill="#0B21E3"/>
<path d="M46.0756 103.256C41.4973 107.932 38.2827 108.711 35.3604 105.886C32.6328 103.159 33.2173 99.9441 37.7956 95.171C42.374 90.3978 45.5886 90.203 48.3161 92.8331C51.141 95.5606 50.4591 98.8726 46.0756 103.256ZM40.2309 97.4114C37.3086 100.431 36.0422 102.672 37.3086 104.035C38.5749 105.399 40.718 104.133 43.8351 101.016C46.7575 98.0933 47.829 96.1451 46.3678 94.7813C44.9067 93.4176 42.9584 94.5865 40.2309 97.4114Z" fill="#0B21E3"/>
<path d="M55.0375 109.49L52.5048 116.601L49.485 115.53L55.4271 98.7751L60.5899 100.626C63.6097 101.697 64.7786 103.938 63.7071 106.86C62.8304 109.296 61.1744 109.88 60.2003 109.88C61.2718 110.952 61.4666 112.315 60.5899 114.751L60.3951 115.433C59.908 116.601 59.6158 117.77 59.421 119.037L56.4986 117.965C56.6935 116.699 56.9857 115.53 57.4728 114.361L57.6676 113.777C58.4469 111.536 58.252 110.562 56.3038 109.88L55.0375 109.49ZM55.9142 107.055L57.3753 107.542C59.2262 108.224 60.2003 107.64 60.7847 105.984C61.3692 104.912 60.9796 103.646 59.908 103.061C59.7132 102.964 59.5184 102.866 59.421 102.866L57.6676 102.282L55.9142 107.055Z" fill="#0B21E3"/>
<path d="M81.0463 112.51C80.6567 109.49 80.1696 106.081 79.9748 104.035H79.8774C79.78 107.445 79.5851 113.582 79.2929 119.426L76.468 119.816C74.812 114.653 72.9612 108.419 71.8896 105.107H71.7922C72.1819 107.153 72.7663 110.854 73.2534 113.874L74.1301 120.108L71.2078 120.498L68.6751 102.866L73.3508 102.185C75.0068 106.958 76.468 111.731 77.1499 114.264C77.1499 111.828 77.5395 106.373 77.8317 101.6L82.4101 100.918L84.9428 118.55L81.923 118.939L81.0463 112.51Z" fill="#0B21E3"/>
<path d="M94.7813 109.101L96.5347 113.29L93.9046 115.043L87.4755 97.8985L90.8849 95.6581L104.23 108.127L101.405 109.978L98.1907 106.763L94.7813 109.101ZM96.2425 104.815C93.8072 102.379 91.9564 100.529 90.7875 99.2623H90.6901C91.4693 100.723 92.4435 103.256 93.7098 106.373L96.2425 104.815Z" fill="#0B21E3"/>
<path d="M96.1451 90.9823L97.8985 88.3522L110.465 96.7296L113.874 91.6642L116.017 93.4176L111.049 100.918L96.1451 90.9823Z" fill="#0B21E3"/>
<path d="M71.5 143C32.0484 143 0 110.952 0 71.5C0 32.0484 32.0484 0 71.5 0C110.952 0 143 32.0484 143 71.5C142.903 110.952 110.952 142.903 71.5 143ZM71.5 3.4094C33.8992 3.4094 3.4094 33.8992 3.4094 71.5C3.4094 109.101 33.8992 139.591 71.5 139.591C109.101 139.591 139.591 109.101 139.591 71.5C139.493 33.8992 109.003 3.50681 71.5 3.4094Z" fill="#0B21E3"/>
<path d="M92.9305 47.0497C90.1056 34.2888 82.4101 25.6192 75.5913 27.0803C71.0129 28.0544 68.0906 33.4121 67.5061 40.6205C63.9019 34.3862 58.9339 30.8794 54.3556 31.8535C47.4394 33.4121 44.3222 44.6144 47.1471 57.2779C48.2187 62.7329 50.5565 67.7983 53.9659 72.1818C56.7909 75.5912 59.908 77.442 62.9278 77.442C63.5123 77.442 63.9993 77.3446 64.5838 77.2472C69.0647 76.1757 71.9871 70.9155 72.6689 63.707C73.4482 64.9734 74.2275 66.2397 75.2016 67.4087C78.0266 70.8181 81.1437 72.6689 84.1635 72.6689C84.748 72.6689 85.235 72.5715 85.8195 72.4741C89.3263 71.6948 91.9564 68.4802 93.2227 63.4148C94.3917 58.0572 94.2943 52.4073 92.9305 47.0497ZM76.3706 30.4897C76.6628 30.3923 76.955 30.3923 77.2473 30.3923C81.3386 30.3923 86.6962 36.3344 89.3263 46.173L71.5 50.1668C69.4544 39.4516 72.2793 31.3664 76.3706 30.4897ZM55.1349 35.2629C55.4271 35.1655 55.7193 35.1655 56.0116 35.1655C60.1029 35.1655 65.4605 41.1076 68.0906 50.9461L50.2643 54.94C48.2187 44.1273 51.0436 36.1396 55.1349 35.2629ZM63.9019 74.0326C61.7589 74.5197 59.1287 73.0585 56.6935 70.1362C56.0116 69.2595 55.3297 68.3828 54.7452 67.4087C56.4012 68.5776 58.5443 68.7724 60.3951 67.9931C63.6097 66.6294 64.876 62.6355 63.4148 59.1287C62.9278 57.9598 62.1485 56.8882 61.077 56.1089L68.7725 54.3555C70.7207 64.9734 67.9932 73.0585 63.9019 74.0326ZM89.9108 62.5381C88.9366 66.2397 87.1832 68.675 85.0402 69.1621C82.8971 69.6491 80.267 68.188 77.8317 65.2656C77.1499 64.3889 76.468 63.4148 75.8835 62.4407C77.5395 63.6096 79.78 63.9019 81.6308 63.1226C84.8454 61.7588 86.2091 57.7649 84.6505 54.2581C84.1635 53.0892 83.2868 52.0177 82.3127 51.141L89.9108 49.3875C90.8849 53.7711 90.7875 58.252 89.9108 62.5381Z" fill="#0B21E3"/>
</g>
<defs>
<clipPath id="clip0_1251_647">
<rect width="143" height="143" fill="white"/>
</clipPath>
</defs>
</svg>
