<?xml version="1.0" encoding="UTF-8"?>
<svg id="Layer_1" data-name="Layer 1" xmlns="http://www.w3.org/2000/svg" version="1.1" viewBox="0 0 283.9 291.8">
  <defs>
    <style>
      .cls-1 {
        fill: #232323;
        stroke-width: 0px;
      }
    </style>
  </defs>
  <path class="cls-1" d="M159.7,289.5c-5-3.6-10.1-6.6-14.3-10.5-7.8-7.2-15.3-14.9-22.7-22.6-5.3-5.5-12.5-7.5-18.8-5.6-27,8-47.6-3.5-65.7-21.1C11.5,203.7-.7,171.4,2.1,134.1c2.5-31.9,15.5-59.4,36.7-83.4,12-13.7,26-24.9,41.9-33.2,17-9,35.3-14.6,54.8-15.3,14.9-.5,29.7.5,43.9,5.1,26.3,8.6,48.3,22.9,61.8,48,7.8,14.6,9,30,4.1,45.9-.7,2.4-1.3,4.9-2.3,7.1-4.2,9.8-.2,17.4,6.6,24.2,9.8,9.8,18.7,20.2,26.1,32,4,6.3,4.5,12.7,2,19.5-1.4,3.9-4.5,4.6-8.1,3.7-3.9-1-8.5-2-10.2,2.2-1.4,3.2-.2,7.5-.1,11.4,0,.2.2.3.2.4,1,3,3.8,6.3.5,9.2-3.1,2.8-6.2.5-9-1.4-3.4-2.2-7-3-10.1,0-3.1,2.9-2.4,6.7-.8,10.2,1,2.1,2.3,4.1,3.3,6.2,1.5,3.2,1.2,6.1-1.4,8.7-2.6,2.6-5.4,2.1-8.3.7-2.4-1.1-4.7-2.6-7.2-3.3-6.1-1.8-10.4,2-9.4,8.2.5,3.1,1.8,6,3.1,8.9,2.1,4.5,1.2,7.8-2.6,11.4-8.7,8.3-11.6,9.2-20.1-.6-2.3-2.6-5.3-4.5-8.8-2.3-3.6,2.3-3.3,5.9-2,9.4.9,2.5,2.3,4.8,3.3,7.3,1.2,3.1,1.1,6.1-2.3,7.7-6,2.9-11.9,6-18.1,8.1-2.9,1-6.4,0-10-.2M207.3,126c1.4-2.7,2.8-5.3,4.1-8,4.3-8.8,1.3-26-10.2-31.7-17.5-8.6-42.5-4.2-49.4,22.1-2.8,10.8,1.2,26.3,16.2,30.3,15.8,4.3,28.4,0,39.2-12.8M133.9,172c-4-3.8-7.4-9.4-12.1-11.2-21-8.1-41,3.3-45.3,25.4-3.8,19.7,10.6,33.5,27.8,31.5,22.3-2.6,37-23.6,29.6-45.7M206.5,192.2c-8.6-8.4-19.2-13.6-29.9-18.4-1.9-.9-4.6,0-6.9,0,.3,2.5.5,5,.9,7.6,0,.5.4.9.7,1.3,4.9,6.9,9.4,14.1,14.7,20.6,5.7,7.1,13.3,11.1,22.8,9.2,7.3-1.5,9.3-7.6,4.5-13.5-1.9-2.3-4.1-4.3-6.7-6.9Z"/>
</svg>