<?xml version="1.0" encoding="UTF-8"?>
<svg id="Layer_1" data-name="Layer 1" xmlns="http://www.w3.org/2000/svg" version="1.1" viewBox="0 0 859 1054">
  <defs>
    <style>
      .cls-1 {
        fill: none;
      }

      .cls-1, .cls-2, .cls-3 {
        stroke-width: 0px;
      }

      .cls-2 {
        fill: #000;
      }

      .cls-3 {
        fill: #fff;
      }
    </style>
  </defs>
  <rect class="cls-3" x="228.64" y="346.36" width="401.73" height="401.73" rx="25.69" ry="25.69"/>
  <path class="cls-1" d="M859,1054H0V0c286.33,0,572.67,0,859,0v1054ZM840.02,554.07c-.42-56.25-8.7-111.35-25.58-165.1-9.29-29.61-20.4-58.49-34.26-86.25-12.36-24.77-26.43-48.54-42.31-71.26-28.97-41.45-63.16-77.87-103.83-107.95-44.66-33.03-93.88-56.17-148.79-66.33-4.04-.75-6.05-2.51-7.91-6.22-8.85-17.63-21.41-31.08-42.41-33.01-25.19-2.32-48.31,11.6-59.01,34.6-.92,1.97-3.53,3.79-5.71,4.41-9.59,2.73-19.37,4.76-28.96,7.46-45.07,12.68-84.75,35.98-122.15,63.33-38.89,28.44-72.18,62.58-100.22,101.82-29.71,41.57-54.12,85.91-71.07,134.25-23.53,67.09-34.27,136.11-31.95,207.15.31,9.65.78,19.31,1.32,28.95.32,5.64,2.34,7.55,6.78,6.71,39.51-7.48,78.99-15.07,118.53-22.4,5.81-1.08,9.11-4.13,11.1-9.36,13.04-34.33,26.18-68.62,39.14-102.98,2.4-6.35,5.3-12.84,5.96-19.46,3.72-37.78,6.82-75.62,10.17-113.43.56-6.31,1.93-7.64,8.16-7.31,21.95,1.16,43.89,2.58,65.85,3.64,3.31.16,7.05-.33,9.97-1.77,23.29-11.46,46.4-23.3,69.68-34.8,2.13-1.05,5.17-1.3,7.52-.76,44.04,10.28,88.03,20.78,132.08,31.05,2.5.58,5.61.18,8.02-.79,17.43-7.03,34.77-14.3,52.1-21.58,3.6-1.51,6.56-1.08,9.75,1.24,8.34,6.08,16.94,11.81,25.33,17.83,20.98,15.04,41.88,30.18,62.86,45.21,3.22,2.3,4.36,5.02,3.69,8.96-4.47,26.07-8.84,52.16-13.11,78.27-.32,1.98-.13,4.36.69,6.16,15.82,34.85,31.8,69.63,47.65,104.47,2.2,4.84,5.64,7.42,10.9,8.29,16.56,2.75,33.11,5.55,49.59,8.7,23.33,4.46,46.6,9.25,69.91,13.88,7.77,1.54,10.23-.1,10.44-8.12.32-12.48.08-24.98.08-37.47ZM427.99,1033.77c33.65.19,65.39-3.71,98.29-12.6,61.11-16.52,115.07-46.3,161.67-89.04,54.54-50.01,94.04-110.28,119.79-179.54,14.56-39.17,24.6-79.49,28.89-121.14,1.02-9.89-.66-11.88-10.48-13.43-14.93-2.36-29.84-4.83-44.71-7.54-25.8-4.71-51.61-9.44-77.32-14.61-6.32-1.27-10.09.98-13.52,5.62-6.93,9.37-14.09,18.58-20.93,28.02-2,2.75-3.79,5.87-4.77,9.1-5.82,19.26-11.25,38.63-17.03,57.9-8.89,29.63-17.99,59.2-26.93,88.82-1.05,3.46-2.4,5.25-6.65,4.58-35.32-5.63-70.67-11.06-106.04-16.39-2.07-.31-4.68.24-6.49,1.32-15.01,8.95-29.83,18.21-44.82,27.19-10.99,6.58-22.08,13-33.32,19.15-1.98,1.08-5.53,1.53-7.25.48-22.26-13.69-44.36-27.64-66.39-41.7-3.27-2.09-6.29-2.28-9.9-1.51-19.51,4.14-39.08,8.03-58.58,12.21-5.33,1.14-9.99.67-14.6-2.52-4.09-2.83-8.66-4.94-12.98-7.45-18.85-10.92-37.67-21.91-56.54-32.79-4.3-2.48-5.75-5.71-4.91-10.74,2.3-13.78,4.79-27.58,5.9-41.47.48-5.96-.64-13.2-3.78-18.1-14.63-22.84-30.17-45.09-45.51-67.47-2.59-3.78-6.16-5.67-11.14-4.57-7.94,1.75-15.98,3.09-23.98,4.54-29.12,5.28-58.22,10.62-87.37,15.71-4.56.8-5.83,3.26-5.51,7.21.28,3.48.73,6.96,1.27,10.41,10.76,67.66,32.54,131.42,67.55,190.47,29.86,50.36,67.8,93.52,115.5,127.66,66.49,47.58,140.76,71.66,222.59,72.22ZM425.01,658.22c0,.16,0,.31,0,.47,30.6,0,61.21,0,91.81,0,15.65,0,31.3-.02,46.95.12,3.7.03,5.96-1.51,5.92-5.09-.05-3.54-2.79-4.56-5.96-4.53-3.16.03-6.33.06-9.49.05-86.95-.01-173.89-.04-260.84-.01-3.48,0-7.04.14-10.4.92-1.52.35-3.56,2.37-3.67,3.76-.1,1.22,1.95,3.16,3.47,3.8,1.73.73,3.91.48,5.9.48,45.44.02,90.88.01,136.32.01ZM423.35,454.24c0,.16,0,.31,0,.47,27.28,0,54.55,0,81.83,0,19.31,0,38.62,0,57.93.09,3.53.02,5.91-1.77,5.39-4.88-.3-1.81-3.23-3.3-5.17-4.65-.67-.47-1.95-.07-2.95-.07-82.95-.04-165.9-.08-248.84-.09-8.49,0-17-.02-25.47.41-3.17.16-8.16-.37-7.84,4.71.3,4.85,5,3.96,8.31,3.97,45.61.06,91.21.04,136.82.04ZM449.15,614.31q8.15-1.11,10.77-10.22c3.48-.93,9.44,1.6,9.65-4.24.24-7.1-7.11-2.88-10.22-5.02v-11.1c5.58-.28,10.9-.36,16.16-.94,1.44-.16,2.7-1.84,4.05-2.82-1.31-.99-2.54-2.67-3.95-2.84-4.78-.58-9.63-.84-14.45-.83-20.98.07-41.97.25-62.95.45-3.07.03-7.8-1.78-7.85,3.26-.06,4.89,4.74,3.53,7.81,3.6,7.27.16,14.54.05,21.76.05v11.75c-3.71,1.51-9.76-1.13-9.95,4.74-.22,6.68,6.54,3.61,9.99,5.42-.34,4.91,1.37,7.87,6.75,7.58,2.75-.15,3.59,1.29,3.58,4.04-.02,5.77,1.62,7.25,7.4,7.57,8.98.49,10.46-.81,11.49-10.45ZM368.07,514.29c0,2.41,0,4.55,0,6.7,0,11.16,0,22.31-.04,33.47-.01,3.3.71,6.39,4.6,6.39,4.04,0,4.41-3.32,4.42-6.49,0-2.16-.06-4.33-.06-6.49,0-11.42,0-22.83,0-34.51,1.9-.21,4.29.09,6.07-.81,1.91-.96,4.34-2.92,4.58-4.7.42-3.15,1.67-3.79,4.41-3.9,4.15-.17,8.37-.29,12.37-1.25,1.73-.42,2.97-2.87,4.44-4.4-1.45-1.37-2.69-3.2-4.41-3.97-1.5-.67-3.53-.14-5.55-.14,0-4.92.12-9.39-.03-13.85-.18-5.09-2.66-7.89-7.68-7.96-5.81-.07-11.64.29-17.42.93-1.38.15-3.37,1.97-3.68,3.34-.72,3.23-2.35,4.28-5.48,4.51-5.33.38-7.38,2.66-7.52,7.95-.11,4.33.01,8.66.09,12.99.16,9.1,1.4,10.54,10.9,12.2ZM492.57,513.2c0,5.94.05,11.89-.01,17.83-.09,9.48-.32,18.96-.33,28.44,0,3,1.06,6.31,4.55,5.73,1.68-.28,3.16-3.51,4.12-5.68.61-1.39.06-3.28.11-4.94.38-13.76.78-27.52,1.16-41.19,10.02-1.25,10.13-1.26,9.77-11.2-.17-4.64-.79-9.26-1.31-13.88-.36-3.25-2.24-5.26-5.56-5.25-3.42,0-4.87-1.72-5-4.83-.17-4.15-2.63-5.33-6.32-5.26-3.82.08-7.64,0-11.46.01-7.64.02-10.12,2.52-10.05,10.08.01,1.5-.15,3.01,0,4.49.52,5.05-1.56,7.43-6.77,7.19-2.8-.13-5.76.56-5.55,4.16.24,4.06,3.6,3.53,6.44,3.51,5.09-.03,10.18,0,15.25,0q.61,9.41,10.94,10.8ZM274.23,713.08c-1.19,8.8,1.73,13.61,10.79,16.64,7.78,2.61,15.65,2.58,23.58.57,10.96-2.78,15.73-8.35,16.35-19.59.17-2.98.47-6.1-.16-8.96-1.13-5.12-.84-9.8,1.67-14.46.56-1.03.34-3.25-.43-4-.71-.7-2.74-.53-3.99-.13-4.73,1.5-9.55,2.9-13.99,5.05-2.34,1.14-3.96,3.76-5.91,5.71,1.63,1.35,3.08,3.1,4.94,3.96,3.58,1.66,5.93,5.75,3.42,7.68-2.73,2.1-6.78,2.97-10.36,3.33-3.05.31-5.14-1.76-5.2-5.35-.02-.99-1.21-1.96-1.86-2.94-.99.78-2.34,1.35-2.92,2.37-2.07,3.64.53,9.28,4.99,10.89,5.86,2.12,11.46,1.21,16.74-1.93,3.33-1.98,4.74-5.02,4.51-8.82-.25-4.14-1.94-7.35-6.07-8.86-1.41-.51-2.81-1.04-4.37-1.62,4.43-.47,8.48-.9,12.22-1.3.43,4.68.83,9.26,1.26,13.84,1.14,11.99-4.3,18.75-16.22,19.92-2.97.29-5.99.41-8.96.24-9.34-.53-16.35-3.47-15.97-14.1.51-.29,1.08-.6,1.65-.93,3.33-1.93,4.41-7.23,2.17-10.61-2.08-3.14-5.41-3.34-9.1-.53-.66.5-1.38,1.01-1.84,1.67-1.99,2.87-3.89,5.81-5.83,8.72,2.92,1.16,5.83,2.33,8.9,3.55ZM480.9,528.82c-.29-1.48-.2-2.99-.86-4.03-1.29-2.03-2.9-5.28-4.55-5.39-4.72-.32-9.98-2.37-14.17,1.78-.5.5-.69,1.57-.63,2.35.2,2.89-1.55,3.25-3.86,3.97-2.45.76-6.02,2.34-6.47,4.2-1.02,4.21-.73,8.84-.29,13.24.14,1.4,2.38,3.57,3.73,3.62,1.44.06,3.37-1.7,4.32-3.17.8-1.24.25-3.26.76-4.79.38-1.15,1.41-2.86,2.28-2.94,2.78-.26,5.65-.08,8.42.36.89.14,2.17,1.59,2.22,2.5.14,2.73-.23,5.49-.39,8-3.53.56-6.72.75-9.67,1.68-1.2.38-2.57,2.28-2.66,3.58-.1,1.3.95,3.29,2.1,3.97,9.1,5.43,17.87,1.53,19.26-8.38q9.9-1.64,9.7-11.94c-.13-6.69-1.08-7.62-9.22-8.62ZM398.97,547.84c.19,4.4,0,9.32,5.42,10,4.02.5,8.28-.21,12.31-.98,1.27-.24,3.15-2.6,2.98-3.73-.23-1.52-1.93-3.47-3.43-3.99-2.75-.95-5.81-.98-9.24-1.46,0-2.75-.34-5.45.15-7.98.23-1.17,1.94-2.52,3.24-2.91,1.85-.56,3.98-.11,5.92-.47,3.18-.58,4.32.83,4.32,3.75,0,.99-.37,2.31.12,2.92,1.3,1.63,2.98,2.96,4.5,4.42,1.27-1.51,3.22-2.86,3.64-4.58.62-2.51-.04-5.3.17-7.94.41-5.17-1.78-7.88-6.98-8.19-2.38-.14-4.16-.88-4.05-3.85.12-3.46-2.27-4.58-5.19-4.77-2.32-.15-4.66,0-6.99.03-4.36.05-7.01,1.94-6.89,6.6.08,2.99-1.24,3.88-4.21,4.09-1.83.13-4.38,1.49-5.17,3.03-3.93,7.71.34,15.13,9.37,16.01ZM385.22,681.77c-8.79.63-16.61,3.16-23.8,7.63-6.83,4.24-8.69,9.36-6.35,17.01,1.36,4.44,2.72,8.89,4.37,13.23,2.87,7.53,6.35,8.91,14.25,8.42,7.85-.49,15.83-.16,23.66.65,6.71.7,11.21-.66,13.59-7.13,2.21-6,3.82-12.36,4.67-18.7,1.08-8.05-2.47-13.65-10.19-16.23-6.55-2.18-13.45-3.3-20.19-4.89ZM569.59,410.45c.15.24.31.48.46.71,2.24.14,4.49.27,6.73.41-.13-2.44.58-5.41-.55-7.23-4.74-7.6-9.96-14.91-15.19-22.18-.7-.97-2.48-1.17-3.75-1.73-.28,1.34-.67,2.66-.79,4.01-.07.73.32,1.51.49,2.17-5,3.31-9.71,6.41-14.41,9.55-7.58,5.07-7.9,6.12-4.59,14.52.1.25-.11.63-.12.7-1.45,2.84-7.51,2.61-4.8,7.25.49.84,5.08-.7,8.36-1.24,4.65,6.03,5.97,6.28,13.61,1.73,4.86-2.89,9.72-5.78,14.57-8.68ZM561.39,718.99c8.58,10.48,17.54,12.85,26.68,7.05,8.39-5.32,11.51-15.58,7.43-24.44-4.66-10.14-13.33-12.54-28.01-7.74-6.88-9.42-15.86-11.95-24.51-6.93-8.12,4.72-11.34,14.41-7.61,22.89,4.31,9.8,13.91,13.18,26.01,9.16ZM460.78,710.8c3.92-3.65,7.38-6.5,10.39-9.76,3.33-3.63,2.68-5.84-1.81-8.02-5.58-2.71-14.11-1.06-19.39,4.03-5.17,4.98-7.34,11.04-5.23,18.13,2.08,6.99,6.85,11.44,13.99,12.66,6.63,1.14,13.03.3,17.58-5.54,2.99-3.84,2.6-5.2-1.86-6.84-4.14-1.53-8.35-2.86-13.68-4.67ZM282.67,383.29c-.53.04-1.05.09-1.58.13-.64-2.19-1.16-4.42-1.98-6.54-.3-.77-1.31-1.74-2.01-1.75-.64,0-1.83,1.12-1.86,1.8-.34,6.66-.94,13.63,4.5,18.69,3.95,3.67,4.05,7.52,2.71,12.18-.81,2.82-1.43,5.86-1.28,8.76.23,4.4,5.41,7.6,8.56,5.1,1.82-1.45,2.82-5.05,2.69-7.61-.42-8.11-1.41-15.87,3.05-23.65,1.91-3.33.61-8.59.43-12.96-.04-.85-1.68-1.63-2.58-2.44-.72.98-1.8,1.88-2.06,2.97-.42,1.78-.29,3.68-.39,5.53-.43.02-.85.04-1.28.07-.45-2.82-.64-5.72-1.45-8.43-.38-1.26-1.96-2.16-3-3.22-.82,1.24-2.15,2.4-2.36,3.73-.38,2.5-.11,5.09-.11,7.64ZM503.12,386.92c-2.14-2.77-3.48-6.09-5.07-6.23-3.13-.26-7.22.31-9.48,2.22-10.12,8.58-19.68,17.82-29.61,26.62-1.25,1.11-3.58,1.55-5.35,1.41-3.17-.25-5.04,1.48-4.15,3.86,1,2.67,3.51,4.92,5.79,6.84.45.38,4.25-1.8,4.15-2.44-.49-3.26,1.85-3.84,3.74-4.96,10.99-6.51,22.08-12.84,32.89-19.63,2.69-1.69,4.49-4.81,7.08-7.7ZM315.63,393.42l.76-.07c-.57-5.28-.83-10.61-1.86-15.8-.34-1.7-2.58-4.07-4.11-4.19-1.39-.11-3.89,2.18-4.32,3.83-1.94,7.35-3.46,14.82-4.75,22.31-.26,1.53.61,3.95,1.8,4.91,3.92,3.14,5.85,6.59,3.84,11.58-.23.57-.25,1.48.05,1.95.91,1.42,1.94,3.7,3.09,3.81,1.51.14,3.97-1.1,4.61-2.42,1.24-2.6,2.06-5.66,2.05-8.53-.03-5.8-.73-11.59-1.15-17.38ZM503.72,702.64l-1.44.25c-2.63-3.21-5.14-6.54-7.96-9.58-.8-.87-2.48-.93-3.76-1.36-.12,1.2-.44,2.43-.32,3.61.3,2.83.81,5.63,1.24,8.44-2.2-.57-3.19-1.62-4.31-2.48-1.37-1.05-2.85-1.95-4.28-2.91-.61,1.64-1.23,3.28-1.64,4.38-2.19-.42-4.68-.89-6.69-1.27,2.18,3.94,3.91,7.24,5.83,10.43.53.87,1.63,1.89,2.48,1.91.71.01,1.69-1.24,2.09-2.15.61-1.38.82-2.93,1.2-4.41,1.97,1.98,2.75,4.08,3.74,6.08.63,1.28,1.58,2.41,2.38,3.6.88-1.38,2.22-2.67,2.52-4.17.57-2.81.53-5.74.75-8.63.64-.06,1.28-.11,1.92-.17.65,3.61,1.21,7.24,2,10.81.38,1.7,1.22,3.31,1.86,4.95,1.39-1.29,3.42-2.33,4.05-3.92,1.4-3.51,2.92-7.31,2.91-10.99-.02-4.97-1.1-10.03-2.42-14.86-.47-1.72-2.96-2.88-4.54-4.3l-1.23.88c1.2,5.28,2.4,10.56,3.61,15.85ZM378.44,412.09c.2-.28.39-.55.59-.83-1.32-1.55-3.34-2.92-3.81-4.69-1.06-3.99-2.51-8.45-1.63-12.21.82-3.54,5.06-2.53,8.26-1.68.96.25,2.2-.83,3.28-.77,2.75.15,5.84-.08,8.14,1.11,3.18,1.64,3.51,5.11,2.28,8.36-.93,2.46-2.39,4.71-3.38,7.16-.43,1.05-.27,2.35-.37,3.53,1.14-.28,2.59-.21,3.38-.9,5.84-5.1,6.68-18.95,1.57-24.87-4.57-5.3-10.67-5.99-16.88-4.55-7.01,1.63-10.22,7.08-11.2,13.8-.96,6.52,2.18,11.56,6.74,15.8.67.63,2.02.52,3.06.75ZM457.69,373.07c-6.62-.09-12.52,5.33-12.58,11.54-.06,6.92,6,13.21,12.84,13.32,6.61.1,11.84-4.83,12.01-11.33.18-7.43-5.27-13.44-12.27-13.54ZM434.4,492s0-.02,0-.02c6.64,0,13.3.22,19.91-.16,1.57-.09,3.03-2.24,4.54-3.44-1.35-1.2-2.67-2.41-4.05-3.57-.21-.18-.64-.12-.97-.12-13.27.06-26.53.02-39.8.33-1.38.03-2.72,2.17-4.07,3.33,1.51,1.22,2.96,3.39,4.53,3.49,6.62.39,13.27.17,19.91.17ZM588.85,401.06c.72-.25,1.43-.51,2.15-.76,0-1.65.57-3.59-.1-4.9-3.59-7.01-7.41-13.9-11.4-20.69-.49-.83-2.49-.76-3.79-1.11-.35,1.33-1.41,3.07-.92,3.92,4.53,7.93,9.34,15.71,14.06,23.53ZM275.03,696.69c1.3-2.47,2.13-4.2,3.1-5.86,3.93-6.74,9.46-7.39,14.58-1.75.78.86,1.47,2.04,2.46,2.43,1.19.47,2.87.7,3.9.18.6-.3.92-2.73.37-3.45-2.76-3.65-5.14-8.02-10.59-8.2-5.79-.19-10.47,2.04-13.39,7.07-1.46,2.52-3.74,5.3-.43,9.57ZM379.8,394.63c-2.66.77-4.49,2.68-3.21,5.69,1.35,3.15,3.42,6.03,5.52,8.78.6.79,2.46,1.14,3.58.92,3.65-.74,7.56-10.18,5.64-13.5-.51-.88-1.68-1.37-2.55-2.04-.58.85-1.34,1.64-1.71,2.58-.76,1.95-1.32,3.98-1.95,5.98l-1.4.23c-1.21-2.65-2.41-5.31-3.93-8.63ZM569.39,380.37c-.55,1.4-1.69,2.87-1.32,3.61,2.37,4.87,4.91,9.68,7.79,14.27.54.86,3.54,1.31,4.19.68,1.02-.98,1.88-3.59,1.28-4.54-2.72-4.32-5.95-8.33-9.08-12.39-.45-.59-1.38-.81-2.85-1.63ZM389.08,570.01c0-.79,0-1.58,0-2.38-2.14-1.52-4.14-4-6.44-4.32-3.27-.46-5.53,2.04-5.52,5.56.01,3.53,2.39,5.98,5.58,5.56,2.28-.31,4.27-2.86,6.39-4.42ZM409.86,611.9c-.01-.8-.03-1.59-.04-2.39-2.08-1.41-4.06-3.76-6.27-4-3.3-.36-5.45,2.13-5.47,5.65-.02,3.41,2.1,5.67,5.27,5.02,2.36-.49,4.35-2.79,6.51-4.28ZM480.87,613.28c.06-.77.12-1.53.19-2.3-1.86-1.65-3.48-4.15-5.62-4.74-3.08-.84-5.34,1.26-5.62,4.62-.27,3.26,1.39,5.88,4.6,5.74,2.19-.1,4.3-2.15,6.45-3.32ZM385.59,415c0-.09,0-.19,0-.28-1.98,0-4.06-.37-5.91.13-1.27.34-2.23,1.87-3.33,2.86,1.2.86,2.34,2.35,3.6,2.45,2.77.24,5.65.05,8.38-.49,1.92-.38,3.66-1.61,5.49-2.46-1.92-.74-3.81-1.55-5.77-2.17-.75-.24-1.64-.04-2.47-.04ZM424.27,625.51c-.69.04-1.38.09-2.07.13-1.09,1.88-2.84,3.68-3.12,5.67-.42,3.04,1.79,5.46,4.72,4.72,1.92-.48,4.47-3.18,4.53-4.97.06-1.8-2.6-3.7-4.07-5.56ZM485.74,576.55c.74,0,1.47,0,2.21,0,1.29-1.97,3.6-3.98,3.54-5.91-.05-1.61-2.66-4.04-4.53-4.49-2.97-.72-5.34,1.48-4.84,4.56.34,2.09,2.35,3.91,3.62,5.85ZM459.97,632.82c.02-.77.04-1.55.06-2.32-1.94-1.28-3.96-3.66-5.8-3.53-1.77.12-4.81,3.01-4.66,4.4.21,1.95,2.68,4.82,4.51,5.09,1.75.26,3.91-2.31,5.89-3.64ZM386.09,421.17c-2.92,1.02-5.3,1.75-7.55,2.77-.29.13-.07,2.52.18,2.58,2.59.54,5.29,1.32,7.83,1,2.28-.29,4.4-1.89,6.58-2.9-2.32-1.13-4.64-2.26-7.05-3.44ZM405.22,417.84c2.12-2.71,4.28-4.27,4.21-5.72-.08-1.44-2.4-2.76-3.74-4.14-1.36,1.38-3.44,2.58-3.84,4.21-.29,1.17,1.63,2.9,3.38,5.65ZM408.29,393.74c-1.56,2.77-3.14,4.33-3.05,5.79.07,1.19,2.14,2.26,3.33,3.38,1.15-1.35,2.97-2.58,3.22-4.08.19-1.11-1.67-2.56-3.5-5.09ZM411.66,385.35c-2.46-1.62-3.91-3.33-5.08-3.15-1.29.19-2.31,2.11-3.45,3.28,1.18,1.14,2.27,3.04,3.58,3.21,1.15.15,2.56-1.62,4.96-3.34ZM359.41,404.24c1.65-2.5,3.18-3.85,3.24-5.25.04-1.02-2.07-3.11-2.88-2.96-1.37.27-3.27,1.81-3.45,3.04-.18,1.2,1.51,2.68,3.09,5.17ZM368.65,411.93c-2.55-1.38-3.98-2.8-5.25-2.66-1.13.12-3.11,2.34-2.88,2.97.5,1.39,2.06,3.11,3.37,3.28,1.09.14,2.44-1.74,4.76-3.6ZM384.2,376.92c1.2-2.11,2.53-3.42,2.46-4.66-.05-.96-1.84-1.83-2.86-2.75-.94,1.15-2.44,2.23-2.62,3.49-.13.91,1.51,2.06,3.01,3.92ZM360.7,390c1.51-2.12,2.95-3.28,3.02-4.53.06-.98-1.57-2.06-2.45-3.09-1.09.98-2.86,1.83-3.08,2.99-.21,1.06,1.24,2.44,2.51,4.63ZM399.49,372.81c-1.43,1.96-2.89,3.1-2.76,4.03.14,1.02,1.6,2.24,2.74,2.6.52.16,2.26-1.49,2.31-2.37.05-1.07-1.11-2.21-2.28-4.25ZM369.02,380.19c1.18-1.7,2.48-2.76,2.34-3.58-.16-.93-1.62-2.3-2.47-2.27-.89.03-2.31,1.43-2.43,2.36-.1.83,1.27,1.83,2.56,3.49Z"/>
  <path class="cls-2" d="M843.66,554.07c0,12.49.24,24.99-.08,37.47-.21,8.02-2.67,9.66-10.44,8.12-23.3-4.63-46.57-9.42-69.91-13.88-16.48-3.15-33.03-5.95-49.59-8.7-5.26-.87-8.7-3.45-10.9-8.29-15.86-34.84-31.83-69.61-47.65-104.47-.82-1.8-1.01-4.18-.69-6.16,4.27-26.1,8.65-52.19,13.11-78.27.68-3.94-.47-6.66-3.69-8.96-20.98-15.03-41.89-30.17-62.86-45.21-8.39-6.02-16.99-11.74-25.33-17.83-3.19-2.32-6.15-2.75-9.75-1.24-17.33,7.28-34.67,14.54-52.1,21.58-2.41.97-5.53,1.37-8.02.79-44.05-10.27-88.04-20.77-132.08-31.05-2.35-.55-5.38-.3-7.52.76-23.27,11.5-46.38,23.33-69.68,34.8-2.93,1.44-6.66,1.93-9.97,1.77-21.96-1.06-43.9-2.48-65.85-3.64-6.23-.33-7.6,1-8.16,7.31-3.35,37.81-6.45,75.65-10.17,113.43-.65,6.62-3.56,13.11-5.96,19.46-12.96,34.36-26.1,68.65-39.14,102.98-1.99,5.23-5.29,8.29-11.1,9.36-39.53,7.33-79.02,14.92-118.53,22.4-4.44.84-6.47-1.07-6.78-6.71-.54-9.64-1.01-19.3-1.32-28.95-2.32-71.05,8.42-140.07,31.95-207.15,16.96-48.34,41.36-92.67,71.07-134.25,28.04-39.24,61.33-73.39,100.22-101.82,37.4-27.35,77.08-50.65,122.15-63.33,9.59-2.7,19.38-4.73,28.96-7.46,2.18-.62,4.8-2.44,5.71-4.41,10.7-23,33.82-36.92,59.01-34.6,21,1.94,33.56,15.38,42.41,33.01,1.86,3.71,3.86,5.47,7.91,6.22,54.91,10.16,104.13,33.3,148.79,66.33,40.67,30.08,74.87,66.51,103.83,107.95,15.88,22.72,29.95,46.49,42.31,71.26,13.86,27.77,24.96,56.65,34.26,86.25,16.87,53.75,25.16,108.85,25.58,165.1ZM431.15,54.91c-10.63-.14-19.58,5.47-21.72,12.86-3.96,13.7,7.27,25.26,22.9,23.55,15.98-1.74,22.71-15.08,14.57-28.78-3.88-6.54-10.5-6.83-15.75-7.64Z"/>
  <path class="cls-2" d="M431.63,1033.77c-81.83-.56-156.1-24.64-222.59-72.22-47.71-34.13-85.65-77.29-115.5-127.66-35.01-59.05-56.78-122.81-67.55-190.47-.55-3.45-.99-6.93-1.27-10.41-.32-3.95.95-6.42,5.51-7.21,29.15-5.1,58.25-10.43,87.37-15.71,8.01-1.45,16.04-2.8,23.98-4.54,4.98-1.09,8.55.8,11.14,4.57,15.33,22.38,30.88,44.64,45.51,67.47,3.14,4.9,4.26,12.14,3.78,18.1-1.12,13.89-3.6,27.69-5.9,41.47-.84,5.03.61,8.26,4.91,10.74,18.88,10.88,37.69,21.86,56.54,32.79,4.32,2.5,8.9,4.62,12.98,7.45,4.61,3.19,9.26,3.67,14.6,2.52,19.5-4.17,39.07-8.07,58.58-12.21,3.61-.76,6.62-.58,9.9,1.51,22.03,14.06,44.13,28.01,66.39,41.7,1.72,1.06,5.28.61,7.25-.48,11.23-6.15,22.33-12.57,33.32-19.15,14.99-8.97,29.81-18.24,44.82-27.19,1.81-1.08,4.42-1.63,6.49-1.32,35.37,5.33,70.72,10.76,106.04,16.39,4.25.68,5.6-1.11,6.65-4.58,8.94-29.62,18.04-59.19,26.93-88.82,5.78-19.27,11.21-38.64,17.03-57.9.97-3.23,2.77-6.35,4.77-9.1,6.84-9.43,14-18.64,20.93-28.02,3.43-4.64,7.2-6.89,13.52-5.62,25.71,5.17,51.52,9.9,77.32,14.61,14.87,2.71,29.78,5.18,44.71,7.54,9.82,1.55,11.49,3.54,10.48,13.43-4.29,41.66-14.33,81.97-28.89,121.14-25.75,69.26-65.25,129.52-119.79,179.54-46.61,42.74-100.56,72.52-161.67,89.04-32.9,8.89-64.64,12.79-98.29,12.6ZM519.39,895.09c.05,19.25,14.93,34.84,33.28,34.88,18.39.05,32.79-15.64,32.77-35.69-.02-18.06-15.11-33.09-33.21-33.08-19.26.01-32.9,14.08-32.84,33.89ZM299.64,927.15c18.68.13,33.34-14.09,33.42-32.41.09-18.63-15.3-34.2-33.82-34.22-17.1-.02-32.24,16.88-31.4,36.59.79,18.57,15.62,30.13,31.8,30.04ZM426.34,958.01c20.35.03,36.34-16.46,34.76-35.6-2-24.12-30.34-35.79-53.2-22.67-12.6,7.23-17.55,21.75-13.58,35.03,4.2,14.03,16.85,23.21,32.02,23.24Z"/>
  <path class="cls-2" d="M425.01,658.22c-45.44,0-90.88,0-136.32-.01-1.99,0-4.17.25-5.9-.48-1.52-.64-3.56-2.59-3.47-3.8.11-1.4,2.15-3.41,3.67-3.76,3.36-.78,6.92-.92,10.4-.92,86.95-.03,173.89,0,260.84.01,3.16,0,6.33-.03,9.49-.05,3.18-.03,5.92.99,5.96,4.53.05,3.58-2.21,5.12-5.92,5.09-15.65-.13-31.3-.11-46.95-.12-30.6-.01-61.21,0-91.81,0,0-.16,0-.31,0-.47Z"/>
  <path class="cls-2" d="M423.35,454.24c-45.61,0-91.21.02-136.82-.04-3.31,0-8.01.88-8.31-3.97-.32-5.08,4.68-4.54,7.84-4.71,8.48-.43,16.98-.41,25.47-.41,82.95.01,165.9.06,248.84.09,1,0,2.27-.4,2.95.07,1.94,1.35,4.87,2.84,5.17,4.65.52,3.11-1.85,4.89-5.39,4.88-19.31-.1-38.62-.08-57.93-.09-27.28,0-54.55,0-81.83,0,0-.16,0-.31,0-.47Z"/>
  <path class="cls-2" d="M449.15,614.31c-1.03,9.63-2.51,10.94-11.49,10.45-5.78-.32-7.42-1.8-7.4-7.57.01-2.75-.83-4.19-3.58-4.04-5.38.29-7.09-2.68-6.75-7.58-3.45-1.8-10.21,1.26-9.99-5.42.19-5.87,6.23-3.23,9.95-4.74v-11.75c-7.21,0-14.49.11-21.76-.05-3.07-.07-7.87,1.3-7.81-3.6.06-5.04,4.79-3.23,7.85-3.26,20.98-.19,41.97-.38,62.95-.45,4.82-.02,9.67.25,14.45.83,1.41.17,2.64,1.85,3.95,2.84-1.34.98-2.61,2.66-4.05,2.82-5.26.58-10.58.66-16.16.94v11.1c3.11,2.13,10.47-2.08,10.22,5.02-.2,5.84-6.16,3.31-9.65,4.24q-2.61,9.11-10.77,10.22Z"/>
  <path class="cls-2" d="M368.07,514.29c-9.5-1.66-10.74-3.1-10.9-12.2-.07-4.33-.2-8.66-.09-12.99.14-5.3,2.2-7.57,7.52-7.95,3.13-.22,4.75-1.28,5.48-4.51.31-1.37,2.29-3.19,3.68-3.34,5.77-.64,11.61-1,17.42-.93,5.02.06,7.51,2.86,7.68,7.96.15,4.46.03,8.93.03,13.85,2.02,0,4.05-.53,5.55.14,1.72.77,2.96,2.6,4.41,3.97-1.46,1.53-2.71,3.98-4.44,4.4-4,.96-8.22,1.09-12.37,1.25-2.74.11-3.99.75-4.41,3.9-.24,1.78-2.67,3.74-4.58,4.7-1.79.9-4.18.61-6.07.81,0,11.68,0,23.09,0,34.51,0,2.16.07,4.33.06,6.49,0,3.17-.38,6.49-4.42,6.49-3.89,0-4.61-3.09-4.6-6.39.04-11.16.03-22.31.04-33.47,0-2.15,0-4.29,0-6.7Z"/>
  <path class="cls-2" d="M492.57,513.2q-10.33-1.39-10.94-10.8c-5.08,0-10.17-.02-15.25,0-2.84.02-6.2.55-6.44-3.51-.22-3.6,2.74-4.29,5.55-4.16,5.21.24,7.28-2.14,6.77-7.19-.15-1.48.01-2.99,0-4.49-.07-7.56,2.41-10.06,10.05-10.08,3.82-.01,7.64.07,11.46-.01,3.69-.08,6.14,1.11,6.32,5.26.13,3.12,1.58,4.84,5,4.83,3.32,0,5.2,2,5.56,5.25.52,4.62,1.14,9.25,1.31,13.88.36,9.94.25,9.94-9.77,11.2-.39,13.67-.79,27.43-1.16,41.19-.05,1.66.51,3.55-.11,4.94-.96,2.17-2.45,5.4-4.12,5.68-3.49.58-4.55-2.73-4.55-5.73.02-9.48.24-18.96.33-28.44.06-5.94.01-11.89.01-17.83Z"/>
  <path class="cls-2" d="M274.23,713.08c-3.07-1.22-5.98-2.39-8.9-3.55,1.94-2.91,3.84-5.84,5.83-8.72.46-.66,1.18-1.17,1.84-1.67,3.69-2.81,7.02-2.6,9.1.53,2.24,3.38,1.17,8.67-2.17,10.61-.56.33-1.14.64-1.65.93-.38,10.64,6.63,13.57,15.97,14.1,2.98.17,6,.05,8.96-.24,11.92-1.17,17.36-7.93,16.22-19.92-.44-4.58-.84-9.16-1.26-13.84-3.74.4-7.79.83-12.22,1.3,1.56.58,2.96,1.11,4.37,1.62,4.14,1.51,5.82,4.72,6.07,8.86.23,3.8-1.18,6.85-4.51,8.82-5.28,3.14-10.87,4.05-16.74,1.93-4.46-1.61-7.06-7.25-4.99-10.89.58-1.02,1.93-1.59,2.92-2.37.65.98,1.85,1.95,1.86,2.94.06,3.59,2.16,5.66,5.2,5.35,3.58-.36,7.63-1.23,10.36-3.33,2.51-1.93.16-6.02-3.42-7.68-1.86-.86-3.31-2.61-4.94-3.96,1.95-1.95,3.57-4.57,5.91-5.71,4.44-2.15,9.26-3.55,13.99-5.05,1.25-.4,3.28-.57,3.99.13.76.75.98,2.97.43,4-2.51,4.67-2.8,9.34-1.67,14.46.63,2.86.32,5.97.16,8.96-.63,11.24-5.39,16.81-16.35,19.59-7.94,2.01-15.8,2.04-23.58-.57-9.05-3.03-11.98-7.84-10.79-16.64ZM280.89,704.78c-3.35-3.93-4.29-3.63-8.52,2.62,3.14-.96,5.55-1.7,8.52-2.62Z"/>
  <path class="cls-2" d="M480.9,528.82c8.14.99,9.08,1.93,9.22,8.62q.21,10.3-9.7,11.94c-1.39,9.91-10.15,13.81-19.26,8.38-1.15-.68-2.2-2.68-2.1-3.97.1-1.3,1.46-3.21,2.66-3.58,2.96-.92,6.14-1.12,9.67-1.68.16-2.51.54-5.27.39-8-.05-.91-1.33-2.36-2.22-2.5-2.77-.44-5.64-.62-8.42-.36-.87.08-1.9,1.79-2.28,2.94-.51,1.53.04,3.55-.76,4.79-.95,1.46-2.88,3.23-4.32,3.17-1.35-.05-3.59-2.22-3.73-3.62-.44-4.39-.73-9.03.29-13.24.45-1.86,4.02-3.44,6.47-4.2,2.31-.72,4.07-1.07,3.86-3.97-.05-.78.13-1.85.63-2.35,4.19-4.15,9.45-2.1,14.17-1.78,1.66.11,3.26,3.36,4.55,5.39.66,1.03.57,2.54.86,4.03Z"/>
  <path class="cls-2" d="M398.97,547.84c-9.03-.88-13.3-8.3-9.37-16.01.79-1.54,3.34-2.9,5.17-3.03,2.97-.21,4.28-1.1,4.21-4.09-.12-4.66,2.53-6.56,6.89-6.6,2.33-.03,4.67-.18,6.99-.03,2.92.19,5.31,1.32,5.19,4.77-.1,2.97,1.67,3.71,4.05,3.85,5.2.31,7.4,3.02,6.98,8.19-.21,2.64.45,5.44-.17,7.94-.43,1.72-2.37,3.07-3.64,4.58-1.53-1.45-3.2-2.78-4.5-4.42-.49-.62-.12-1.93-.12-2.92,0-2.92-1.14-4.33-4.32-3.75-1.94.36-4.07-.1-5.92.47-1.3.4-3.01,1.74-3.24,2.91-.49,2.54-.15,5.23-.15,7.98,3.43.48,6.49.51,9.24,1.46,1.5.52,3.2,2.47,3.43,3.99.17,1.12-1.71,3.49-2.98,3.73-4.03.78-8.29,1.48-12.31.98-5.42-.68-5.23-5.6-5.42-10Z"/>
  <path class="cls-2" d="M385.22,681.77c6.74,1.59,13.64,2.71,20.19,4.89,7.72,2.57,11.27,8.18,10.19,16.23-.85,6.34-2.46,12.7-4.67,18.7-2.38,6.47-6.88,7.83-13.59,7.13-7.83-.82-15.81-1.14-23.66-.65-7.9.49-11.38-.89-14.25-8.42-1.65-4.34-3.01-8.79-4.37-13.23-2.34-7.65-.48-12.77,6.35-17.01,7.2-4.47,15.01-7,23.8-7.63ZM384.63,686.51c-.09.43-.18.86-.27,1.28-8-.83-14.71,2.08-20.69,7-3.07,2.53-4.57,5.54-2.7,9.61,1.93,4.21,3.85,8.46,5.32,12.84,1.19,3.57,3.32,4.58,6.78,4.06,8.74-1.32,17.45-1.74,26.14.67,3.35.93,6.08-.49,7.01-3.88,1.48-5.38,2.78-10.83,3.78-16.31.88-4.81-1.64-8.19-6-9.66-6.36-2.15-12.9-3.77-19.36-5.61Z"/>
  <path class="cls-2" d="M569.59,410.45c-4.86,2.89-9.72,5.78-14.57,8.68-7.64,4.55-8.96,4.3-13.61-1.73-3.28.54-7.87,2.08-8.36,1.24-2.7-4.64,3.35-4.41,4.8-7.25.01-.08.22-.45.12-.7-3.3-8.4-2.98-9.46,4.59-14.52,4.69-3.14,9.41-6.24,14.41-9.55-.16-.66-.55-1.44-.49-2.17.12-1.35.51-2.68.79-4.01,1.28.56,3.06.75,3.75,1.73,5.23,7.28,10.46,14.58,15.19,22.18,1.13,1.82.42,4.79.55,7.23-2.24-.14-4.49-.27-6.73-.41-.15-.24-.31-.48-.46-.71ZM559.87,392.44c-2.45,2.11-4.27,3.68-6.2,5.35,2.43,3.29,4.54,6.16,6.79,9.2,2.06-1.36,3.77-2.48,5.51-3.63-2.09-3.75-3.93-7.04-6.1-10.92Z"/>
  <path class="cls-2" d="M561.39,718.99c-12.1,4.02-21.69.64-26.01-9.16-3.73-8.48-.51-18.17,7.61-22.89,8.65-5.03,17.63-2.49,24.51,6.93,14.67-4.8,23.34-2.4,28.01,7.74,4.08,8.87.96,19.13-7.43,24.44-9.14,5.8-18.1,3.43-26.68-7.05ZM550.56,690.83c-4.36-.2-8.17,2.28-10.15,6.94-2.03,4.75-1.35,9.47,2.19,13.45,3.34,3.76,9.02,5.33,13.63,3.07,4.49-2.21,7.1-1.39,9.87,2.77,3.71,5.59,11.64,8.09,16.57,6.06,7.73-3.18,11.57-12.33,8.11-19.32-3.45-6.97-12.14-9.21-19.72-4.73-3.49,2.06-5.74,2.28-8.05-1.63-2.48-4.2-6.41-6.65-12.45-6.61Z"/>
  <path class="cls-2" d="M460.78,710.8c5.32,1.81,9.53,3.14,13.68,4.67,4.46,1.64,4.85,3,1.86,6.84-4.55,5.83-10.95,6.67-17.58,5.54-7.14-1.22-11.91-5.67-13.99-12.66-2.11-7.09.05-13.15,5.23-18.13,5.28-5.09,13.81-6.74,19.39-4.03,4.49,2.18,5.14,4.4,1.81,8.02-3,3.26-6.46,6.11-10.39,9.76Z"/>
  <path class="cls-2" d="M282.67,383.29c0-2.55-.27-5.15.11-7.64.2-1.33,1.53-2.5,2.36-3.73,1.04,1.06,2.62,1.96,3,3.22.81,2.71,1,5.61,1.45,8.43.43-.02.85-.04,1.28-.07.1-1.85-.02-3.76.39-5.53.26-1.09,1.35-1.98,2.06-2.97.9.81,2.54,1.59,2.58,2.44.19,4.37,1.48,9.63-.43,12.96-4.46,7.78-3.47,15.55-3.05,23.65.13,2.56-.87,6.17-2.69,7.61-3.15,2.5-8.33-.69-8.56-5.1-.15-2.9.47-5.94,1.28-8.76,1.34-4.66,1.23-8.51-2.71-12.18-5.44-5.06-4.83-12.03-4.5-18.69.03-.68,1.22-1.81,1.86-1.8.7.01,1.71.97,2.01,1.75.82,2.12,1.34,4.35,1.98,6.54.53-.04,1.05-.09,1.58-.13Z"/>
  <path class="cls-2" d="M503.12,386.92c-2.59,2.89-4.39,6.01-7.08,7.7-10.81,6.78-21.9,13.12-32.89,19.63-1.9,1.12-4.24,1.7-3.74,4.96.1.64-3.7,2.82-4.15,2.44-2.28-1.92-4.78-4.17-5.79-6.84-.89-2.38.98-4.11,4.15-3.86,1.76.14,4.09-.3,5.35-1.41,9.94-8.8,19.49-18.04,29.61-26.62,2.26-1.91,6.35-2.48,9.48-2.22,1.6.13,2.93,3.46,5.07,6.23Z"/>
  <path class="cls-2" d="M315.63,393.42c.42,5.79,1.13,11.59,1.15,17.38.01,2.87-.81,5.94-2.05,8.53-.63,1.32-3.1,2.56-4.61,2.42-1.15-.11-2.18-2.38-3.09-3.81-.31-.48-.28-1.39-.05-1.95,2.02-4.99.09-8.44-3.84-11.58-1.19-.96-2.07-3.38-1.8-4.91,1.29-7.49,2.82-14.96,4.75-22.31.43-1.65,2.93-3.94,4.32-3.83,1.52.12,3.77,2.48,4.11,4.19,1.03,5.18,1.3,10.52,1.86,15.8l-.76.07Z"/>
  <path class="cls-2" d="M503.72,702.64c-1.2-5.28-2.4-10.56-3.61-15.85l1.23-.88c1.57,1.42,4.07,2.58,4.54,4.3,1.32,4.83,2.4,9.89,2.42,14.86.01,3.68-1.5,7.47-2.91,10.99-.64,1.59-2.66,2.63-4.05,3.92-.63-1.65-1.48-3.25-1.85-4.95-.8-3.58-1.35-7.2-2-10.81-.64.06-1.28.11-1.92.17-.22,2.88-.18,5.82-.75,8.63-.3,1.5-1.65,2.78-2.52,4.17-.8-1.2-1.75-2.32-2.38-3.6-.99-2-1.77-4.1-3.74-6.08-.38,1.48-.59,3.03-1.2,4.41-.4.9-1.39,2.16-2.09,2.15-.85-.01-1.96-1.04-2.48-1.91-1.92-3.19-3.65-6.49-5.83-10.43,2.02.38,4.5.85,6.69,1.27.41-1.1,1.03-2.74,1.64-4.38,1.43.96,2.91,1.86,4.28,2.91,1.12.86,2.11,1.91,4.31,2.48-.43-2.81-.94-5.62-1.24-8.44-.13-1.18.2-2.4.32-3.61,1.28.43,2.96.49,3.76,1.36,2.82,3.04,5.33,6.36,7.96,9.58l1.44-.25Z"/>
  <path class="cls-2" d="M378.44,412.09c-1.04-.23-2.39-.13-3.06-.75-4.55-4.24-7.7-9.28-6.74-15.8.98-6.72,4.19-12.17,11.2-13.8,6.21-1.44,12.31-.75,16.88,4.55,5.11,5.92,4.28,19.77-1.57,24.87-.79.69-2.23.62-3.38.9.11-1.18-.06-2.48.37-3.53.99-2.44,2.45-4.7,3.38-7.16,1.23-3.25.91-6.72-2.28-8.36-2.3-1.18-5.39-.95-8.14-1.11-1.08-.06-2.32,1.02-3.28.77-3.2-.84-7.43-1.85-8.26,1.68-.88,3.76.57,8.23,1.63,12.21.47,1.78,2.49,3.14,3.81,4.69-.2.28-.39.55-.59.83Z"/>
  <path class="cls-2" d="M457.69,373.07c7.01.09,12.46,6.1,12.27,13.54-.16,6.5-5.39,11.43-12.01,11.33-6.84-.11-12.9-6.4-12.84-13.32.05-6.21,5.96-11.63,12.58-11.54ZM457.72,377.12c-.29.55-.59,1.09-.88,1.64-.89,1.49-1.61,4.13-2.68,4.28-4.49.62-3.04,3.37-2.06,5.38,1.68,3.45,4.79,4.32,8.97,3.16-2.97-4.6,1.9-4.39,4.98-6.93-3.02-2.73-5.68-5.13-8.33-7.53Z"/>
  <path class="cls-2" d="M434.4,492c-6.64,0-13.3.23-19.91-.17-1.57-.09-3.02-2.27-4.53-3.49,1.36-1.16,2.69-3.3,4.07-3.33,13.26-.32,26.53-.28,39.8-.33.33,0,.76-.06.97.12,1.38,1.16,2.71,2.37,4.05,3.57-1.51,1.2-2.96,3.35-4.54,3.44-6.62.39-13.27.16-19.91.16,0,0,0,.02,0,.02Z"/>
  <path class="cls-2" d="M588.85,401.06c-4.72-7.82-9.53-15.6-14.06-23.53-.49-.85.58-2.59.92-3.92,1.3.35,3.3.28,3.79,1.11,3.99,6.79,7.81,13.68,11.4,20.69.67,1.31.1,3.25.1,4.9-.72.25-1.43.51-2.15.76Z"/>
  <path class="cls-2" d="M275.03,696.69c-3.31-4.28-1.03-7.05.43-9.57,2.91-5.04,7.6-7.26,13.39-7.07,5.45.18,7.84,4.54,10.59,8.2.54.72.22,3.15-.37,3.45-1.03.52-2.71.29-3.9-.18-.99-.39-1.67-1.57-2.46-2.43-5.12-5.63-10.65-4.99-14.58,1.75-.97,1.66-1.8,3.39-3.1,5.86Z"/>
  <path class="cls-2" d="M379.8,394.63c1.51,3.32,2.72,5.98,3.93,8.63l1.4-.23c.64-2,1.19-4.03,1.95-5.98.37-.94,1.13-1.72,1.71-2.58.87.67,2.04,1.16,2.55,2.04,1.92,3.33-1.99,12.76-5.64,13.5-1.12.23-2.98-.13-3.58-.92-2.09-2.74-4.17-5.63-5.52-8.78-1.29-3.01.54-4.92,3.21-5.69Z"/>
  <path class="cls-2" d="M569.39,380.37c1.47.82,2.4,1.05,2.85,1.63,3.13,4.06,6.36,8.07,9.08,12.39.6.95-.26,3.56-1.28,4.54-.65.62-3.65.17-4.19-.68-2.88-4.58-5.42-9.39-7.79-14.27-.36-.74.78-2.22,1.32-3.61Z"/>
  <path class="cls-2" d="M389.08,570.01c-2.12,1.55-4.1,4.11-6.39,4.42-3.19.43-5.56-2.02-5.58-5.56-.01-3.52,2.25-6.02,5.52-5.56,2.3.32,4.3,2.8,6.44,4.32,0,.79,0,1.58,0,2.38Z"/>
  <path class="cls-2" d="M409.86,611.9c-2.16,1.49-4.15,3.79-6.51,4.28-3.17.65-5.28-1.61-5.27-5.02.02-3.52,2.17-6.01,5.47-5.65,2.21.24,4.19,2.59,6.27,4,.01.8.03,1.59.04,2.39Z"/>
  <path class="cls-2" d="M480.87,613.28c-2.15,1.18-4.26,3.23-6.45,3.32-3.2.14-4.87-2.49-4.6-5.74.28-3.35,2.54-5.46,5.62-4.62,2.15.59,3.77,3.09,5.62,4.74-.06.77-.12,1.53-.19,2.3Z"/>
  <path class="cls-2" d="M385.59,415c.83,0,1.72-.2,2.47.04,1.96.62,3.85,1.43,5.77,2.17-1.82.85-3.57,2.08-5.49,2.46-2.73.54-5.61.73-8.38.49-1.26-.11-2.4-1.59-3.6-2.45,1.1-1,2.05-2.52,3.33-2.86,1.85-.49,3.93-.13,5.91-.13,0,.09,0,.19,0,.28Z"/>
  <path class="cls-2" d="M424.27,625.51c1.47,1.86,4.13,3.75,4.07,5.56-.06,1.78-2.61,4.48-4.53,4.97-2.93.74-5.14-1.68-4.72-4.72.28-2,2.03-3.79,3.12-5.67.69-.04,1.38-.09,2.07-.13Z"/>
  <path class="cls-2" d="M485.74,576.55c-1.27-1.94-3.28-3.76-3.62-5.85-.5-3.08,1.87-5.29,4.84-4.56,1.87.46,4.48,2.88,4.53,4.49.06,1.93-2.26,3.94-3.54,5.91-.74,0-1.47,0-2.21,0Z"/>
  <path class="cls-2" d="M459.97,632.82c-1.98,1.33-4.14,3.9-5.89,3.64-1.83-.27-4.3-3.14-4.51-5.09-.15-1.39,2.89-4.27,4.66-4.4,1.84-.13,3.86,2.25,5.8,3.53-.02.77-.04,1.55-.06,2.32Z"/>
  <path class="cls-2" d="M386.09,421.17c2.41,1.18,4.73,2.31,7.05,3.44-2.19,1.02-4.3,2.61-6.58,2.9-2.54.32-5.25-.46-7.83-1-.25-.05-.48-2.44-.18-2.58,2.25-1.02,4.63-1.75,7.55-2.77Z"/>
  <path class="cls-2" d="M405.22,417.84c-1.74-2.75-3.67-4.48-3.38-5.65.4-1.62,2.48-2.82,3.84-4.21,1.34,1.37,3.67,2.7,3.74,4.14.08,1.45-2.09,3.01-4.21,5.72Z"/>
  <path class="cls-2" d="M408.29,393.74c1.83,2.52,3.68,3.98,3.5,5.09-.25,1.5-2.07,2.73-3.22,4.08-1.18-1.12-3.25-2.19-3.33-3.38-.09-1.46,1.49-3.02,3.05-5.79Z"/>
  <path class="cls-2" d="M411.66,385.35c-2.4,1.71-3.8,3.49-4.96,3.34-1.31-.17-2.39-2.06-3.58-3.21,1.14-1.17,2.17-3.09,3.45-3.28,1.17-.17,2.62,1.53,5.08,3.15Z"/>
  <path class="cls-2" d="M359.41,404.24c-1.58-2.48-3.27-3.97-3.09-5.17.18-1.23,2.08-2.77,3.45-3.04.81-.16,2.92,1.94,2.88,2.96-.06,1.41-1.59,2.75-3.24,5.25Z"/>
  <path class="cls-2" d="M368.65,411.93c-2.32,1.86-3.67,3.74-4.76,3.6-1.31-.17-2.88-1.89-3.37-3.28-.23-.64,1.75-2.85,2.88-2.97,1.27-.14,2.71,1.28,5.25,2.66Z"/>
  <path class="cls-2" d="M384.2,376.92c-1.51-1.86-3.14-3.02-3.01-3.92.18-1.26,1.68-2.33,2.62-3.49,1.02.91,2.81,1.78,2.86,2.75.06,1.24-1.27,2.56-2.46,4.66Z"/>
  <path class="cls-2" d="M360.7,390c-1.27-2.19-2.72-3.57-2.51-4.63.22-1.15,1.99-2,3.08-2.99.88,1.03,2.51,2.11,2.45,3.09-.07,1.24-1.51,2.41-3.02,4.53Z"/>
  <path class="cls-2" d="M399.49,372.81c1.17,2.05,2.33,3.18,2.28,4.25-.04.88-1.78,2.53-2.31,2.37-1.13-.36-2.6-1.57-2.74-2.6-.12-.93,1.34-2.07,2.76-4.03Z"/>
  <path class="cls-2" d="M369.02,380.19c-1.29-1.66-2.66-2.67-2.56-3.49.12-.93,1.54-2.33,2.43-2.36.85-.03,2.32,1.34,2.47,2.27.14.82-1.16,1.88-2.34,3.58Z"/>
  <path class="cls-2" d="M553.31,920.02c-14.61.07-26.55-11.3-26.65-25.37-.08-12.13,11.83-23.39,24.61-23.25,15.03.16,26.69,11.21,26.71,25.3.02,13.22-10.59,23.26-24.67,23.32Z"/>
  <path class="cls-2" d="M300.48,917.96c-13.2,0-24.27-11.55-24.22-25.32.05-12.81,10.91-23.52,23.68-23.33,13.06.19,24.54,11.72,24.6,24.7.07,13.3-10.63,23.94-24.07,23.95Z"/>
  <path class="cls-2" d="M402.34,927.59c-.43-13.16,11.49-25.15,25.32-25.49,12.64-.31,23.57,9.66,23.9,21.79.39,14.29-11.56,26.57-26.33,26.91-12.35.29-23.64-8.79-22.89-23.21Z"/>
  <path class="cls-2" d="M381.53,697.13c.69,1,1.84,1.94,1.99,3.02.69,5.06,1.32,10.16,1.46,15.26.03,1.24-1.91,2.53-2.94,3.79-1.15-.98-3.28-1.94-3.3-2.94-.12-6.28.24-12.56.44-18.85.79-.1,1.57-.19,2.36-.29Z"/>
  <path class="cls-2" d="M364.57,697.38c5.08,2.39,6.76,6.07,7.11,10.22.2,2.43-1.93,3.35-3.66,1.54-2.77-2.9-4.52-6.41-3.45-11.76Z"/>
  <path class="cls-2" d="M387.22,690.36c4.06,2.73,4.71,10.49,1.2,14.3-2.82-2.72-3.38-9.43-1.2-14.3Z"/>
  <path class="cls-2" d="M400.09,697.78c-1.81,2.36-3.29,4.29-4.76,6.21-.74-1.27-2.35-2.81-2.05-3.75.78-2.47,2.39-4.67,3.67-6.98.89,1.29,1.79,2.58,3.13,4.52Z"/>
  <path class="cls-2" d="M375.36,704.45c-.82-.86-1.81-1.41-1.83-2-.1-2.95.06-5.91.13-8.87.73.16,1.65.08,2.17.51,1.93,1.6,1.83,7.09-.47,10.36Z"/>
  <path class="cls-2" d="M399.17,708.55c.57-4.9,1.29-8.71,5.56-11.23,1.37,5.23-.48,9.31-5.56,11.23Z"/>
  <path class="cls-2" d="M583.03,715.65c-2.49-1.83-4.67-3.44-7.19-5.3-.8,2.8-1.34,4.71-1.88,6.62-.44.03-.87.06-1.31.09-1.43-4.36-2.86-8.72-4.55-13.89,1.74.59,2.79.83,3.73,1.29,4.22,2.07,8.38,4.03,13.06,1.08.65-.41,2.42-.3,2.59.06.41.91.61,2.34.16,3.14-1.39,2.47-3.13,4.75-4.6,6.92Z"/>
  <path class="cls-2" d="M543.62,704.41c2.23,1.08,3.43,2.07,4.72,2.21,2.76.31,5.56.21,8.35.2,1.19,0,2.37-.18,3.56-.28-.36,1.3-.41,3.51-1.12,3.75-2.8.93-5.87,1.89-8.7,1.59-3.16-.34-6.21-2-6.8-7.48Z"/>
  <path class="cls-2" d="M548.53,694.74c.12,2.44.24,4.89.36,7.33-.64.06-1.28.13-1.91.19-1.79-2.24-2.89-4.58-.39-7.42.65-.04,1.3-.07,1.95-.11Z"/>
  <path class="cls-2" d="M487.88,611.98c.12,2.44.24,4.89.36,7.33-.64.06-1.28.13-1.91.19-1.79-2.24-2.89-4.58-.39-7.42.65-.04,1.3-.07,1.95-.11Z"/>
</svg>