<?xml version="1.0" encoding="UTF-8"?>
<svg id="Layer_1" data-name="Layer 1" xmlns="http://www.w3.org/2000/svg" version="1.1" viewBox="0 0 859 1054">
  <defs>
    <style>
      .cls-1 {
        fill: #232323;
      }

      .cls-1, .cls-2, .cls-3, .cls-4, .cls-5, .cls-6, .cls-7, .cls-8, .cls-9, .cls-10, .cls-11, .cls-12, .cls-13, .cls-14, .cls-15, .cls-16, .cls-17, .cls-18, .cls-19, .cls-20, .cls-21, .cls-22, .cls-23, .cls-24 {
        stroke-width: 0px;
      }

      .cls-2 {
        fill: #232323;
      }

      .cls-3 {
        fill: #232323;
      }

      .cls-4 {
        fill: #232323;
      }

      .cls-5 {
        fill: #232323;
      }

      .cls-6 {
        fill: #232323;
      }

      .cls-7 {
        fill: #232323;
      }

      .cls-8 {
        fill: #232323;
      }

      .cls-9 {
        fill: #232323;
      }

      .cls-10 {
        fill: #232323;
      }

      .cls-11 {
        fill: #232323;
      }

      .cls-12 {
        fill: #232323;
      }

      .cls-13 {
        fill: #232323;
      }

      .cls-14 {
        fill: #F497CA;
      }

      .cls-15 {
        fill: #232323;
      }

      .cls-16 {
        fill: #232323;
      }

      .cls-17 {
        fill: #232323;
      }

      .cls-18 {
        fill: #232323;
      }

      .cls-19 {
        fill: #232323;
      }

      .cls-20 {
        fill: #232323;
      }

      .cls-21 {
        fill: #232323;
      }

      .cls-22 {
        fill: #232323;
      }

      .cls-23 {
        fill: #fffcfb;
      }

      .cls-24 {
        fill: #232323;
      }
    </style>
  </defs>
  <path class="cls-14" d="M841.3,554.75c0,12.47.23,24.94-.08,37.4-.2,7.78-2.62,9.49-10.07,8.02-23.61-4.67-47.17-9.57-70.81-14.09-16.3-3.12-32.69-5.83-49.06-8.54-5.05-.84-8.49-3.28-10.61-7.92-15.94-34.91-31.94-69.79-47.82-104.72-.76-1.67-1-3.86-.7-5.68,4.29-26.05,8.66-52.09,13.15-78.11.71-4.11-.37-6.97-3.76-9.39-20.83-14.9-41.58-29.92-62.4-44.83-8.11-5.81-16.53-11.21-24.46-17.26-4.14-3.15-7.87-3.41-12.44-1.46-16.82,7.15-33.68,14.23-50.62,21.09-2.4.97-5.52,1.29-8.03.71-43.84-10.23-87.62-20.68-131.46-30.91-2.49-.58-5.71-.34-7.98.77-19.86,9.72-39.89,19.16-59.21,29.87-10.32,5.72-20.46,7.17-31.87,6.15-17.72-1.59-35.53-2.27-53.31-3.22-7.23-.38-8.42.71-9.06,7.93-3.33,37.58-6.42,75.18-10.11,112.72-.63,6.45-3.5,12.76-5.84,18.95-13.01,34.45-26.19,68.84-39.27,103.26-2,5.25-5.41,8.17-11.18,9.24-39.5,7.32-78.95,14.89-118.42,22.35-4.21.8-6.28-1.09-6.6-6.37-.58-9.79-1.04-19.59-1.36-29.39-2.3-71.09,8.5-140.13,32.14-207.23,16.88-47.91,41.13-91.87,70.58-133.1,28.09-39.32,61.45-73.53,100.46-102,37.37-27.28,77.02-50.53,122.06-63.17,9.59-2.69,19.37-4.69,28.94-7.42,2.16-.62,4.69-2.53,5.61-4.52,10.57-22.8,34.06-36.82,59.05-34.39,20.96,2.04,33.44,15.49,42.31,33.07,1.75,3.46,3.52,5.29,7.47,6.02,55.03,10.13,104.37,33.27,149.12,66.36,40.62,30.04,74.77,66.4,103.7,107.79,15.95,22.82,30.08,46.69,42.48,71.58,13.96,28.03,25.11,57.19,34.41,87.08,16.56,53.21,24.7,107.73,25.07,163.36ZM429.23,56.39c-10.55-.17-19.55,5.39-21.72,12.72-3.63,12.28,4.68,22.99,18.76,23.77,8.52.47,15.76-2.45,20.43-9.97,4.09-6.59,1.44-12.82-1.77-18.77-3.61-6.68-10.37-6.96-15.7-7.75Z"/>
  <path class="cls-14" d="M429.81,1033.36c-81.77-.49-155.97-24.49-222.42-71.96-47.53-33.95-85.38-76.87-115.18-126.95-35.13-59.04-57-122.83-67.78-190.53-.6-3.77-1.08-7.57-1.3-11.38-.19-3.31,1.08-5.53,4.88-6.21,37.75-6.79,75.45-13.84,113.25-20.32,2.9-.5,7.72,1.97,9.52,4.54,15.66,22.3,31.1,44.77,46.01,67.58,4.66,7.13,4.37,15.69,2.88,24.15-2.07,11.77-3.42,23.66-5.38,35.45-.76,4.57.46,7.67,4.45,9.98,18.98,10.98,37.92,22.03,56.88,33.03,4.46,2.58,9.24,4.69,13.4,7.68,4.51,3.24,9.06,3.4,14.14,2.34,19.5-4.09,39-8.2,58.57-11.96,2.96-.57,6.85-.33,9.3,1.17,22.39,13.73,44.51,27.91,66.89,41.66,1.74,1.07,5.28.72,7.24-.34,11.09-6.04,22.02-12.37,32.86-18.85,15.12-9.04,30.09-18.35,45.21-27.4,1.7-1.02,4.09-1.77,5.98-1.49,32.21,4.88,64.38,9.95,96.57,14.97,1.97.31,3.95.56,5.93.79,9.15,1.07,9.28,1.1,12.01-8.01,14.29-47.71,28.47-95.45,42.81-143.14.83-2.76,2.42-5.41,4.15-7.76,6.99-9.52,14.2-18.86,21.25-28.33,3.41-4.58,7.06-7.01,13.46-5.73,27.65,5.52,55.38,10.59,83.12,15.64,13.22,2.41,26.51,4.48,39.79,6.55,8.55,1.33,10.57,3.58,9.69,12.21-4.88,47.81-17.13,93.76-35.29,138.17-15.57,38.07-35.91,73.48-61.02,106.05-34.72,45.05-76.16,82.55-126.1,110.27-38.9,21.59-80.15,36.7-124.22,43.21-20.36,3.01-40.97,4.3-61.47,6.36l-.1-1.42ZM517.36,894.29c-.33,19.4,14.5,35.34,33.04,35.52,18.17.18,32.41-14.93,32.92-34.94.46-17.92-14.39-33.34-32.47-33.71-19.28-.4-33.16,13.33-33.49,33.13ZM298.2,927c18.34.01,32.85-14.18,32.98-32.27.14-18.6-15.2-34.18-33.7-34.25-17.11-.06-32.18,16.65-31.45,36.44.68,18.38,15.44,30.31,32.17,30.08ZM426.07,894.28c-20.32,0-34.85,13.24-34.87,31.78-.02,17.58,14.56,31.59,33.02,31.72,19.48.14,34.94-14.63,34.97-33.39.03-16.97-14.42-30.11-33.12-30.11Z"/>
  <path class="cls-23" d="M551.19,919.87c-14.58.06-26.5-11.32-26.59-25.37-.07-12.1,11.88-23.34,24.63-23.16,15.05.21,26.65,11.22,26.64,25.29,0,13.2-10.61,23.18-24.69,23.24Z"/>
  <path class="cls-23" d="M298.64,917.81c-13.2.01-24.25-11.52-24.21-25.25.04-12.79,10.88-23.47,23.65-23.3,13.04.18,24.53,11.68,24.6,24.64.07,13.28-10.61,23.9-24.04,23.92Z"/>
  <path class="cls-23" d="M400.41,927.57c-.45-13.2,11.31-25.15,25.15-25.57,12.61-.39,23.63,9.53,24.02,21.6.45,14.26-11.4,26.56-26.17,27-12.51.37-23.74-8.86-23-23.03Z"/>
  <path class="cls-23" d="M423.54,357.47c38.25,0,76.5.23,114.75-.09,20.44-.17,40.88-.45,61.32-.24,18.5.19,28.23,12.96,27.59,28.62-.26,6.48.07,12.99.14,19.48,1.15,104.09,2.01,208.18,1.45,312.28-.02,4.32-.25,8.68-.9,12.95-2.11,13.89-13.56,22.8-29.5,22.94-29.44.26-58.87.05-88.31-.19-55.91-.46-111.83-.65-167.75.06-31.39.4-62.79.14-94.19.15-18.73,0-29.48-13.16-29.85-28.2-.57-22.66-.54-45.3-.45-67.95.31-77.28.77-154.55,1.22-231.83.08-13.32.47-26.64.58-39.96.14-17.45,10.01-28.03,27.34-28.3,18.64-.29,37.29-.1,55.93,0,36.77.2,73.55.48,110.32.72,3.44.02,6.87,0,10.31,0,0-.14,0-.29,0-.43Z"/>
  <path class="cls-4" d="M414.72,656.81c45.15,0,90.29,0,135.44,0,1.49,0,3.1-.23,4.46.22,2.31.76,4.2,2.31,3.91,5.09-.27,2.6-1.79,4.26-4.51,4.52-.99.1-2,.06-3,.06-39.65-.01-79.3.41-118.94-.17-44.81-.65-89.61-.71-134.42-.6-7.62.02-15.25-.49-22.9.38-2.68.31-6.49,0-6.96-3.96-.44-3.74,2.58-4.37,5.53-5.02,2.16-.48,4.29-.51,6.44-.51,44.98-.01,89.96,0,134.94-.01Z"/>
  <path class="cls-4" d="M413.19,452.84c45.15,0,90.29,0,135.44,0,1.17,0,2.34-.05,3.5.02,3.04.17,5.26,1.7,5.37,4.77.12,3.38-2.03,5.1-5.43,5.1-11.16,0-22.32.01-33.48,0-29.15-.01-58.31.38-87.46-.14-44.97-.8-89.94-.73-134.92-.62-7.45.02-14.92-.52-22.4.38-2.69.32-6.49,0-6.99-3.92-.47-3.73,2.52-4.4,5.49-5.05,2.16-.47,4.29-.52,6.44-.52,44.81-.01,89.63,0,134.44-.02Z"/>
  <path class="cls-4" d="M394.53,591.69c-3.49,0-6.99,0-10.48,0-2.76.01-5.26-.68-5.24-3.92.02-3.31,2.84-4,5.37-3.82,16.72,1.16,33.42-.74,50.13-.12,9.95.37,19.94-.7,29.86.86,1.96.31,4.45.02,4.24,2.91-.17,2.36-2.17,3.05-4.37,3.18-4.14.25-8.28.92-12.4.79-4.74-.15-3.92,2.95-3.85,5.66.07,2.59-1.11,6.17,3.77,5.64.82-.09,1.68-.11,2.49.01,2.83.43,4.69,2.04,4.51,4.98-.17,2.8-2.21,4.11-4.86,3.84-4.23-.44-6.51.46-6.06,5.5.34,3.74-2.92,4.51-5.89,4.45-2.87-.06-3.98.71-4.23,3.85-.52,6.38-2.46,7.44-10.97,7.2-5.93-.17-7.58-1.58-7.73-7.73-.09-3.61-2.21-4.07-4.86-4.12-2.63-.05-5.03-.94-5.05-3.67-.02-3.9-1.69-4.83-5.16-4.5-3.17.3-5.47-1.64-5.54-4.51-.07-3.03,2.49-4.66,5.51-4.4,7.75.67,4.42-5.13,4.98-8.49.74-4.44-2.66-3.59-5.19-3.62-2.99-.05-5.99-.01-8.98-.01v.02Z"/>
  <path class="cls-7" d="M356.71,544.22c0-6.16-.08-12.33.04-18.49.05-2.54-.39-3.88-3.4-4.15-5.15-.45-7.39-4-7.53-8.87-.16-5.49-.32-11.01-.02-16.49.23-4.14,2.05-7.44,7-7.42,3.02.01,5.11-1.1,5.79-4.29.47-2.18,1.87-3.48,4.14-3.7,5.62-.54,11.22-1.34,16.9-.98,5.14.33,7.84,3.02,8.04,8.24.08,2,.13,4.01-.05,5.99-.41,4.61-.62,8.67,6.16,8.02,2.07-.2,4.03,1.55,3.91,4.3-.13,2.98-2.21,4-4.64,4.3-4.11.51-8.25.84-12.39,1.1-2.21.14-3.98.49-3.98,3.27,0,4.74-3.09,5.88-7.02,5.7-3.67-.17-4.47.87-4.28,4.9.59,12.64.33,25.31.36,37.98,0,3.11-1.32,5.24-4.72,5.11-3.08-.12-4.31-2.15-4.32-5.04-.01-6.5,0-13,0-19.49Z"/>
  <path class="cls-7" d="M480.72,550.77c-.75-7.69,1.08-16.94,1.01-26.26-.02-2.72-.73-3.74-3.63-3.87-5.89-.25-7.25-1.67-7.44-7.51-.09-2.68-1.01-3.54-3.54-3.37-3.8.26-7.64-.3-11.43.71-1.21.32-2.67.13-3.91-.23-1.78-.51-3.7-1.44-3.62-3.58.07-2.13,1.42-3.38,3.7-4.06,2.67-.8,6.22.49,7.96-1.94,2.11-2.96.83-6.79.9-10.24.14-6.8,2.34-9.38,9.08-9.65,4.49-.18,8.99,0,13.49-.04,3.39-.03,5.3,1.38,5.52,4.95.2,3.24,1.67,5.23,5.35,5.12,3.26-.09,4.96,2.25,5.27,5.03.74,6.59,1.7,13.18,1.38,19.87-.18,3.68-2.47,5.2-5.55,4.98-4.11-.29-4.63,1.62-4.53,5.02.41,13.65-1.6,27.25-.95,40.91.16,3.35-.87,6.66-4.32,6.75-3.93.1-4.66-3.59-4.7-6.93-.06-4.66-.02-9.33-.02-15.65Z"/>
  <path class="cls-4" d="M478.8,545.18c.04,10.26.06,10.39-7.6,11.52-2.41.36-2.57,1.65-2.48,3.41.23,4.67-2.76,6.67-6.65,7.3-3.95.64-7.88-.54-11.73-1.42-2.06-.47-2.78-2.13-2.76-4.21.01-2.08.74-3.54,2.87-4.09.8-.21,1.65-.83,2.37-.69,6.51,1.21,7.39-2.35,7.43-7.71.02-2.94-.9-3.51-3.27-3.51-1.33,0-2.72.22-3.99-.06-4.06-.91-5.75.28-5.43,4.71.21,2.94-1.14,5.85-4.55,6.19-3.84.38-4.7-2.96-4.95-5.68-.32-3.56.09-7.21.42-10.8.36-3.89,3.62-4.38,6.55-4.97,2.43-.49,4.72-.79,4.01-4.22-.11-.55.23-1.39.64-1.83,4.1-4.43,9.39-1.9,14.15-2.2,2.79-.18,4.57,1.82,4.89,4.7.36,3.26,1.47,5.07,5.32,5.63,5.72.83,4.8,5.83,4.75,7.95Z"/>
  <path class="cls-4" d="M417.76,545.65c0,1.83-.03,3.66,0,5.48.05,2.42-1.38,3.83-3.49,4.19-2.17.37-3.8-.81-4.58-2.95-.23-.62-.63-1.29-.57-1.9.57-5.85-2.37-7.02-7.38-5.77-1.85.46-4.59-1.03-5.51,1.06-1.19,2.7-.58,5.88-.2,8.83.16,1.2,1.46,1.11,2.44,1.19,1.65.13,3.33.13,4.94.47,2.66.57,5.52,1.35,5.2,4.87-.3,3.26-3.09,4.15-5.77,4.5-2.62.34-5.31.16-7.96.27-4.56.19-6.91-2.25-7.06-6.52-.1-2.77-.95-3.71-3.75-3.79-4.29-.11-6.78-2.3-6.4-6.99.15-1.82.16-3.67-.03-5.48-.43-4.12,1.57-6.43,5.42-6.88,3.19-.37,4.68-1.53,4.69-4.96,0-3.54,2.36-5.33,5.83-5.47,2.65-.11,5.32-.07,7.97-.05,3.08.03,5.13,1.31,5.22,4.67.05,1.89.82,2.88,2.73,3.55,8.27,2.91,8.24,2.99,8.23,11.67Z"/>
  <path class="cls-4" d="M404.7,709.82c-.63,6.33-1.5,13.18-4.75,19.53-3.34,6.52-7.15,8.9-14.06,7.09-8.23-2.17-16.34-2.08-24.6-.63-6.25,1.1-10.34-1.05-12.58-6.88-2.14-5.55-4.11-11.2-5.66-16.94-1.56-5.76.74-10.38,5.52-13.8,10.59-7.57,22.36-9.38,34.94-7.02,4.72.89,9.36,2.03,13.61,4.45,5.32,3.02,7.61,7.62,7.58,14.2Z"/>
  <path class="cls-4" d="M529.07,424.42c-.16.06-.33.09-.47.18-2.17,1.42-4.25,5.33-6.99,2.16-2.98-3.45,1.27-4.64,3.38-6.06,1.97-1.33,1.58-2.73.59-4.22-3.22-4.87-.66-8.17,3.09-10.93,3.61-2.66,7.43-5.03,11.16-7.51,2.84-1.89,6.97-2.93,4.92-7.92-.29-.69.12-1.67,1.05-2.02,1.45-.55,2.72-.02,3.56,1.09,3.61,4.75,7.22,9.51,10.64,14.4,2.06,2.95,3.84,6.12,5.62,9.26,1.19,2.1,1.84,4.37-.01,6.49-2.01,2.29-3.75,1.07-5.54-.46-1.58-1.36-2.82.18-4,.85-3.9,2.2-7.75,4.51-11.56,6.87-7.96,4.93-9.37,4.76-15.43-2.15Z"/>
  <path class="cls-4" d="M522.63,710.15c.03-7.94,3.95-13.76,11.18-16.58,7.52-2.93,14.58-1.52,19.75,4.71,2.34,2.82,3.98,2.99,7.25,1.64,8.85-3.67,18.98.27,23.08,8.4,4.59,9.12,1.71,19.9-6.8,25.43-8.21,5.34-18.6,3.86-24.55-3.93-1.84-2.42-3.12-2.92-6.03-1.97-12.1,3.97-23.93-4.93-23.89-17.7Z"/>
  <path class="cls-7" d="M432.65,716.86c-.38-9.34,10.52-20.39,24.51-16.69,5.76,1.52,6.43,4.94,2.24,9.37-1.94,2.05-3.88,4.13-6.04,5.94-3.43,2.86-2.13,3.97,1.39,4.82,2.4.58,4.73,1.48,7.05,2.34,6.37,2.36,7.03,5.46,1.56,9.53-5.95,4.43-12.83,5.57-19.69,2.45-7.01-3.19-11.12-8.74-11.02-17.75Z"/>
  <path class="cls-4" d="M297.73,695.76c4.58-1.48,9.16-2.96,13.44-5.21,1.24-.65,2.47-1.06,3.68.07,1.13,1.06,1.38,2.72.72,3.68-4.48,6.5-1.73,13.54-1.72,20.35,0,3.68-.14,7.33-1.29,10.83-1.81,5.5-5.21,9.54-10.9,11.45-10.27,3.45-20.49,4.08-30.57-.48-6.73-3.04-8.87-6.45-8.28-13.69.21-2.56-.33-3.23-2.74-3.04-2.37.19-4.97.18-5.97-2.49-.99-2.64,1.19-4.28,2.75-5.95,1.82-1.94,3.68-3.82,5.94-5.3,3.08-2.02,5.66-1.57,7.87,1.18,2.15,2.68,1.96,8.12-.1,10.06-1.23,1.16-3.97.68-3.27,4,.78,3.73,1.33,7.58,5.11,9.09,9.65,3.88,19.5,3.97,29-.48,4.94-2.32,5.74-7.34,6.37-12.21.78-6.14-1.46-12.15-.74-18.63-2.12.27-4.17.53-6.22.78-4.19,1.08-4.61-.72-3.09-4.02Z"/>
  <path class="cls-4" d="M278.83,391.37c1.52-1.95.72-3.81.94-5.51.18-1.42.53-2.69,2.13-2.95,1.62-.27,2.49.83,2.91,2.16,1.43,4.56,2.09,9.41-.52,13.52-4.57,7.23-4.01,14.85-2.89,22.64.44,3.09.61,6.02-2.11,8.22-1.99,1.61-4.15,1.03-6.09.01-3.03-1.59-3.76-4.36-3.56-7.62.12-1.86.43-3.61,1.05-5.35,1.75-4.86,1.71-9-2.53-13.1-5.26-5.08-4.68-12.13-4.36-18.83.05-1.14.83-1.82,1.88-2.04,1.26-.27,1.67.74,2.18,1.6,1.24,2.14.69,4.91,2.47,6.93,1.83-2.06,1.41-4.28.82-6.61-.56-2.17.12-4.2,2.35-4.85,2.78-.81,3.13,1.64,3.81,3.49.95,2.55-.42,5.58,1.52,8.29Z"/>
  <path class="cls-4" d="M490.69,393.64c-.16,4.68-2.85,7.19-6.03,9.11-10.8,6.52-21.69,12.9-32.56,19.31-1.9,1.12-4.22,1.55-3.76,4.88.26,1.92-1.58,3.1-3.82,2.87-3.2-.33-6.95-4.4-6.74-7.61.19-2.8,1.73-4.63,4.57-3.39,2.36,1.03,3.54.26,5.14-1.24,9.69-9.06,19.48-18.02,29.23-27.02,2.93-2.71,6.42-3.62,10.14-2.4,2.63.87,3.28,3.51,3.83,5.5Z"/>
  <path class="cls-4" d="M304.81,400.57c-.78,5.66.54,11.88.96,18.14.21,3.15-.95,5.81-2.01,8.6-.9,2.37-2.65,2.74-4.79,2.51-2.26-.24-3.52-2.03-3.14-3.78,1.33-6.17,0-11.15-5-15.22-.82-.67-1.17-2.52-.98-3.71,1.22-7.65,2.12-15.39,5.01-22.66.73-1.83,1.65-3.82,4.18-3.62,2.32.18,3.29,2,4.14,3.85,2.25,4.89,1.28,10.12,1.62,15.88Z"/>
  <path class="cls-5" d="M466.58,709.77c.95.96,2,1.68,3.52,1.64.75-1.69-1.56-4.19,1.17-5.24,2.7-1.03,3.13,1.76,4.51,2.97,1.08.95,1.76,2.42,3.88,2.87,0-3.03.63-5.9-.79-8.69-.76-1.49-1.02-2.85.65-3.87,1.84-1.13,2.81.39,3.71,1.46,2.68,3.15,5.23,6.42,8.03,9.89,1.24-3.99-.03-7.54-1.56-11.08-.77-1.79-2.17-4.31-.12-5.31,2.03-.99,3.85,1.24,5.02,3.13,2.93,4.73,3.81,9.93,2.77,15.32-.75,3.89-1.99,7.69-3.14,11.49-.59,1.97-1.53,3.87-4.14,3.37-2.39-.46-2.45-2.39-2.34-4.29.23-3.86-.1-7.59-2.56-11.11-2.27,2.71-1.39,5.76-1.5,8.59-.07,2-.54,4.02-2.57,4.3-2.7.38-2.32-2.06-2.6-3.82-.38-2.31-1.33-4.38-3.44-6.22-.47,1.46-.95,2.65-1.22,3.88-.32,1.45-.27,3.3-2.3,3.25-1.68-.04-2.64-1.43-2.76-3.04-.26-3.54-2.49-5.61-5.17-7.41-.82-3.24,1.02-2.71,2.94-2.07Z"/>
  <path class="cls-5" d="M363.66,418.83c-7.2-6.4-8.7-14.8-4.03-22.71,4-6.78,11.83-9.08,20.57-6.03,2.98,1.04,5.08,3.24,6.74,5.7,3.73,5.53,1.93,18.76-2.98,23.3-.96.88-1.93,2.14-3.37.93-1.27-1.07-.93-2.34-.02-3.53,1.84-2.41,2.92-5.18,3.79-8.06.94-3.06.03-5.6-2.27-7.63-2.27-2-4.89-2.87-7.78-1.27-2,1.11-3.86,1.2-6.16.6-4.02-1.05-6.28.97-6.51,5.1-.28,4.99.13,9.7,5.03,12.62-.35,2.37-1.79,1.33-3.01.97Z"/>
  <path class="cls-4" d="M458.71,393.88c.01,6.98-4.94,11.93-11.93,11.93-7.29,0-13.15-6.09-13.06-13.59.07-6.04,5.7-11.3,12.23-11.41,7.11-.13,12.75,5.65,12.76,13.07Z"/>
  <path class="cls-5" d="M422.95,499.84c-6.47,0-12.95-.01-19.42,0-2.52,0-4.82-.33-4.86-3.56-.04-3.24,2.24-3.4,4.76-3.66,11.56-1.16,23.14-.55,34.72-.73,1.96-.03,3.93.47,5.89.7,2.26.26,3.93,1.22,3.55,3.78-.34,2.27-1.95,3.4-4.23,3.41-6.81.03-13.61.01-20.42.01v.03Z"/>
  <path class="cls-1" d="M297.73,695.76c-.13,2.23-.05,4.3,3.09,4.02-.81.5-1.63,1.01-2.68,1.66,5.5,1.88,7.76,6,7.27,11.23-.5,5.36-4.67,7.64-9.36,9.14-7.45,2.37-14.32.49-17.16-4.76-1.09-2.02-1.48-4.02-.26-6.14.76-1.32,1.51-2.86,3.2-2.73,1.99.16,1.91,1.97,1.98,3.46.19,3.97,3.04,4.88,6.17,5.05,3.71.2,7.74,0,9.44-3.92,1.36-3.14.01-5.86-3.61-6.89-2.41-.69-5.69-1.28-4.84-4.44.78-2.9,2.28-6.46,6.74-5.68Z"/>
  <path class="cls-1" d="M580.44,405.52c.14,1.39-.21,2.33-1.22,2.79-1.12.51-1.98-.23-2.51-1.06-4.54-7.13-9.86-13.77-13.48-21.47-.84-1.78-.36-3.37,1.09-4.43,1.42-1.04,2.97-.56,3.91.85,4.59,6.86,10.35,13.11,11.67,21.73.1.64.42,1.26.54,1.61Z"/>
  <path class="cls-3" d="M276.74,687.71c4.55,0,10.94,4.85,11.89,9.06.31,1.38.11,2.66-1.23,3.47-1.19.72-2.25.29-3.17-.53-.98-.88-1.9-1.85-2.82-2.8-5.28-5.47-11.07-4.55-14.83,2.21-.91,1.64-.8,5.38-3.69,4.1-2.6-1.15-.83-4.14-.03-6.16,2.39-6.02,7.48-9.36,13.88-9.35Z"/>
  <path class="cls-3" d="M380.77,407.41c-.24,4.21-2.63,7.34-5.42,10.2-.49.5-1.48.79-2.21.73-3.39-.28-9.2-9.68-8.11-13.02.56-1.69,1.71-3.13,3.47-3.11,2.6.03,1.23,2.03,1.25,3.33.02,2.25,1.4,4.19,3.22,4.5,2.04.35,1.57-2.4,2.42-3.65.94-1.39-.87-4.81,2.56-4.2,2.41.43,2.98,2.84,2.82,5.22Z"/>
  <path class="cls-11" d="M558.58,388.75c1.57.05,2.45.84,3.23,1.69,3.04,3.29,5.73,6.86,8.01,10.72,1.23,2.08,1.31,4.12-.8,5.76-2.2,1.71-3.66.2-5.1-1.26-3.85-3.89-5.51-8.99-7.58-13.85-.97-2.27.66-2.89,2.24-3.07Z"/>
  <path class="cls-1" d="M365.67,575.93c.61-3.05,2.4-5.23,5.98-5.11,3.66.13,5.25,2.74,5.62,5.92.33,2.79-3.56,6.28-6.35,5.8-3.4-.58-5.09-2.88-5.26-6.62Z"/>
  <path class="cls-20" d="M397.79,618.46c.16,3.77-2.22,5.76-5.36,5.94-3.19.18-5.63-1.68-5.74-5.4-.11-3.68,2.09-5.79,5.31-5.94,3.2-.15,5.58,1.77,5.79,5.4Z"/>
  <path class="cls-12" d="M463.8,613.71c3.77.11,5.29,2.53,5.25,5.82-.04,3.3-2.22,5.16-5.47,5.12-3.31-.04-5.32-2.16-5.29-5.34.03-3.28,1.67-5.68,5.51-5.6Z"/>
  <path class="cls-11" d="M370.01,421.88c3.14,1.12,6.46.8,9.75.92,1.34.05,2.75.07,2.88,1.92.1,1.5-1,1.85-2.14,2.26-4.28,1.55-8.81.46-13.19,1.24-1.27.23-2.73-1.48-2.38-3.18.55-2.61,2.87-2.82,5.09-3.17Z"/>
  <path class="cls-11" d="M442.56,634.06c3.01.32,5.45,1.8,5.65,4.7.23,3.31-1.78,5.77-5.35,5.86-2.84.07-4.77-1.9-4.99-4.57-.26-3.15,1.6-5.25,4.69-5.99Z"/>
  <path class="cls-24" d="M374.43,429.77c2.1.25,4.32-.46,6.29.77.84.53,1.69,1.17,1.56,2.32-.13,1.14-1.01,1.68-2.04,1.83-3.09.43-6.18.88-9.29,1.15-2.14.19-4.14-.29-4.14-3,0-2.7,2-3.07,4.15-3.06,1.16,0,2.31,0,3.47,0Z"/>
  <path class="cls-11" d="M407.63,638.64c-.08-3.15,1.94-4.75,4.59-4.64,2.94.12,5.55,1.77,5.32,5.24-.19,2.87-1.99,5.24-5.02,5.05-3.06-.19-5.05-2.22-4.89-5.66Z"/>
  <path class="cls-12" d="M470.61,578.79c.04-3.16,1.5-4.94,4.77-5.11,3.36-.17,5.03,1.78,5.16,4.74.12,3.04-1.86,5.11-4.85,5.18-2.89.07-5.11-1.38-5.07-4.81Z"/>
  <path class="cls-11" d="M395.75,423.7c-4.01.36-5.47-1.34-5.62-3.63-.14-2.27,1.11-4.18,3.8-4.3,2.74-.13,4.56,1.18,4.63,3.97.06,2.55-1.71,3.73-2.81,3.95Z"/>
  <path class="cls-2" d="M396.89,410.81c-2.41-.12-3.36-1.63-3.2-3.95.16-2.27,1.43-3.92,3.71-3.79,2.24.13,3.39,1.86,3.35,4.15-.03,2.43-1.32,3.61-3.86,3.58Z"/>
  <path class="cls-24" d="M395.64,396.8c-2.2-.17-3.67-1.36-3.84-3.67-.16-2.25,1.19-3.33,3.38-3.37,2.19-.04,3.45.98,3.56,3.24.1,2.11-.68,3.55-3.09,3.8Z"/>
  <path class="cls-2" d="M348.21,403.29c1.89.45,3.53,1.22,3.43,3.51-.1,2.28-1.37,3.88-3.68,3.74-2-.12-3.19-1.62-3.21-3.73-.02-2.27,1.55-3.08,3.46-3.53Z"/>
  <path class="cls-13" d="M355.79,420.15c-.1,2.27-1.04,3.68-3.29,3.54-2.01-.13-3.53-1.36-3.57-3.37-.05-2.2,1.17-3.69,3.69-3.55,2.23.13,3.15,1.43,3.17,3.38Z"/>
  <path class="cls-10" d="M375.71,380.17c-.07,2.34-1.01,3.51-2.99,3.53-1.97.02-2.91-1.13-3.06-3.06-.16-2,.89-3.29,2.66-3.46,2.2-.22,2.98,1.53,3.39,2.99Z"/>
  <path class="cls-6" d="M352.71,392.95c-.14,1.94-1.14,3.43-3.19,3.62-2.06.2-2.81-1.28-2.86-3.15-.06-2.28,1.38-3.3,3.35-3.42,1.78-.11,2.55,1.18,2.7,2.95Z"/>
  <path class="cls-21" d="M387.93,381.82c1.7.11,2.7,1.02,2.78,2.77.08,1.71-.71,3.01-2.46,3.03-1.82.02-3.21-1.13-3.18-3.02.03-1.55,1-2.75,2.86-2.77Z"/>
  <path class="cls-9" d="M283.67,701.85c2.13.71,4.22,1.72,4.51,4.39.09.86-.87,1.48-1.76,1.17-2.19-.77-4.38-1.82-5.03-4.22-.28-1.03,1.07-1.42,2.28-1.35Z"/>
  <path class="cls-15" d="M357.72,381.83c1.66.11,2.77.87,2.79,2.42.02,1.83-1.24,2.63-2.97,2.59-1.52-.04-2.62-.84-2.65-2.4-.03-1.86,1.23-2.57,2.83-2.61Z"/>
  <path class="cls-2" d="M275.71,700.12c.08,1.87-.75,2.68-2.36,2.69-1.52.01-2.61-.54-2.57-2.27.04-1.52.81-2.57,2.37-2.65,1.59-.08,2.36.96,2.55,2.22Z"/>
  <path class="cls-19" d="M466.58,709.77c-1.53-.08-2.84.13-2.94,2.07-.91-.26-2.18-.62-1.38-1.77,1.14-1.66,2.76-1.95,4.32-.3Z"/>
  <path class="cls-21" d="M363.66,418.83c1.08-.09,2.28.18,3.01-.97,1.03.34,2.1,1.09,1.13,2.02-1.63,1.57-2.93.03-4.14-1.06Z"/>
  <path class="cls-23" d="M368.58,728.68q-11.83.12-16.48-11.05c-4.65-11.17-2.37-16.97,9.42-20.48,11.41-3.39,22.69-2,33.21,3.95,2.73,1.54,3.99,3.81,4,6.94.03,5.73-1.14,11.15-3.25,16.49-1.9,4.8-4.84,6.01-9.78,4.77-4.4-1.11-8.97-2.77-13.62-.72-2.57-.74-1.05-2.08-.57-3.4,2.17-6,.91-11.74-1.36-17.42-1.81,5.85-3.41,11.67-.95,17.66.54,1.31,1.16,2.47-.63,3.26Z"/>
  <path class="cls-3" d="M368.58,728.68c-2.59-6.57-2.01-13.28-.88-20.02.24-1.46-.02-3.3,1.95-3.5,1.79-.19,2.56,1.39,2.91,2.86,1.12,4.85,1.08,9.84,1.63,14.76.28,2.47-3.31,3.21-2.09,5.8-1.17.03-2.34.06-3.5.1Z"/>
  <path class="cls-23" d="M554.11,410.43c-.37,2-2.16,2.38-3.4,3.27-1.08.78-2.07.66-2.9-.59-1.36-2.05-2.98-3.94-4.24-6.05-1.81-3.05,1.44-3.36,2.78-4.67,1.22-1.19,2.35-1.75,3.42.31,1.35,2.63,2.89,5.15,4.35,7.72Z"/>
  <path class="cls-23" d="M540.12,698.74c5.41-.21,9.09,2.81,11.61,6.8,2.53,4,4.88,3.46,8.2,1.39,6.83-4.25,14.99-2.53,18.77,3.75,3.84,6.37,1.74,14.39-4.88,18.65-5.75,3.7-14.67,1.98-18.82-4.35-2.81-4.29-5.34-5.59-10.13-3.03-4.22,2.25-9.98.63-13.27-2.79-3.8-3.95-4.21-8.75-2.32-13.42,1.86-4.61,5.56-7.42,10.84-6.99Z"/>
  <path class="cls-23" d="M261.43,714.66c1.74-2.77,2.75-5.09,5.77-4.66.93.13,2.18,1.35,1.75,1.98-1.62,2.38-4.41,1.76-7.52,2.68Z"/>
  <path class="cls-23" d="M445.61,399.77c-2.39-.41-4.3-1.95-5.05-4.82-.24-.93-.87-2.69-.33-2.71,4.17-.14,4.12-5.06,6.46-5.9,2.23-.81,4.87,1.76,6.18,4.65,1.34,2.96-1.17,2.73-2.41,3.65-.8.59-1.75,1.38-1.44,2.4.95,3.1-1.06,2.78-3.42,2.73Z"/>
  <path class="cls-18" d="M374.57,704.35c.8-2.06-1.4-5.84,1.77-6.18,3.45-.37,2.12,3.75,2.84,5.83.91,2.63,1.12,5.51-.81,7.98-.56.72-1.51.88-2.2.32-2.65-2.18-.93-5.25-1.61-7.94Z"/>
  <path class="cls-8" d="M354.97,705.8c2.31.56,3.14,2.88,4.2,4.86,1,1.85,2.34,3.82.93,6.05-.73,1.16-1.99,1.4-3.04.59-3.12-2.42-4.06-5.93-4.32-9.65-.08-1.14.68-1.82,2.22-1.85Z"/>
  <path class="cls-24" d="M387.78,705.03c-.32,2.62-.08,5.9-3.6,6.56-2.04.39-2.72-1.71-2.39-3.43.53-2.76.28-6.47,3.81-7.18,2.73-.55,1.9,2.31,2.19,4.04Z"/>
  <path class="cls-10" d="M360.75,704.64c.08-2.1.53-4.14,2.6-3.63,3.53.86,2.67,4.47,3.16,6.96.31,1.55-.57,4.47-2.51,3.92-3.49-1-2.11-5.02-3.26-7.24Z"/>
  <path class="cls-16" d="M394.58,707.67c-.9,2.3-.85,5.11-2.65,7.22-.73.86-1.53,1.92-2.88,1.34-1.27-.55-1.59-1.88-1.19-2.95.93-2.45,2.11-4.81,3.29-7.16.38-.75,1.18-1.25,2.07-.95,1.08.36,1.43,1.27,1.36,2.51Z"/>
  <path class="cls-2" d="M542.14,720.72c-3.5-.39-6.6-1.76-9.06-4.38-.64-.68-1.29-1.7-.62-2.67.79-1.15,2.05-1.17,3.04-.36,3.71,3.02,7.42,3.11,11.3.37.68-.48,1.55-.6,2.22.19.73.87.71,1.85.13,2.74-1.63,2.49-3.94,3.9-7.01,4.12Z"/>
  <path class="cls-22" d="M537.82,706.78c-.47,1.23.73,3.62-1.63,3.37-2.04-.21-2.56-2.34-2.48-4.3.06-1.62-.12-3.91,2.2-3.59,2.39.33,1.62,2.83,1.92,4.52Z"/>
  <path class="cls-17" d="M544.66,710.65c-2.43-2.9-2.88-5.49-.99-8.18.4-.58,1.28-.5,1.74.1,2.06,2.71,1.07,5.2-.75,8.08Z"/>
  <path class="cls-2" d="M565.76,708.14c3.49.46,6.56,1.89,8.97,4.56.63.69,1.26,1.72.57,2.68-.82,1.13-2.07,1.13-3.05.3-3.65-3.1-7.36-3.26-11.29-.59-.69.47-1.56.57-2.21-.24-.71-.89-.67-1.87-.08-2.74,1.68-2.45,4.02-3.82,7.09-3.98Z"/>
  <path class="cls-22" d="M569.8,722.17c.5-1.22-.65-3.63,1.7-3.34,2.03.25,2.51,2.39,2.4,4.35-.09,1.62.05,3.91-2.27,3.55-2.39-.37-1.56-2.86-1.82-4.56Z"/>
  <path class="cls-17" d="M563.04,718.16c2.37,2.95,2.77,5.55.83,8.2-.42.57-1.29.47-1.73-.14-2.01-2.75-.97-5.22.91-8.06Z"/>
</svg>